%FSLAX45Y45*%
G04 Gerber Fmt 4.5, Leading zero omitted, Abs format (unit mm)*
G04 Created by KiCad (PCBNEW (5.1.10)-1) date 2021-12-14 18:49:54*
%MOMM*%
%LPD*%
G01*
G04 APERTURE LIST*
%TA.AperFunction,Profile*%
%ADD10C,0.100000*%
%TD*%
%ADD11C,0.200000*%
%ADD12C,0.300000*%
G04 APERTURE END LIST*
D10*
X18000000Y-10000000D02*
X3500000Y-10000000D01*
X18000000Y-1300000D02*
X18000000Y-10000000D01*
X3500000Y-10000000D02*
X3500000Y-1300000D01*
X3500000Y-1300000D02*
X18000000Y-1300000D01*
D11*
X5187000Y-1885000D02*
X5227000Y-1925000D01*
X5227000Y-1885000D02*
X5187000Y-1925000D01*
X5314000Y-4044000D02*
X5354000Y-4084000D01*
X5354000Y-4044000D02*
X5314000Y-4084000D01*
X5441000Y-6330000D02*
X5481000Y-6370000D01*
X5481000Y-6330000D02*
X5441000Y-6370000D01*
X5441000Y-8616000D02*
X5481000Y-8656000D01*
X5481000Y-8616000D02*
X5441000Y-8656000D01*
X6280000Y-3663000D02*
X6320000Y-3703000D01*
X6320000Y-3663000D02*
X6280000Y-3703000D01*
X6280000Y-4280000D02*
X6320000Y-4320000D01*
X6320000Y-4280000D02*
X6280000Y-4320000D01*
X6280000Y-5187000D02*
X6320000Y-5227000D01*
X6320000Y-5187000D02*
X6280000Y-5227000D01*
X6280000Y-6457000D02*
X6320000Y-6497000D01*
X6320000Y-6457000D02*
X6280000Y-6497000D01*
X6457000Y-5695000D02*
X6497000Y-5735000D01*
X6497000Y-5695000D02*
X6457000Y-5735000D01*
X6878350Y-6136870D02*
X6918350Y-6176870D01*
X6918350Y-6136870D02*
X6878350Y-6176870D01*
X7219000Y-2012000D02*
X7259000Y-2052000D01*
X7259000Y-2012000D02*
X7219000Y-2052000D01*
X7473000Y-2774000D02*
X7513000Y-2814000D01*
X7513000Y-2774000D02*
X7473000Y-2814000D01*
X7473000Y-4425000D02*
X7513000Y-4465000D01*
X7513000Y-4425000D02*
X7473000Y-4465000D01*
X7600000Y-7092000D02*
X7640000Y-7132000D01*
X7640000Y-7092000D02*
X7600000Y-7132000D01*
X7854000Y-5314000D02*
X7894000Y-5354000D01*
X7894000Y-5314000D02*
X7854000Y-5354000D01*
X8108000Y-2139000D02*
X8148000Y-2179000D01*
X8148000Y-2139000D02*
X8108000Y-2179000D01*
X8108000Y-3663000D02*
X8148000Y-3703000D01*
X8148000Y-3663000D02*
X8108000Y-3703000D01*
X8108000Y-4933000D02*
X8148000Y-4973000D01*
X8148000Y-4933000D02*
X8108000Y-4973000D01*
X8235000Y-6330000D02*
X8275000Y-6370000D01*
X8275000Y-6330000D02*
X8235000Y-6370000D01*
X8362000Y-2774000D02*
X8402000Y-2814000D01*
X8402000Y-2774000D02*
X8362000Y-2814000D01*
X8362000Y-5822000D02*
X8402000Y-5862000D01*
X8402000Y-5822000D02*
X8362000Y-5862000D01*
X8489000Y-5568000D02*
X8529000Y-5608000D01*
X8529000Y-5568000D02*
X8489000Y-5608000D01*
X8616000Y-5314000D02*
X8656000Y-5354000D01*
X8656000Y-5314000D02*
X8616000Y-5354000D01*
X8805350Y-5049360D02*
X8845350Y-5089360D01*
X8845350Y-5049360D02*
X8805350Y-5089360D01*
X8997000Y-4933000D02*
X9037000Y-4973000D01*
X9037000Y-4933000D02*
X8997000Y-4973000D01*
X9378000Y-7092000D02*
X9418000Y-7132000D01*
X9418000Y-7092000D02*
X9378000Y-7132000D01*
X9632000Y-1631000D02*
X9672000Y-1671000D01*
X9672000Y-1631000D02*
X9632000Y-1671000D01*
X9632000Y-1631000D02*
X9672000Y-1671000D01*
X9672000Y-1631000D02*
X9632000Y-1671000D01*
X9632000Y-2520000D02*
X9672000Y-2560000D01*
X9672000Y-2520000D02*
X9632000Y-2560000D01*
X9632000Y-5060000D02*
X9672000Y-5100000D01*
X9672000Y-5060000D02*
X9632000Y-5100000D01*
X9759000Y-5695000D02*
X9799000Y-5735000D01*
X9799000Y-5695000D02*
X9759000Y-5735000D01*
X9886000Y-4044000D02*
X9926000Y-4084000D01*
X9926000Y-4044000D02*
X9886000Y-4084000D01*
X9886000Y-6457000D02*
X9926000Y-6497000D01*
X9926000Y-6457000D02*
X9886000Y-6497000D01*
X10013000Y-5568000D02*
X10053000Y-5608000D01*
X10053000Y-5568000D02*
X10013000Y-5608000D01*
X10221190Y-5717770D02*
X10261190Y-5757770D01*
X10261190Y-5717770D02*
X10221190Y-5757770D01*
X10394000Y-3282000D02*
X10434000Y-3322000D01*
X10434000Y-3282000D02*
X10394000Y-3322000D01*
X10824160Y-6102580D02*
X10864160Y-6142580D01*
X10864160Y-6102580D02*
X10824160Y-6142580D01*
X10902000Y-5187000D02*
X10942000Y-5227000D01*
X10942000Y-5187000D02*
X10902000Y-5227000D01*
X11156000Y-5441000D02*
X11196000Y-5481000D01*
X11196000Y-5441000D02*
X11156000Y-5481000D01*
X11410000Y-2266000D02*
X11450000Y-2306000D01*
X11450000Y-2266000D02*
X11410000Y-2306000D01*
X11467110Y-6300500D02*
X11507110Y-6340500D01*
X11507110Y-6300500D02*
X11467110Y-6340500D01*
X11537000Y-5568000D02*
X11577000Y-5608000D01*
X11577000Y-5568000D02*
X11537000Y-5608000D01*
X12172000Y-1758000D02*
X12212000Y-1798000D01*
X12212000Y-1758000D02*
X12172000Y-1798000D01*
X12553000Y-3790000D02*
X12593000Y-3830000D01*
X12593000Y-3790000D02*
X12553000Y-3830000D01*
X12807000Y-3028000D02*
X12847000Y-3068000D01*
X12847000Y-3028000D02*
X12807000Y-3068000D01*
X13061000Y-4933000D02*
X13101000Y-4973000D01*
X13101000Y-4933000D02*
X13061000Y-4973000D01*
X13442000Y-7092000D02*
X13482000Y-7132000D01*
X13482000Y-7092000D02*
X13442000Y-7132000D01*
X13569000Y-5314000D02*
X13609000Y-5354000D01*
X13609000Y-5314000D02*
X13569000Y-5354000D01*
X13602770Y-5979310D02*
X13642770Y-6019310D01*
X13642770Y-5979310D02*
X13602770Y-6019310D01*
X14458000Y-7092000D02*
X14498000Y-7132000D01*
X14498000Y-7092000D02*
X14458000Y-7132000D01*
X14966000Y-5314000D02*
X15006000Y-5354000D01*
X15006000Y-5314000D02*
X14966000Y-5354000D01*
X15093000Y-6838000D02*
X15133000Y-6878000D01*
X15133000Y-6838000D02*
X15093000Y-6878000D01*
X15093000Y-7981000D02*
X15133000Y-8021000D01*
X15133000Y-7981000D02*
X15093000Y-8021000D01*
X16871000Y-9632000D02*
X16911000Y-9672000D01*
X16911000Y-9632000D02*
X16871000Y-9672000D01*
X16998000Y-2393000D02*
X17038000Y-2433000D01*
X17038000Y-2393000D02*
X16998000Y-2433000D01*
X11079000Y-6454000D02*
G75*
G03*
X11079000Y-6454000I-30000J0D01*
G01*
X11079000Y-6604000D02*
G75*
G03*
X11079000Y-6604000I-30000J0D01*
G01*
X4572000Y-1484000D02*
X4572000Y-1564000D01*
X4532000Y-1524000D02*
X4612000Y-1524000D01*
X4572000Y-1738000D02*
X4572000Y-1818000D01*
X4532000Y-1778000D02*
X4612000Y-1778000D01*
X4572000Y-1992000D02*
X4572000Y-2072000D01*
X4532000Y-2032000D02*
X4612000Y-2032000D01*
X4572000Y-2246000D02*
X4572000Y-2326000D01*
X4532000Y-2286000D02*
X4612000Y-2286000D01*
X4572000Y-2500000D02*
X4572000Y-2580000D01*
X4532000Y-2540000D02*
X4612000Y-2540000D01*
X4572000Y-2754000D02*
X4572000Y-2834000D01*
X4532000Y-2794000D02*
X4612000Y-2794000D01*
X4572000Y-3008000D02*
X4572000Y-3088000D01*
X4532000Y-3048000D02*
X4612000Y-3048000D01*
X4572000Y-3262000D02*
X4572000Y-3342000D01*
X4532000Y-3302000D02*
X4612000Y-3302000D01*
X4572000Y-3643000D02*
X4572000Y-3723000D01*
X4532000Y-3683000D02*
X4612000Y-3683000D01*
X4572000Y-3897000D02*
X4572000Y-3977000D01*
X4532000Y-3937000D02*
X4612000Y-3937000D01*
X4572000Y-4151000D02*
X4572000Y-4231000D01*
X4532000Y-4191000D02*
X4612000Y-4191000D01*
X4572000Y-4405000D02*
X4572000Y-4485000D01*
X4532000Y-4445000D02*
X4612000Y-4445000D01*
X4572000Y-4659000D02*
X4572000Y-4739000D01*
X4532000Y-4699000D02*
X4612000Y-4699000D01*
X4572000Y-4913000D02*
X4572000Y-4993000D01*
X4532000Y-4953000D02*
X4612000Y-4953000D01*
X4572000Y-5167000D02*
X4572000Y-5247000D01*
X4532000Y-5207000D02*
X4612000Y-5207000D01*
X4572000Y-5421000D02*
X4572000Y-5501000D01*
X4532000Y-5461000D02*
X4612000Y-5461000D01*
X4572000Y-5802000D02*
X4572000Y-5882000D01*
X4532000Y-5842000D02*
X4612000Y-5842000D01*
X4572000Y-6056000D02*
X4572000Y-6136000D01*
X4532000Y-6096000D02*
X4612000Y-6096000D01*
X4572000Y-6310000D02*
X4572000Y-6390000D01*
X4532000Y-6350000D02*
X4612000Y-6350000D01*
X4572000Y-6564000D02*
X4572000Y-6644000D01*
X4532000Y-6604000D02*
X4612000Y-6604000D01*
X4572000Y-6818000D02*
X4572000Y-6898000D01*
X4532000Y-6858000D02*
X4612000Y-6858000D01*
X4572000Y-7072000D02*
X4572000Y-7152000D01*
X4532000Y-7112000D02*
X4612000Y-7112000D01*
X4572000Y-7326000D02*
X4572000Y-7406000D01*
X4532000Y-7366000D02*
X4612000Y-7366000D01*
X4572000Y-7580000D02*
X4572000Y-7660000D01*
X4532000Y-7620000D02*
X4612000Y-7620000D01*
X4572000Y-7961000D02*
X4572000Y-8041000D01*
X4532000Y-8001000D02*
X4612000Y-8001000D01*
X4572000Y-8215000D02*
X4572000Y-8295000D01*
X4532000Y-8255000D02*
X4612000Y-8255000D01*
X4572000Y-8469000D02*
X4572000Y-8549000D01*
X4532000Y-8509000D02*
X4612000Y-8509000D01*
X4572000Y-8723000D02*
X4572000Y-8803000D01*
X4532000Y-8763000D02*
X4612000Y-8763000D01*
X4572000Y-8977000D02*
X4572000Y-9057000D01*
X4532000Y-9017000D02*
X4612000Y-9017000D01*
X4572000Y-9231000D02*
X4572000Y-9311000D01*
X4532000Y-9271000D02*
X4612000Y-9271000D01*
X4572000Y-9485000D02*
X4572000Y-9565000D01*
X4532000Y-9525000D02*
X4612000Y-9525000D01*
X4572000Y-9739000D02*
X4572000Y-9819000D01*
X4532000Y-9779000D02*
X4612000Y-9779000D01*
X5080000Y-2881000D02*
X5080000Y-2961000D01*
X5040000Y-2921000D02*
X5120000Y-2921000D01*
X5080000Y-9358000D02*
X5080000Y-9438000D01*
X5040000Y-9398000D02*
X5120000Y-9398000D01*
X5084000Y-5040000D02*
X5084000Y-5120000D01*
X5044000Y-5080000D02*
X5124000Y-5080000D01*
X5084000Y-7199000D02*
X5084000Y-7279000D01*
X5044000Y-7239000D02*
X5124000Y-7239000D01*
X5330000Y-2881000D02*
X5330000Y-2961000D01*
X5290000Y-2921000D02*
X5370000Y-2921000D01*
X5330000Y-9358000D02*
X5330000Y-9438000D01*
X5290000Y-9398000D02*
X5370000Y-9398000D01*
X5334000Y-5040000D02*
X5334000Y-5120000D01*
X5294000Y-5080000D02*
X5374000Y-5080000D01*
X5334000Y-7199000D02*
X5334000Y-7279000D01*
X5294000Y-7239000D02*
X5374000Y-7239000D01*
X5842000Y-1484000D02*
X5842000Y-1564000D01*
X5802000Y-1524000D02*
X5882000Y-1524000D01*
X5842000Y-1738000D02*
X5842000Y-1818000D01*
X5802000Y-1778000D02*
X5882000Y-1778000D01*
X5842000Y-1992000D02*
X5842000Y-2072000D01*
X5802000Y-2032000D02*
X5882000Y-2032000D01*
X5842000Y-2246000D02*
X5842000Y-2326000D01*
X5802000Y-2286000D02*
X5882000Y-2286000D01*
X5842000Y-2500000D02*
X5842000Y-2580000D01*
X5802000Y-2540000D02*
X5882000Y-2540000D01*
X5842000Y-2754000D02*
X5842000Y-2834000D01*
X5802000Y-2794000D02*
X5882000Y-2794000D01*
X5842000Y-3008000D02*
X5842000Y-3088000D01*
X5802000Y-3048000D02*
X5882000Y-3048000D01*
X5842000Y-3262000D02*
X5842000Y-3342000D01*
X5802000Y-3302000D02*
X5882000Y-3302000D01*
X5842000Y-3643000D02*
X5842000Y-3723000D01*
X5802000Y-3683000D02*
X5882000Y-3683000D01*
X5842000Y-3897000D02*
X5842000Y-3977000D01*
X5802000Y-3937000D02*
X5882000Y-3937000D01*
X5842000Y-4151000D02*
X5842000Y-4231000D01*
X5802000Y-4191000D02*
X5882000Y-4191000D01*
X5842000Y-4405000D02*
X5842000Y-4485000D01*
X5802000Y-4445000D02*
X5882000Y-4445000D01*
X5842000Y-4659000D02*
X5842000Y-4739000D01*
X5802000Y-4699000D02*
X5882000Y-4699000D01*
X5842000Y-4913000D02*
X5842000Y-4993000D01*
X5802000Y-4953000D02*
X5882000Y-4953000D01*
X5842000Y-5167000D02*
X5842000Y-5247000D01*
X5802000Y-5207000D02*
X5882000Y-5207000D01*
X5842000Y-5421000D02*
X5842000Y-5501000D01*
X5802000Y-5461000D02*
X5882000Y-5461000D01*
X5842000Y-5802000D02*
X5842000Y-5882000D01*
X5802000Y-5842000D02*
X5882000Y-5842000D01*
X5842000Y-6056000D02*
X5842000Y-6136000D01*
X5802000Y-6096000D02*
X5882000Y-6096000D01*
X5842000Y-6310000D02*
X5842000Y-6390000D01*
X5802000Y-6350000D02*
X5882000Y-6350000D01*
X5842000Y-6564000D02*
X5842000Y-6644000D01*
X5802000Y-6604000D02*
X5882000Y-6604000D01*
X5842000Y-6818000D02*
X5842000Y-6898000D01*
X5802000Y-6858000D02*
X5882000Y-6858000D01*
X5842000Y-7072000D02*
X5842000Y-7152000D01*
X5802000Y-7112000D02*
X5882000Y-7112000D01*
X5842000Y-7326000D02*
X5842000Y-7406000D01*
X5802000Y-7366000D02*
X5882000Y-7366000D01*
X5842000Y-7580000D02*
X5842000Y-7660000D01*
X5802000Y-7620000D02*
X5882000Y-7620000D01*
X5842000Y-7961000D02*
X5842000Y-8041000D01*
X5802000Y-8001000D02*
X5882000Y-8001000D01*
X5842000Y-8215000D02*
X5842000Y-8295000D01*
X5802000Y-8255000D02*
X5882000Y-8255000D01*
X5842000Y-8469000D02*
X5842000Y-8549000D01*
X5802000Y-8509000D02*
X5882000Y-8509000D01*
X5842000Y-8723000D02*
X5842000Y-8803000D01*
X5802000Y-8763000D02*
X5882000Y-8763000D01*
X5842000Y-8977000D02*
X5842000Y-9057000D01*
X5802000Y-9017000D02*
X5882000Y-9017000D01*
X5842000Y-9231000D02*
X5842000Y-9311000D01*
X5802000Y-9271000D02*
X5882000Y-9271000D01*
X5842000Y-9485000D02*
X5842000Y-9565000D01*
X5802000Y-9525000D02*
X5882000Y-9525000D01*
X5842000Y-9739000D02*
X5842000Y-9819000D01*
X5802000Y-9779000D02*
X5882000Y-9779000D01*
X7239000Y-7834000D02*
X7239000Y-7914000D01*
X7199000Y-7874000D02*
X7279000Y-7874000D01*
X7239000Y-8084000D02*
X7239000Y-8164000D01*
X7199000Y-8124000D02*
X7279000Y-8124000D01*
X8255000Y-7838000D02*
X8255000Y-7918000D01*
X8215000Y-7878000D02*
X8295000Y-7878000D01*
X8255000Y-8088000D02*
X8255000Y-8168000D01*
X8215000Y-8128000D02*
X8295000Y-8128000D01*
X9017000Y-8088000D02*
X9017000Y-8168000D01*
X8977000Y-8128000D02*
X9057000Y-8128000D01*
X9271000Y-8088000D02*
X9271000Y-8168000D01*
X9231000Y-8128000D02*
X9311000Y-8128000D01*
X9525000Y-8088000D02*
X9525000Y-8168000D01*
X9485000Y-8128000D02*
X9565000Y-8128000D01*
X10033000Y-4917000D02*
X10033000Y-4997000D01*
X9993000Y-4957000D02*
X10073000Y-4957000D01*
X10033000Y-5167000D02*
X10033000Y-5247000D01*
X9993000Y-5207000D02*
X10073000Y-5207000D01*
X10033000Y-8088000D02*
X10033000Y-8168000D01*
X9993000Y-8128000D02*
X10073000Y-8128000D01*
X10287000Y-8088000D02*
X10287000Y-8168000D01*
X10247000Y-8128000D02*
X10327000Y-8128000D01*
X10541000Y-8088000D02*
X10541000Y-8168000D01*
X10501000Y-8128000D02*
X10581000Y-8128000D01*
X10922000Y-1738000D02*
X10922000Y-1818000D01*
X10882000Y-1778000D02*
X10962000Y-1778000D01*
X10922000Y-1988000D02*
X10922000Y-2068000D01*
X10882000Y-2028000D02*
X10962000Y-2028000D01*
X11049000Y-8088000D02*
X11049000Y-8168000D01*
X11009000Y-8128000D02*
X11089000Y-8128000D01*
X11303000Y-3770000D02*
X11303000Y-3850000D01*
X11263000Y-3810000D02*
X11343000Y-3810000D01*
X11303000Y-4020000D02*
X11303000Y-4100000D01*
X11263000Y-4060000D02*
X11343000Y-4060000D01*
X11303000Y-8088000D02*
X11303000Y-8168000D01*
X11263000Y-8128000D02*
X11343000Y-8128000D01*
X11557000Y-8088000D02*
X11557000Y-8168000D01*
X11517000Y-8128000D02*
X11597000Y-8128000D01*
X12065000Y-8088000D02*
X12065000Y-8168000D01*
X12025000Y-8128000D02*
X12105000Y-8128000D01*
X12319000Y-8088000D02*
X12319000Y-8168000D01*
X12279000Y-8128000D02*
X12359000Y-8128000D01*
X12573000Y-8088000D02*
X12573000Y-8168000D01*
X12533000Y-8128000D02*
X12613000Y-8128000D01*
X12700000Y-2373000D02*
X12700000Y-2453000D01*
X12660000Y-2413000D02*
X12740000Y-2413000D01*
X12950000Y-2373000D02*
X12950000Y-2453000D01*
X12910000Y-2413000D02*
X12990000Y-2413000D01*
X13081000Y-8088000D02*
X13081000Y-8168000D01*
X13041000Y-8128000D02*
X13121000Y-8128000D01*
X13335000Y-8088000D02*
X13335000Y-8168000D01*
X13295000Y-8128000D02*
X13375000Y-8128000D01*
X13589000Y-8088000D02*
X13589000Y-8168000D01*
X13549000Y-8128000D02*
X13629000Y-8128000D01*
X14097000Y-8088000D02*
X14097000Y-8168000D01*
X14057000Y-8128000D02*
X14137000Y-8128000D01*
X14228000Y-4786000D02*
X14228000Y-4866000D01*
X14188000Y-4826000D02*
X14268000Y-4826000D01*
X14351000Y-8088000D02*
X14351000Y-8168000D01*
X14311000Y-8128000D02*
X14391000Y-8128000D01*
X14478000Y-4786000D02*
X14478000Y-4866000D01*
X14438000Y-4826000D02*
X14518000Y-4826000D01*
X14605000Y-8088000D02*
X14605000Y-8168000D01*
X14565000Y-8128000D02*
X14645000Y-8128000D01*
X13620820Y-4730820D02*
X13620820Y-4667180D01*
X13557180Y-4667180D01*
X13557180Y-4730820D01*
X13620820Y-4730820D01*
X13874820Y-4730820D02*
X13874820Y-4667180D01*
X13811180Y-4667180D01*
X13811180Y-4730820D01*
X13874820Y-4730820D01*
X4064000Y-2590000D02*
X4114000Y-2540000D01*
X4064000Y-2490000D01*
X4014000Y-2540000D01*
X4064000Y-2590000D01*
X4064000Y-2844000D02*
X4114000Y-2794000D01*
X4064000Y-2744000D01*
X4014000Y-2794000D01*
X4064000Y-2844000D01*
X4064000Y-3098000D02*
X4114000Y-3048000D01*
X4064000Y-2998000D01*
X4014000Y-3048000D01*
X4064000Y-3098000D01*
X4064000Y-3352000D02*
X4114000Y-3302000D01*
X4064000Y-3252000D01*
X4014000Y-3302000D01*
X4064000Y-3352000D01*
X4064000Y-4241000D02*
X4114000Y-4191000D01*
X4064000Y-4141000D01*
X4014000Y-4191000D01*
X4064000Y-4241000D01*
X4064000Y-4495000D02*
X4114000Y-4445000D01*
X4064000Y-4395000D01*
X4014000Y-4445000D01*
X4064000Y-4495000D01*
X4064000Y-4749000D02*
X4114000Y-4699000D01*
X4064000Y-4649000D01*
X4014000Y-4699000D01*
X4064000Y-4749000D01*
X4064000Y-5003000D02*
X4114000Y-4953000D01*
X4064000Y-4903000D01*
X4014000Y-4953000D01*
X4064000Y-5003000D01*
X4064000Y-6400000D02*
X4114000Y-6350000D01*
X4064000Y-6300000D01*
X4014000Y-6350000D01*
X4064000Y-6400000D01*
X4064000Y-6654000D02*
X4114000Y-6604000D01*
X4064000Y-6554000D01*
X4014000Y-6604000D01*
X4064000Y-6654000D01*
X4064000Y-6908000D02*
X4114000Y-6858000D01*
X4064000Y-6808000D01*
X4014000Y-6858000D01*
X4064000Y-6908000D01*
X4064000Y-7162000D02*
X4114000Y-7112000D01*
X4064000Y-7062000D01*
X4014000Y-7112000D01*
X4064000Y-7162000D01*
X4064000Y-8051000D02*
X4114000Y-8001000D01*
X4064000Y-7951000D01*
X4014000Y-8001000D01*
X4064000Y-8051000D01*
X4064000Y-8305000D02*
X4114000Y-8255000D01*
X4064000Y-8205000D01*
X4014000Y-8255000D01*
X4064000Y-8305000D01*
X4064000Y-8559000D02*
X4114000Y-8509000D01*
X4064000Y-8459000D01*
X4014000Y-8509000D01*
X4064000Y-8559000D01*
X4064000Y-8813000D02*
X4114000Y-8763000D01*
X4064000Y-8713000D01*
X4014000Y-8763000D01*
X4064000Y-8813000D01*
X10287000Y-1828000D02*
X10337000Y-1778000D01*
X10287000Y-1728000D01*
X10237000Y-1778000D01*
X10287000Y-1828000D01*
X10287000Y-2082000D02*
X10337000Y-2032000D01*
X10287000Y-1982000D01*
X10237000Y-2032000D01*
X10287000Y-2082000D01*
X10287000Y-2336000D02*
X10337000Y-2286000D01*
X10287000Y-2236000D01*
X10237000Y-2286000D01*
X10287000Y-2336000D01*
X10287000Y-2590000D02*
X10337000Y-2540000D01*
X10287000Y-2490000D01*
X10237000Y-2540000D01*
X10287000Y-2590000D01*
X10287000Y-2844000D02*
X10337000Y-2794000D01*
X10287000Y-2744000D01*
X10237000Y-2794000D01*
X10287000Y-2844000D01*
X10668000Y-4622000D02*
X10718000Y-4572000D01*
X10668000Y-4522000D01*
X10618000Y-4572000D01*
X10668000Y-4622000D01*
X10668000Y-4876000D02*
X10718000Y-4826000D01*
X10668000Y-4776000D01*
X10618000Y-4826000D01*
X10668000Y-4876000D01*
X10668000Y-5130000D02*
X10718000Y-5080000D01*
X10668000Y-5030000D01*
X10618000Y-5080000D01*
X10668000Y-5130000D01*
X11811000Y-2082000D02*
X11861000Y-2032000D01*
X11811000Y-1982000D01*
X11761000Y-2032000D01*
X11811000Y-2082000D01*
X11811000Y-2336000D02*
X11861000Y-2286000D01*
X11811000Y-2236000D01*
X11761000Y-2286000D01*
X11811000Y-2336000D01*
X11811000Y-2590000D02*
X11861000Y-2540000D01*
X11811000Y-2490000D01*
X11761000Y-2540000D01*
X11811000Y-2590000D01*
X11811000Y-2844000D02*
X11861000Y-2794000D01*
X11811000Y-2744000D01*
X11761000Y-2794000D01*
X11811000Y-2844000D01*
X11811000Y-4622000D02*
X11861000Y-4572000D01*
X11811000Y-4522000D01*
X11761000Y-4572000D01*
X11811000Y-4622000D01*
X11811000Y-4876000D02*
X11861000Y-4826000D01*
X11811000Y-4776000D01*
X11761000Y-4826000D01*
X11811000Y-4876000D01*
X11811000Y-5130000D02*
X11861000Y-5080000D01*
X11811000Y-5030000D01*
X11761000Y-5080000D01*
X11811000Y-5130000D01*
X11811000Y-5384000D02*
X11861000Y-5334000D01*
X11811000Y-5284000D01*
X11761000Y-5334000D01*
X11811000Y-5384000D01*
X11938000Y-3479000D02*
X11988000Y-3429000D01*
X11938000Y-3379000D01*
X11888000Y-3429000D01*
X11938000Y-3479000D01*
X11938000Y-3733000D02*
X11988000Y-3683000D01*
X11938000Y-3633000D01*
X11888000Y-3683000D01*
X11938000Y-3733000D01*
X11938000Y-3987000D02*
X11988000Y-3937000D01*
X11938000Y-3887000D01*
X11888000Y-3937000D01*
X11938000Y-3987000D01*
X12065000Y-4622000D02*
X12115000Y-4572000D01*
X12065000Y-4522000D01*
X12015000Y-4572000D01*
X12065000Y-4622000D01*
X12065000Y-4876000D02*
X12115000Y-4826000D01*
X12065000Y-4776000D01*
X12015000Y-4826000D01*
X12065000Y-4876000D01*
X12065000Y-5130000D02*
X12115000Y-5080000D01*
X12065000Y-5030000D01*
X12015000Y-5080000D01*
X12065000Y-5130000D01*
X12065000Y-5384000D02*
X12115000Y-5334000D01*
X12065000Y-5284000D01*
X12015000Y-5334000D01*
X12065000Y-5384000D01*
X12319000Y-4622000D02*
X12369000Y-4572000D01*
X12319000Y-4522000D01*
X12269000Y-4572000D01*
X12319000Y-4622000D01*
X12319000Y-4876000D02*
X12369000Y-4826000D01*
X12319000Y-4776000D01*
X12269000Y-4826000D01*
X12319000Y-4876000D01*
X12319000Y-5130000D02*
X12369000Y-5080000D01*
X12319000Y-5030000D01*
X12269000Y-5080000D01*
X12319000Y-5130000D01*
X12319000Y-5384000D02*
X12369000Y-5334000D01*
X12319000Y-5284000D01*
X12269000Y-5334000D01*
X12319000Y-5384000D01*
X12573000Y-4622000D02*
X12623000Y-4572000D01*
X12573000Y-4522000D01*
X12523000Y-4572000D01*
X12573000Y-4622000D01*
X12573000Y-4876000D02*
X12623000Y-4826000D01*
X12573000Y-4776000D01*
X12523000Y-4826000D01*
X12573000Y-4876000D01*
X12573000Y-5130000D02*
X12623000Y-5080000D01*
X12573000Y-5030000D01*
X12523000Y-5080000D01*
X12573000Y-5130000D01*
X12573000Y-5384000D02*
X12623000Y-5334000D01*
X12573000Y-5284000D01*
X12523000Y-5334000D01*
X12573000Y-5384000D01*
X12954000Y-5765000D02*
X13004000Y-5715000D01*
X12954000Y-5665000D01*
X12904000Y-5715000D01*
X12954000Y-5765000D01*
X12954000Y-6019000D02*
X13004000Y-5969000D01*
X12954000Y-5919000D01*
X12904000Y-5969000D01*
X12954000Y-6019000D01*
X12954000Y-6273000D02*
X13004000Y-6223000D01*
X12954000Y-6173000D01*
X12904000Y-6223000D01*
X12954000Y-6273000D01*
X12954000Y-6527000D02*
X13004000Y-6477000D01*
X12954000Y-6427000D01*
X12904000Y-6477000D01*
X12954000Y-6527000D01*
X13208000Y-3225000D02*
X13258000Y-3175000D01*
X13208000Y-3125000D01*
X13158000Y-3175000D01*
X13208000Y-3225000D01*
X13208000Y-3479000D02*
X13258000Y-3429000D01*
X13208000Y-3379000D01*
X13158000Y-3429000D01*
X13208000Y-3479000D01*
X13208000Y-3733000D02*
X13258000Y-3683000D01*
X13208000Y-3633000D01*
X13158000Y-3683000D01*
X13208000Y-3733000D01*
X13208000Y-3987000D02*
X13258000Y-3937000D01*
X13208000Y-3887000D01*
X13158000Y-3937000D01*
X13208000Y-3987000D01*
X13716000Y-2844000D02*
X13766000Y-2794000D01*
X13716000Y-2744000D01*
X13666000Y-2794000D01*
X13716000Y-2844000D01*
X13716000Y-3098000D02*
X13766000Y-3048000D01*
X13716000Y-2998000D01*
X13666000Y-3048000D01*
X13716000Y-3098000D01*
X13716000Y-3733000D02*
X13766000Y-3683000D01*
X13716000Y-3633000D01*
X13666000Y-3683000D01*
X13716000Y-3733000D01*
X13716000Y-3987000D02*
X13766000Y-3937000D01*
X13716000Y-3887000D01*
X13666000Y-3937000D01*
X13716000Y-3987000D01*
X13970000Y-2844000D02*
X14020000Y-2794000D01*
X13970000Y-2744000D01*
X13920000Y-2794000D01*
X13970000Y-2844000D01*
X13970000Y-3098000D02*
X14020000Y-3048000D01*
X13970000Y-2998000D01*
X13920000Y-3048000D01*
X13970000Y-3098000D01*
X13970000Y-3733000D02*
X14020000Y-3683000D01*
X13970000Y-3633000D01*
X13920000Y-3683000D01*
X13970000Y-3733000D01*
X13970000Y-3987000D02*
X14020000Y-3937000D01*
X13970000Y-3887000D01*
X13920000Y-3937000D01*
X13970000Y-3987000D01*
X14224000Y-2844000D02*
X14274000Y-2794000D01*
X14224000Y-2744000D01*
X14174000Y-2794000D01*
X14224000Y-2844000D01*
X14224000Y-3098000D02*
X14274000Y-3048000D01*
X14224000Y-2998000D01*
X14174000Y-3048000D01*
X14224000Y-3098000D01*
X14224000Y-3733000D02*
X14274000Y-3683000D01*
X14224000Y-3633000D01*
X14174000Y-3683000D01*
X14224000Y-3733000D01*
X14224000Y-3987000D02*
X14274000Y-3937000D01*
X14224000Y-3887000D01*
X14174000Y-3937000D01*
X14224000Y-3987000D01*
X14224000Y-5511000D02*
X14274000Y-5461000D01*
X14224000Y-5411000D01*
X14174000Y-5461000D01*
X14224000Y-5511000D01*
X14224000Y-5765000D02*
X14274000Y-5715000D01*
X14224000Y-5665000D01*
X14174000Y-5715000D01*
X14224000Y-5765000D01*
X14224000Y-6019000D02*
X14274000Y-5969000D01*
X14224000Y-5919000D01*
X14174000Y-5969000D01*
X14224000Y-6019000D01*
X14224000Y-6273000D02*
X14274000Y-6223000D01*
X14224000Y-6173000D01*
X14174000Y-6223000D01*
X14224000Y-6273000D01*
X14224000Y-6527000D02*
X14274000Y-6477000D01*
X14224000Y-6427000D01*
X14174000Y-6477000D01*
X14224000Y-6527000D01*
X14478000Y-2844000D02*
X14528000Y-2794000D01*
X14478000Y-2744000D01*
X14428000Y-2794000D01*
X14478000Y-2844000D01*
X14478000Y-3098000D02*
X14528000Y-3048000D01*
X14478000Y-2998000D01*
X14428000Y-3048000D01*
X14478000Y-3098000D01*
X14478000Y-3733000D02*
X14528000Y-3683000D01*
X14478000Y-3633000D01*
X14428000Y-3683000D01*
X14478000Y-3733000D01*
X14478000Y-3987000D02*
X14528000Y-3937000D01*
X14478000Y-3887000D01*
X14428000Y-3937000D01*
X14478000Y-3987000D01*
X14732000Y-2844000D02*
X14782000Y-2794000D01*
X14732000Y-2744000D01*
X14682000Y-2794000D01*
X14732000Y-2844000D01*
X14732000Y-3098000D02*
X14782000Y-3048000D01*
X14732000Y-2998000D01*
X14682000Y-3048000D01*
X14732000Y-3098000D01*
X14732000Y-3733000D02*
X14782000Y-3683000D01*
X14732000Y-3633000D01*
X14682000Y-3683000D01*
X14732000Y-3733000D01*
X14732000Y-3987000D02*
X14782000Y-3937000D01*
X14732000Y-3887000D01*
X14682000Y-3937000D01*
X14732000Y-3987000D01*
X14986000Y-2844000D02*
X15036000Y-2794000D01*
X14986000Y-2744000D01*
X14936000Y-2794000D01*
X14986000Y-2844000D01*
X14986000Y-3098000D02*
X15036000Y-3048000D01*
X14986000Y-2998000D01*
X14936000Y-3048000D01*
X14986000Y-3098000D01*
X14986000Y-3733000D02*
X15036000Y-3683000D01*
X14986000Y-3633000D01*
X14936000Y-3683000D01*
X14986000Y-3733000D01*
X14986000Y-3987000D02*
X15036000Y-3937000D01*
X14986000Y-3887000D01*
X14936000Y-3937000D01*
X14986000Y-3987000D01*
X6679000Y-1472000D02*
X6783000Y-1576000D01*
X6783000Y-1472000D02*
X6679000Y-1576000D01*
X6783000Y-1524000D02*
G75*
G03*
X6783000Y-1524000I-52000J0D01*
G01*
X6679000Y-1726000D02*
X6783000Y-1830000D01*
X6783000Y-1726000D02*
X6679000Y-1830000D01*
X6783000Y-1778000D02*
G75*
G03*
X6783000Y-1778000I-52000J0D01*
G01*
X6679000Y-1980000D02*
X6783000Y-2084000D01*
X6783000Y-1980000D02*
X6679000Y-2084000D01*
X6783000Y-2032000D02*
G75*
G03*
X6783000Y-2032000I-52000J0D01*
G01*
X6679000Y-2234000D02*
X6783000Y-2338000D01*
X6783000Y-2234000D02*
X6679000Y-2338000D01*
X6783000Y-2286000D02*
G75*
G03*
X6783000Y-2286000I-52000J0D01*
G01*
X6679000Y-2488000D02*
X6783000Y-2592000D01*
X6783000Y-2488000D02*
X6679000Y-2592000D01*
X6783000Y-2540000D02*
G75*
G03*
X6783000Y-2540000I-52000J0D01*
G01*
X6679000Y-2742000D02*
X6783000Y-2846000D01*
X6783000Y-2742000D02*
X6679000Y-2846000D01*
X6783000Y-2794000D02*
G75*
G03*
X6783000Y-2794000I-52000J0D01*
G01*
X6679000Y-2996000D02*
X6783000Y-3100000D01*
X6783000Y-2996000D02*
X6679000Y-3100000D01*
X6783000Y-3048000D02*
G75*
G03*
X6783000Y-3048000I-52000J0D01*
G01*
X6679000Y-3250000D02*
X6783000Y-3354000D01*
X6783000Y-3250000D02*
X6679000Y-3354000D01*
X6783000Y-3302000D02*
G75*
G03*
X6783000Y-3302000I-52000J0D01*
G01*
X6679000Y-3504000D02*
X6783000Y-3608000D01*
X6783000Y-3504000D02*
X6679000Y-3608000D01*
X6783000Y-3556000D02*
G75*
G03*
X6783000Y-3556000I-52000J0D01*
G01*
X6679000Y-3758000D02*
X6783000Y-3862000D01*
X6783000Y-3758000D02*
X6679000Y-3862000D01*
X6783000Y-3810000D02*
G75*
G03*
X6783000Y-3810000I-52000J0D01*
G01*
X6679000Y-4012000D02*
X6783000Y-4116000D01*
X6783000Y-4012000D02*
X6679000Y-4116000D01*
X6783000Y-4064000D02*
G75*
G03*
X6783000Y-4064000I-52000J0D01*
G01*
X6679000Y-4266000D02*
X6783000Y-4370000D01*
X6783000Y-4266000D02*
X6679000Y-4370000D01*
X6783000Y-4318000D02*
G75*
G03*
X6783000Y-4318000I-52000J0D01*
G01*
X6679000Y-4520000D02*
X6783000Y-4624000D01*
X6783000Y-4520000D02*
X6679000Y-4624000D01*
X6783000Y-4572000D02*
G75*
G03*
X6783000Y-4572000I-52000J0D01*
G01*
X6679000Y-4774000D02*
X6783000Y-4878000D01*
X6783000Y-4774000D02*
X6679000Y-4878000D01*
X6783000Y-4826000D02*
G75*
G03*
X6783000Y-4826000I-52000J0D01*
G01*
X6679000Y-5028000D02*
X6783000Y-5132000D01*
X6783000Y-5028000D02*
X6679000Y-5132000D01*
X6783000Y-5080000D02*
G75*
G03*
X6783000Y-5080000I-52000J0D01*
G01*
X6679000Y-5282000D02*
X6783000Y-5386000D01*
X6783000Y-5282000D02*
X6679000Y-5386000D01*
X6783000Y-5334000D02*
G75*
G03*
X6783000Y-5334000I-52000J0D01*
G01*
X6679000Y-5536000D02*
X6783000Y-5640000D01*
X6783000Y-5536000D02*
X6679000Y-5640000D01*
X6783000Y-5588000D02*
G75*
G03*
X6783000Y-5588000I-52000J0D01*
G01*
X6679000Y-5790000D02*
X6783000Y-5894000D01*
X6783000Y-5790000D02*
X6679000Y-5894000D01*
X6783000Y-5842000D02*
G75*
G03*
X6783000Y-5842000I-52000J0D01*
G01*
X6679000Y-6044000D02*
X6783000Y-6148000D01*
X6783000Y-6044000D02*
X6679000Y-6148000D01*
X6783000Y-6096000D02*
G75*
G03*
X6783000Y-6096000I-52000J0D01*
G01*
X9219000Y-1472000D02*
X9323000Y-1576000D01*
X9323000Y-1472000D02*
X9219000Y-1576000D01*
X9323000Y-1524000D02*
G75*
G03*
X9323000Y-1524000I-52000J0D01*
G01*
X9219000Y-1726000D02*
X9323000Y-1830000D01*
X9323000Y-1726000D02*
X9219000Y-1830000D01*
X9323000Y-1778000D02*
G75*
G03*
X9323000Y-1778000I-52000J0D01*
G01*
X9219000Y-1980000D02*
X9323000Y-2084000D01*
X9323000Y-1980000D02*
X9219000Y-2084000D01*
X9323000Y-2032000D02*
G75*
G03*
X9323000Y-2032000I-52000J0D01*
G01*
X9219000Y-2234000D02*
X9323000Y-2338000D01*
X9323000Y-2234000D02*
X9219000Y-2338000D01*
X9323000Y-2286000D02*
G75*
G03*
X9323000Y-2286000I-52000J0D01*
G01*
X9219000Y-2488000D02*
X9323000Y-2592000D01*
X9323000Y-2488000D02*
X9219000Y-2592000D01*
X9323000Y-2540000D02*
G75*
G03*
X9323000Y-2540000I-52000J0D01*
G01*
X9219000Y-2742000D02*
X9323000Y-2846000D01*
X9323000Y-2742000D02*
X9219000Y-2846000D01*
X9323000Y-2794000D02*
G75*
G03*
X9323000Y-2794000I-52000J0D01*
G01*
X9219000Y-2996000D02*
X9323000Y-3100000D01*
X9323000Y-2996000D02*
X9219000Y-3100000D01*
X9323000Y-3048000D02*
G75*
G03*
X9323000Y-3048000I-52000J0D01*
G01*
X9219000Y-3250000D02*
X9323000Y-3354000D01*
X9323000Y-3250000D02*
X9219000Y-3354000D01*
X9323000Y-3302000D02*
G75*
G03*
X9323000Y-3302000I-52000J0D01*
G01*
X9219000Y-3504000D02*
X9323000Y-3608000D01*
X9323000Y-3504000D02*
X9219000Y-3608000D01*
X9323000Y-3556000D02*
G75*
G03*
X9323000Y-3556000I-52000J0D01*
G01*
X9219000Y-3758000D02*
X9323000Y-3862000D01*
X9323000Y-3758000D02*
X9219000Y-3862000D01*
X9323000Y-3810000D02*
G75*
G03*
X9323000Y-3810000I-52000J0D01*
G01*
X9219000Y-4012000D02*
X9323000Y-4116000D01*
X9323000Y-4012000D02*
X9219000Y-4116000D01*
X9323000Y-4064000D02*
G75*
G03*
X9323000Y-4064000I-52000J0D01*
G01*
X9219000Y-4266000D02*
X9323000Y-4370000D01*
X9323000Y-4266000D02*
X9219000Y-4370000D01*
X9323000Y-4318000D02*
G75*
G03*
X9323000Y-4318000I-52000J0D01*
G01*
X9219000Y-4520000D02*
X9323000Y-4624000D01*
X9323000Y-4520000D02*
X9219000Y-4624000D01*
X9323000Y-4572000D02*
G75*
G03*
X9323000Y-4572000I-52000J0D01*
G01*
X9219000Y-4774000D02*
X9323000Y-4878000D01*
X9323000Y-4774000D02*
X9219000Y-4878000D01*
X9323000Y-4826000D02*
G75*
G03*
X9323000Y-4826000I-52000J0D01*
G01*
X9219000Y-5028000D02*
X9323000Y-5132000D01*
X9323000Y-5028000D02*
X9219000Y-5132000D01*
X9323000Y-5080000D02*
G75*
G03*
X9323000Y-5080000I-52000J0D01*
G01*
X9219000Y-5282000D02*
X9323000Y-5386000D01*
X9323000Y-5282000D02*
X9219000Y-5386000D01*
X9323000Y-5334000D02*
G75*
G03*
X9323000Y-5334000I-52000J0D01*
G01*
X9219000Y-5536000D02*
X9323000Y-5640000D01*
X9323000Y-5536000D02*
X9219000Y-5640000D01*
X9323000Y-5588000D02*
G75*
G03*
X9323000Y-5588000I-52000J0D01*
G01*
X9219000Y-5790000D02*
X9323000Y-5894000D01*
X9323000Y-5790000D02*
X9219000Y-5894000D01*
X9323000Y-5842000D02*
G75*
G03*
X9323000Y-5842000I-52000J0D01*
G01*
X9219000Y-6044000D02*
X9323000Y-6148000D01*
X9323000Y-6044000D02*
X9219000Y-6148000D01*
X9323000Y-6096000D02*
G75*
G03*
X9323000Y-6096000I-52000J0D01*
G01*
X15947000Y-3247000D02*
X16057000Y-3357000D01*
X16057000Y-3247000D02*
X15947000Y-3357000D01*
X16002000Y-3247000D02*
X16002000Y-3357000D01*
X15947000Y-3302000D02*
X16057000Y-3302000D01*
X15947000Y-4263000D02*
X16057000Y-4373000D01*
X16057000Y-4263000D02*
X15947000Y-4373000D01*
X16002000Y-4263000D02*
X16002000Y-4373000D01*
X15947000Y-4318000D02*
X16057000Y-4318000D01*
X15947000Y-5279000D02*
X16057000Y-5389000D01*
X16057000Y-5279000D02*
X15947000Y-5389000D01*
X16002000Y-5279000D02*
X16002000Y-5389000D01*
X15947000Y-5334000D02*
X16057000Y-5334000D01*
X15947000Y-6295000D02*
X16057000Y-6405000D01*
X16057000Y-6295000D02*
X15947000Y-6405000D01*
X16002000Y-6295000D02*
X16002000Y-6405000D01*
X15947000Y-6350000D02*
X16057000Y-6350000D01*
X15947000Y-7311000D02*
X16057000Y-7421000D01*
X16057000Y-7311000D02*
X15947000Y-7421000D01*
X16002000Y-7311000D02*
X16002000Y-7421000D01*
X15947000Y-7366000D02*
X16057000Y-7366000D01*
X15947000Y-8327000D02*
X16057000Y-8437000D01*
X16057000Y-8327000D02*
X15947000Y-8437000D01*
X16002000Y-8327000D02*
X16002000Y-8437000D01*
X15947000Y-8382000D02*
X16057000Y-8382000D01*
X16201000Y-3247000D02*
X16311000Y-3357000D01*
X16311000Y-3247000D02*
X16201000Y-3357000D01*
X16256000Y-3247000D02*
X16256000Y-3357000D01*
X16201000Y-3302000D02*
X16311000Y-3302000D01*
X16201000Y-4263000D02*
X16311000Y-4373000D01*
X16311000Y-4263000D02*
X16201000Y-4373000D01*
X16256000Y-4263000D02*
X16256000Y-4373000D01*
X16201000Y-4318000D02*
X16311000Y-4318000D01*
X16201000Y-5279000D02*
X16311000Y-5389000D01*
X16311000Y-5279000D02*
X16201000Y-5389000D01*
X16256000Y-5279000D02*
X16256000Y-5389000D01*
X16201000Y-5334000D02*
X16311000Y-5334000D01*
X16201000Y-6295000D02*
X16311000Y-6405000D01*
X16311000Y-6295000D02*
X16201000Y-6405000D01*
X16256000Y-6295000D02*
X16256000Y-6405000D01*
X16201000Y-6350000D02*
X16311000Y-6350000D01*
X16201000Y-7311000D02*
X16311000Y-7421000D01*
X16311000Y-7311000D02*
X16201000Y-7421000D01*
X16256000Y-7311000D02*
X16256000Y-7421000D01*
X16201000Y-7366000D02*
X16311000Y-7366000D01*
X16201000Y-8327000D02*
X16311000Y-8437000D01*
X16311000Y-8327000D02*
X16201000Y-8437000D01*
X16256000Y-8327000D02*
X16256000Y-8437000D01*
X16201000Y-8382000D02*
X16311000Y-8382000D01*
X16455000Y-3247000D02*
X16565000Y-3357000D01*
X16565000Y-3247000D02*
X16455000Y-3357000D01*
X16510000Y-3247000D02*
X16510000Y-3357000D01*
X16455000Y-3302000D02*
X16565000Y-3302000D01*
X16455000Y-4263000D02*
X16565000Y-4373000D01*
X16565000Y-4263000D02*
X16455000Y-4373000D01*
X16510000Y-4263000D02*
X16510000Y-4373000D01*
X16455000Y-4318000D02*
X16565000Y-4318000D01*
X16455000Y-5279000D02*
X16565000Y-5389000D01*
X16565000Y-5279000D02*
X16455000Y-5389000D01*
X16510000Y-5279000D02*
X16510000Y-5389000D01*
X16455000Y-5334000D02*
X16565000Y-5334000D01*
X16455000Y-6295000D02*
X16565000Y-6405000D01*
X16565000Y-6295000D02*
X16455000Y-6405000D01*
X16510000Y-6295000D02*
X16510000Y-6405000D01*
X16455000Y-6350000D02*
X16565000Y-6350000D01*
X16455000Y-7311000D02*
X16565000Y-7421000D01*
X16565000Y-7311000D02*
X16455000Y-7421000D01*
X16510000Y-7311000D02*
X16510000Y-7421000D01*
X16455000Y-7366000D02*
X16565000Y-7366000D01*
X16455000Y-8327000D02*
X16565000Y-8437000D01*
X16565000Y-8327000D02*
X16455000Y-8437000D01*
X16510000Y-8327000D02*
X16510000Y-8437000D01*
X16455000Y-8382000D02*
X16565000Y-8382000D01*
X8957000Y-8576000D02*
X9077000Y-8696000D01*
X9077000Y-8576000D02*
X8957000Y-8696000D01*
X9059427Y-8678427D02*
X9059427Y-8593573D01*
X8974573Y-8593573D01*
X8974573Y-8678427D01*
X9059427Y-8678427D01*
X9211000Y-8576000D02*
X9331000Y-8696000D01*
X9331000Y-8576000D02*
X9211000Y-8696000D01*
X9313427Y-8678427D02*
X9313427Y-8593573D01*
X9228573Y-8593573D01*
X9228573Y-8678427D01*
X9313427Y-8678427D01*
X9973000Y-8576000D02*
X10093000Y-8696000D01*
X10093000Y-8576000D02*
X9973000Y-8696000D01*
X10075427Y-8678427D02*
X10075427Y-8593573D01*
X9990573Y-8593573D01*
X9990573Y-8678427D01*
X10075427Y-8678427D01*
X10227000Y-8576000D02*
X10347000Y-8696000D01*
X10347000Y-8576000D02*
X10227000Y-8696000D01*
X10329427Y-8678427D02*
X10329427Y-8593573D01*
X10244573Y-8593573D01*
X10244573Y-8678427D01*
X10329427Y-8678427D01*
X10989000Y-8576000D02*
X11109000Y-8696000D01*
X11109000Y-8576000D02*
X10989000Y-8696000D01*
X11091427Y-8678427D02*
X11091427Y-8593573D01*
X11006573Y-8593573D01*
X11006573Y-8678427D01*
X11091427Y-8678427D01*
X11243000Y-8576000D02*
X11363000Y-8696000D01*
X11363000Y-8576000D02*
X11243000Y-8696000D01*
X11345427Y-8678427D02*
X11345427Y-8593573D01*
X11260573Y-8593573D01*
X11260573Y-8678427D01*
X11345427Y-8678427D01*
X12005000Y-8576000D02*
X12125000Y-8696000D01*
X12125000Y-8576000D02*
X12005000Y-8696000D01*
X12107427Y-8678427D02*
X12107427Y-8593573D01*
X12022573Y-8593573D01*
X12022573Y-8678427D01*
X12107427Y-8678427D01*
X12259000Y-8576000D02*
X12379000Y-8696000D01*
X12379000Y-8576000D02*
X12259000Y-8696000D01*
X12361427Y-8678427D02*
X12361427Y-8593573D01*
X12276573Y-8593573D01*
X12276573Y-8678427D01*
X12361427Y-8678427D01*
X12640000Y-1640000D02*
X12760000Y-1760000D01*
X12760000Y-1640000D02*
X12640000Y-1760000D01*
X12742427Y-1742427D02*
X12742427Y-1657573D01*
X12657573Y-1657573D01*
X12657573Y-1742427D01*
X12742427Y-1742427D01*
X12894000Y-1640000D02*
X13014000Y-1760000D01*
X13014000Y-1640000D02*
X12894000Y-1760000D01*
X12996427Y-1742427D02*
X12996427Y-1657573D01*
X12911573Y-1657573D01*
X12911573Y-1742427D01*
X12996427Y-1742427D01*
X13021000Y-8576000D02*
X13141000Y-8696000D01*
X13141000Y-8576000D02*
X13021000Y-8696000D01*
X13123427Y-8678427D02*
X13123427Y-8593573D01*
X13038573Y-8593573D01*
X13038573Y-8678427D01*
X13123427Y-8678427D01*
X13275000Y-8576000D02*
X13395000Y-8696000D01*
X13395000Y-8576000D02*
X13275000Y-8696000D01*
X13377427Y-8678427D02*
X13377427Y-8593573D01*
X13292573Y-8593573D01*
X13292573Y-8678427D01*
X13377427Y-8678427D01*
X14037000Y-8576000D02*
X14157000Y-8696000D01*
X14157000Y-8576000D02*
X14037000Y-8696000D01*
X14139427Y-8678427D02*
X14139427Y-8593573D01*
X14054573Y-8593573D01*
X14054573Y-8678427D01*
X14139427Y-8678427D01*
X14291000Y-8576000D02*
X14411000Y-8696000D01*
X14411000Y-8576000D02*
X14291000Y-8696000D01*
X14393427Y-8678427D02*
X14393427Y-8593573D01*
X14308573Y-8593573D01*
X14308573Y-8678427D01*
X14393427Y-8678427D01*
X15053000Y-4512000D02*
X15173000Y-4632000D01*
X15173000Y-4512000D02*
X15053000Y-4632000D01*
X15155427Y-4614427D02*
X15155427Y-4529573D01*
X15070573Y-4529573D01*
X15070573Y-4614427D01*
X15155427Y-4614427D01*
X15053000Y-4766000D02*
X15173000Y-4886000D01*
X15173000Y-4766000D02*
X15053000Y-4886000D01*
X15155427Y-4868427D02*
X15155427Y-4783573D01*
X15070573Y-4783573D01*
X15070573Y-4868427D01*
X15155427Y-4868427D01*
X16323000Y-2607000D02*
X16443000Y-2727000D01*
X16443000Y-2607000D02*
X16323000Y-2727000D01*
X16425427Y-2709427D02*
X16425427Y-2624573D01*
X16340573Y-2624573D01*
X16340573Y-2709427D01*
X16425427Y-2709427D01*
X16323000Y-3623000D02*
X16443000Y-3743000D01*
X16443000Y-3623000D02*
X16323000Y-3743000D01*
X16425427Y-3725427D02*
X16425427Y-3640573D01*
X16340573Y-3640573D01*
X16340573Y-3725427D01*
X16425427Y-3725427D01*
X16323000Y-4639000D02*
X16443000Y-4759000D01*
X16443000Y-4639000D02*
X16323000Y-4759000D01*
X16425427Y-4741427D02*
X16425427Y-4656573D01*
X16340573Y-4656573D01*
X16340573Y-4741427D01*
X16425427Y-4741427D01*
X16323000Y-5655000D02*
X16443000Y-5775000D01*
X16443000Y-5655000D02*
X16323000Y-5775000D01*
X16425427Y-5757427D02*
X16425427Y-5672573D01*
X16340573Y-5672573D01*
X16340573Y-5757427D01*
X16425427Y-5757427D01*
X16323000Y-6671000D02*
X16443000Y-6791000D01*
X16443000Y-6671000D02*
X16323000Y-6791000D01*
X16425427Y-6773427D02*
X16425427Y-6688573D01*
X16340573Y-6688573D01*
X16340573Y-6773427D01*
X16425427Y-6773427D01*
X16323000Y-7687000D02*
X16443000Y-7807000D01*
X16443000Y-7687000D02*
X16323000Y-7807000D01*
X16425427Y-7789427D02*
X16425427Y-7704573D01*
X16340573Y-7704573D01*
X16340573Y-7789427D01*
X16425427Y-7789427D01*
X16577000Y-2607000D02*
X16697000Y-2727000D01*
X16697000Y-2607000D02*
X16577000Y-2727000D01*
X16679427Y-2709427D02*
X16679427Y-2624573D01*
X16594573Y-2624573D01*
X16594573Y-2709427D01*
X16679427Y-2709427D01*
X16577000Y-3623000D02*
X16697000Y-3743000D01*
X16697000Y-3623000D02*
X16577000Y-3743000D01*
X16679427Y-3725427D02*
X16679427Y-3640573D01*
X16594573Y-3640573D01*
X16594573Y-3725427D01*
X16679427Y-3725427D01*
X16577000Y-4639000D02*
X16697000Y-4759000D01*
X16697000Y-4639000D02*
X16577000Y-4759000D01*
X16679427Y-4741427D02*
X16679427Y-4656573D01*
X16594573Y-4656573D01*
X16594573Y-4741427D01*
X16679427Y-4741427D01*
X16577000Y-5655000D02*
X16697000Y-5775000D01*
X16697000Y-5655000D02*
X16577000Y-5775000D01*
X16679427Y-5757427D02*
X16679427Y-5672573D01*
X16594573Y-5672573D01*
X16594573Y-5757427D01*
X16679427Y-5757427D01*
X16577000Y-6671000D02*
X16697000Y-6791000D01*
X16697000Y-6671000D02*
X16577000Y-6791000D01*
X16679427Y-6773427D02*
X16679427Y-6688573D01*
X16594573Y-6688573D01*
X16594573Y-6773427D01*
X16679427Y-6773427D01*
X16577000Y-7687000D02*
X16697000Y-7807000D01*
X16697000Y-7687000D02*
X16577000Y-7807000D01*
X16679427Y-7789427D02*
X16679427Y-7704573D01*
X16594573Y-7704573D01*
X16594573Y-7789427D01*
X16679427Y-7789427D01*
X13433000Y-1840000D02*
X13563000Y-1970000D01*
X13563000Y-1840000D02*
X13433000Y-1970000D01*
X13498000Y-1970000D02*
X13563000Y-1905000D01*
X13498000Y-1840000D01*
X13433000Y-1905000D01*
X13498000Y-1970000D01*
X15683000Y-1840000D02*
X15813000Y-1970000D01*
X15813000Y-1840000D02*
X15683000Y-1970000D01*
X15748000Y-1970000D02*
X15813000Y-1905000D01*
X15748000Y-1840000D01*
X15683000Y-1905000D01*
X15748000Y-1970000D01*
X6604000Y-9322000D02*
X6604000Y-9474000D01*
X6528000Y-9398000D02*
X6680000Y-9398000D01*
X6680000Y-9398000D02*
G75*
G03*
X6680000Y-9398000I-76000J0D01*
G01*
X7112000Y-9322000D02*
X7112000Y-9474000D01*
X7036000Y-9398000D02*
X7188000Y-9398000D01*
X7188000Y-9398000D02*
G75*
G03*
X7188000Y-9398000I-76000J0D01*
G01*
X7620000Y-9322000D02*
X7620000Y-9474000D01*
X7544000Y-9398000D02*
X7696000Y-9398000D01*
X7696000Y-9398000D02*
G75*
G03*
X7696000Y-9398000I-76000J0D01*
G01*
X8128000Y-9322000D02*
X8128000Y-9474000D01*
X8052000Y-9398000D02*
X8204000Y-9398000D01*
X8204000Y-9398000D02*
G75*
G03*
X8204000Y-9398000I-76000J0D01*
G01*
X9017000Y-9322000D02*
X9017000Y-9474000D01*
X8941000Y-9398000D02*
X9093000Y-9398000D01*
X9093000Y-9398000D02*
G75*
G03*
X9093000Y-9398000I-76000J0D01*
G01*
X9525000Y-9322000D02*
X9525000Y-9474000D01*
X9449000Y-9398000D02*
X9601000Y-9398000D01*
X9601000Y-9398000D02*
G75*
G03*
X9601000Y-9398000I-76000J0D01*
G01*
X10033000Y-9322000D02*
X10033000Y-9474000D01*
X9957000Y-9398000D02*
X10109000Y-9398000D01*
X10109000Y-9398000D02*
G75*
G03*
X10109000Y-9398000I-76000J0D01*
G01*
X10541000Y-9322000D02*
X10541000Y-9474000D01*
X10465000Y-9398000D02*
X10617000Y-9398000D01*
X10617000Y-9398000D02*
G75*
G03*
X10617000Y-9398000I-76000J0D01*
G01*
X11049000Y-9322000D02*
X11049000Y-9474000D01*
X10973000Y-9398000D02*
X11125000Y-9398000D01*
X11125000Y-9398000D02*
G75*
G03*
X11125000Y-9398000I-76000J0D01*
G01*
X11557000Y-9322000D02*
X11557000Y-9474000D01*
X11481000Y-9398000D02*
X11633000Y-9398000D01*
X11633000Y-9398000D02*
G75*
G03*
X11633000Y-9398000I-76000J0D01*
G01*
X12065000Y-9322000D02*
X12065000Y-9474000D01*
X11989000Y-9398000D02*
X12141000Y-9398000D01*
X12141000Y-9398000D02*
G75*
G03*
X12141000Y-9398000I-76000J0D01*
G01*
X12573000Y-9322000D02*
X12573000Y-9474000D01*
X12497000Y-9398000D02*
X12649000Y-9398000D01*
X12649000Y-9398000D02*
G75*
G03*
X12649000Y-9398000I-76000J0D01*
G01*
X13081000Y-9322000D02*
X13081000Y-9474000D01*
X13005000Y-9398000D02*
X13157000Y-9398000D01*
X13157000Y-9398000D02*
G75*
G03*
X13157000Y-9398000I-76000J0D01*
G01*
X13589000Y-9322000D02*
X13589000Y-9474000D01*
X13513000Y-9398000D02*
X13665000Y-9398000D01*
X13665000Y-9398000D02*
G75*
G03*
X13665000Y-9398000I-76000J0D01*
G01*
X14097000Y-9322000D02*
X14097000Y-9474000D01*
X14021000Y-9398000D02*
X14173000Y-9398000D01*
X14173000Y-9398000D02*
G75*
G03*
X14173000Y-9398000I-76000J0D01*
G01*
X14605000Y-9322000D02*
X14605000Y-9474000D01*
X14529000Y-9398000D02*
X14681000Y-9398000D01*
X14681000Y-9398000D02*
G75*
G03*
X14681000Y-9398000I-76000J0D01*
G01*
X16256000Y-1829000D02*
X16256000Y-1981000D01*
X16180000Y-1905000D02*
X16332000Y-1905000D01*
X16332000Y-1905000D02*
G75*
G03*
X16332000Y-1905000I-76000J0D01*
G01*
X16764000Y-1829000D02*
X16764000Y-1981000D01*
X16688000Y-1905000D02*
X16840000Y-1905000D01*
X16840000Y-1905000D02*
G75*
G03*
X16840000Y-1905000I-76000J0D01*
G01*
X17399000Y-2718000D02*
X17399000Y-2870000D01*
X17323000Y-2794000D02*
X17475000Y-2794000D01*
X17475000Y-2794000D02*
G75*
G03*
X17475000Y-2794000I-76000J0D01*
G01*
X17399000Y-3226000D02*
X17399000Y-3378000D01*
X17323000Y-3302000D02*
X17475000Y-3302000D01*
X17475000Y-3302000D02*
G75*
G03*
X17475000Y-3302000I-76000J0D01*
G01*
X17399000Y-3734000D02*
X17399000Y-3886000D01*
X17323000Y-3810000D02*
X17475000Y-3810000D01*
X17475000Y-3810000D02*
G75*
G03*
X17475000Y-3810000I-76000J0D01*
G01*
X17399000Y-4242000D02*
X17399000Y-4394000D01*
X17323000Y-4318000D02*
X17475000Y-4318000D01*
X17475000Y-4318000D02*
G75*
G03*
X17475000Y-4318000I-76000J0D01*
G01*
X17399000Y-4750000D02*
X17399000Y-4902000D01*
X17323000Y-4826000D02*
X17475000Y-4826000D01*
X17475000Y-4826000D02*
G75*
G03*
X17475000Y-4826000I-76000J0D01*
G01*
X17399000Y-5258000D02*
X17399000Y-5410000D01*
X17323000Y-5334000D02*
X17475000Y-5334000D01*
X17475000Y-5334000D02*
G75*
G03*
X17475000Y-5334000I-76000J0D01*
G01*
X17399000Y-5766000D02*
X17399000Y-5918000D01*
X17323000Y-5842000D02*
X17475000Y-5842000D01*
X17475000Y-5842000D02*
G75*
G03*
X17475000Y-5842000I-76000J0D01*
G01*
X17399000Y-6274000D02*
X17399000Y-6426000D01*
X17323000Y-6350000D02*
X17475000Y-6350000D01*
X17475000Y-6350000D02*
G75*
G03*
X17475000Y-6350000I-76000J0D01*
G01*
X17399000Y-6782000D02*
X17399000Y-6934000D01*
X17323000Y-6858000D02*
X17475000Y-6858000D01*
X17475000Y-6858000D02*
G75*
G03*
X17475000Y-6858000I-76000J0D01*
G01*
X17399000Y-7290000D02*
X17399000Y-7442000D01*
X17323000Y-7366000D02*
X17475000Y-7366000D01*
X17475000Y-7366000D02*
G75*
G03*
X17475000Y-7366000I-76000J0D01*
G01*
X17399000Y-7798000D02*
X17399000Y-7950000D01*
X17323000Y-7874000D02*
X17475000Y-7874000D01*
X17475000Y-7874000D02*
G75*
G03*
X17475000Y-7874000I-76000J0D01*
G01*
X17399000Y-8306000D02*
X17399000Y-8458000D01*
X17323000Y-8382000D02*
X17475000Y-8382000D01*
X17475000Y-8382000D02*
G75*
G03*
X17475000Y-8382000I-76000J0D01*
G01*
D12*
X3781428Y-10470714D02*
X3781428Y-10170714D01*
X3852857Y-10170714D01*
X3895714Y-10185000D01*
X3924286Y-10213572D01*
X3938571Y-10242143D01*
X3952857Y-10299286D01*
X3952857Y-10342143D01*
X3938571Y-10399286D01*
X3924286Y-10427857D01*
X3895714Y-10456429D01*
X3852857Y-10470714D01*
X3781428Y-10470714D01*
X4081428Y-10470714D02*
X4081428Y-10270714D01*
X4081428Y-10327857D02*
X4095714Y-10299286D01*
X4110000Y-10285000D01*
X4138571Y-10270714D01*
X4167143Y-10270714D01*
X4267143Y-10470714D02*
X4267143Y-10270714D01*
X4267143Y-10170714D02*
X4252857Y-10185000D01*
X4267143Y-10199286D01*
X4281428Y-10185000D01*
X4267143Y-10170714D01*
X4267143Y-10199286D01*
X4452857Y-10470714D02*
X4424286Y-10456429D01*
X4410000Y-10427857D01*
X4410000Y-10170714D01*
X4610000Y-10470714D02*
X4581428Y-10456429D01*
X4567143Y-10427857D01*
X4567143Y-10170714D01*
X4952857Y-10470714D02*
X4952857Y-10170714D01*
X5052857Y-10385000D01*
X5152857Y-10170714D01*
X5152857Y-10470714D01*
X5424286Y-10470714D02*
X5424286Y-10313572D01*
X5410000Y-10285000D01*
X5381428Y-10270714D01*
X5324286Y-10270714D01*
X5295714Y-10285000D01*
X5424286Y-10456429D02*
X5395714Y-10470714D01*
X5324286Y-10470714D01*
X5295714Y-10456429D01*
X5281428Y-10427857D01*
X5281428Y-10399286D01*
X5295714Y-10370714D01*
X5324286Y-10356429D01*
X5395714Y-10356429D01*
X5424286Y-10342143D01*
X5567143Y-10270714D02*
X5567143Y-10570714D01*
X5567143Y-10285000D02*
X5595714Y-10270714D01*
X5652857Y-10270714D01*
X5681428Y-10285000D01*
X5695714Y-10299286D01*
X5710000Y-10327857D01*
X5710000Y-10413572D01*
X5695714Y-10442143D01*
X5681428Y-10456429D01*
X5652857Y-10470714D01*
X5595714Y-10470714D01*
X5567143Y-10456429D01*
X5838571Y-10442143D02*
X5852857Y-10456429D01*
X5838571Y-10470714D01*
X5824286Y-10456429D01*
X5838571Y-10442143D01*
X5838571Y-10470714D01*
X5838571Y-10285000D02*
X5852857Y-10299286D01*
X5838571Y-10313572D01*
X5824286Y-10299286D01*
X5838571Y-10285000D01*
X5838571Y-10313572D01*
X3455000Y-10945000D02*
X3495000Y-10985000D01*
X3495000Y-10945000D02*
X3455000Y-10985000D01*
X3838571Y-10800714D02*
X3867143Y-10800714D01*
X3895714Y-10815000D01*
X3910000Y-10829286D01*
X3924286Y-10857857D01*
X3938571Y-10915000D01*
X3938571Y-10986429D01*
X3924286Y-11043572D01*
X3910000Y-11072143D01*
X3895714Y-11086429D01*
X3867143Y-11100714D01*
X3838571Y-11100714D01*
X3810000Y-11086429D01*
X3795714Y-11072143D01*
X3781428Y-11043572D01*
X3767143Y-10986429D01*
X3767143Y-10915000D01*
X3781428Y-10857857D01*
X3795714Y-10829286D01*
X3810000Y-10815000D01*
X3838571Y-10800714D01*
X4067143Y-11072143D02*
X4081428Y-11086429D01*
X4067143Y-11100714D01*
X4052857Y-11086429D01*
X4067143Y-11072143D01*
X4067143Y-11100714D01*
X4338571Y-10900714D02*
X4338571Y-11100714D01*
X4267143Y-10786429D02*
X4195714Y-11000714D01*
X4381428Y-11000714D01*
X4552857Y-10800714D02*
X4581428Y-10800714D01*
X4610000Y-10815000D01*
X4624286Y-10829286D01*
X4638571Y-10857857D01*
X4652857Y-10915000D01*
X4652857Y-10986429D01*
X4638571Y-11043572D01*
X4624286Y-11072143D01*
X4610000Y-11086429D01*
X4581428Y-11100714D01*
X4552857Y-11100714D01*
X4524286Y-11086429D01*
X4510000Y-11072143D01*
X4495714Y-11043572D01*
X4481428Y-10986429D01*
X4481428Y-10915000D01*
X4495714Y-10857857D01*
X4510000Y-10829286D01*
X4524286Y-10815000D01*
X4552857Y-10800714D01*
X4838571Y-10800714D02*
X4867143Y-10800714D01*
X4895714Y-10815000D01*
X4910000Y-10829286D01*
X4924286Y-10857857D01*
X4938571Y-10915000D01*
X4938571Y-10986429D01*
X4924286Y-11043572D01*
X4910000Y-11072143D01*
X4895714Y-11086429D01*
X4867143Y-11100714D01*
X4838571Y-11100714D01*
X4810000Y-11086429D01*
X4795714Y-11072143D01*
X4781428Y-11043572D01*
X4767143Y-10986429D01*
X4767143Y-10915000D01*
X4781428Y-10857857D01*
X4795714Y-10829286D01*
X4810000Y-10815000D01*
X4838571Y-10800714D01*
X5067143Y-11100714D02*
X5067143Y-10900714D01*
X5067143Y-10929286D02*
X5081428Y-10915000D01*
X5110000Y-10900714D01*
X5152857Y-10900714D01*
X5181428Y-10915000D01*
X5195714Y-10943572D01*
X5195714Y-11100714D01*
X5195714Y-10943572D02*
X5210000Y-10915000D01*
X5238571Y-10900714D01*
X5281428Y-10900714D01*
X5310000Y-10915000D01*
X5324286Y-10943572D01*
X5324286Y-11100714D01*
X5467143Y-11100714D02*
X5467143Y-10900714D01*
X5467143Y-10929286D02*
X5481428Y-10915000D01*
X5510000Y-10900714D01*
X5552857Y-10900714D01*
X5581428Y-10915000D01*
X5595714Y-10943572D01*
X5595714Y-11100714D01*
X5595714Y-10943572D02*
X5610000Y-10915000D01*
X5638571Y-10900714D01*
X5681428Y-10900714D01*
X5710000Y-10915000D01*
X5724286Y-10943572D01*
X5724286Y-11100714D01*
X6310000Y-10786429D02*
X6052857Y-11172143D01*
X6695714Y-10800714D02*
X6724286Y-10800714D01*
X6752857Y-10815000D01*
X6767143Y-10829286D01*
X6781428Y-10857857D01*
X6795714Y-10915000D01*
X6795714Y-10986429D01*
X6781428Y-11043572D01*
X6767143Y-11072143D01*
X6752857Y-11086429D01*
X6724286Y-11100714D01*
X6695714Y-11100714D01*
X6667143Y-11086429D01*
X6652857Y-11072143D01*
X6638571Y-11043572D01*
X6624286Y-10986429D01*
X6624286Y-10915000D01*
X6638571Y-10857857D01*
X6652857Y-10829286D01*
X6667143Y-10815000D01*
X6695714Y-10800714D01*
X6924286Y-11072143D02*
X6938571Y-11086429D01*
X6924286Y-11100714D01*
X6910000Y-11086429D01*
X6924286Y-11072143D01*
X6924286Y-11100714D01*
X7124286Y-10800714D02*
X7152857Y-10800714D01*
X7181428Y-10815000D01*
X7195714Y-10829286D01*
X7210000Y-10857857D01*
X7224286Y-10915000D01*
X7224286Y-10986429D01*
X7210000Y-11043572D01*
X7195714Y-11072143D01*
X7181428Y-11086429D01*
X7152857Y-11100714D01*
X7124286Y-11100714D01*
X7095714Y-11086429D01*
X7081428Y-11072143D01*
X7067143Y-11043572D01*
X7052857Y-10986429D01*
X7052857Y-10915000D01*
X7067143Y-10857857D01*
X7081428Y-10829286D01*
X7095714Y-10815000D01*
X7124286Y-10800714D01*
X7510000Y-11100714D02*
X7338571Y-11100714D01*
X7424286Y-11100714D02*
X7424286Y-10800714D01*
X7395714Y-10843572D01*
X7367143Y-10872143D01*
X7338571Y-10886429D01*
X7781428Y-10800714D02*
X7638571Y-10800714D01*
X7624286Y-10943572D01*
X7638571Y-10929286D01*
X7667143Y-10915000D01*
X7738571Y-10915000D01*
X7767143Y-10929286D01*
X7781428Y-10943572D01*
X7795714Y-10972143D01*
X7795714Y-11043572D01*
X7781428Y-11072143D01*
X7767143Y-11086429D01*
X7738571Y-11100714D01*
X7667143Y-11100714D01*
X7638571Y-11086429D01*
X7624286Y-11072143D01*
X7895714Y-10800714D02*
X8095714Y-10800714D01*
X7967143Y-11100714D01*
X8195714Y-10800714D02*
X8195714Y-10857857D01*
X8310000Y-10800714D02*
X8310000Y-10857857D01*
X8752857Y-11215000D02*
X8738571Y-11200714D01*
X8710000Y-11157857D01*
X8695714Y-11129286D01*
X8681428Y-11086429D01*
X8667143Y-11015000D01*
X8667143Y-10957857D01*
X8681428Y-10886429D01*
X8695714Y-10843572D01*
X8710000Y-10815000D01*
X8738571Y-10772143D01*
X8752857Y-10757857D01*
X9010000Y-10800714D02*
X8867143Y-10800714D01*
X8852857Y-10943572D01*
X8867143Y-10929286D01*
X8895714Y-10915000D01*
X8967143Y-10915000D01*
X8995714Y-10929286D01*
X9010000Y-10943572D01*
X9024286Y-10972143D01*
X9024286Y-11043572D01*
X9010000Y-11072143D01*
X8995714Y-11086429D01*
X8967143Y-11100714D01*
X8895714Y-11100714D01*
X8867143Y-11086429D01*
X8852857Y-11072143D01*
X9295714Y-10800714D02*
X9152857Y-10800714D01*
X9138571Y-10943572D01*
X9152857Y-10929286D01*
X9181428Y-10915000D01*
X9252857Y-10915000D01*
X9281428Y-10929286D01*
X9295714Y-10943572D01*
X9310000Y-10972143D01*
X9310000Y-11043572D01*
X9295714Y-11072143D01*
X9281428Y-11086429D01*
X9252857Y-11100714D01*
X9181428Y-11100714D01*
X9152857Y-11086429D01*
X9138571Y-11072143D01*
X9667143Y-11100714D02*
X9667143Y-10800714D01*
X9795714Y-11100714D02*
X9795714Y-10943572D01*
X9781428Y-10915000D01*
X9752857Y-10900714D01*
X9710000Y-10900714D01*
X9681428Y-10915000D01*
X9667143Y-10929286D01*
X9981428Y-11100714D02*
X9952857Y-11086429D01*
X9938571Y-11072143D01*
X9924286Y-11043572D01*
X9924286Y-10957857D01*
X9938571Y-10929286D01*
X9952857Y-10915000D01*
X9981428Y-10900714D01*
X10024286Y-10900714D01*
X10052857Y-10915000D01*
X10067143Y-10929286D01*
X10081428Y-10957857D01*
X10081428Y-11043572D01*
X10067143Y-11072143D01*
X10052857Y-11086429D01*
X10024286Y-11100714D01*
X9981428Y-11100714D01*
X10252857Y-11100714D02*
X10224286Y-11086429D01*
X10210000Y-11057857D01*
X10210000Y-10800714D01*
X10481428Y-11086429D02*
X10452857Y-11100714D01*
X10395714Y-11100714D01*
X10367143Y-11086429D01*
X10352857Y-11057857D01*
X10352857Y-10943572D01*
X10367143Y-10915000D01*
X10395714Y-10900714D01*
X10452857Y-10900714D01*
X10481428Y-10915000D01*
X10495714Y-10943572D01*
X10495714Y-10972143D01*
X10352857Y-11000714D01*
X10610000Y-11086429D02*
X10638571Y-11100714D01*
X10695714Y-11100714D01*
X10724286Y-11086429D01*
X10738571Y-11057857D01*
X10738571Y-11043572D01*
X10724286Y-11015000D01*
X10695714Y-11000714D01*
X10652857Y-11000714D01*
X10624286Y-10986429D01*
X10610000Y-10957857D01*
X10610000Y-10943572D01*
X10624286Y-10915000D01*
X10652857Y-10900714D01*
X10695714Y-10900714D01*
X10724286Y-10915000D01*
X10838571Y-11215000D02*
X10852857Y-11200714D01*
X10881428Y-11157857D01*
X10895714Y-11129286D01*
X10910000Y-11086429D01*
X10924286Y-11015000D01*
X10924286Y-10957857D01*
X10910000Y-10886429D01*
X10895714Y-10843572D01*
X10881428Y-10815000D01*
X10852857Y-10772143D01*
X10838571Y-10757857D01*
X3495000Y-11361000D02*
G75*
G03*
X3495000Y-11361000I-30000J0D01*
G01*
X3838571Y-11196714D02*
X3867143Y-11196714D01*
X3895714Y-11211000D01*
X3910000Y-11225286D01*
X3924286Y-11253857D01*
X3938571Y-11311000D01*
X3938571Y-11382429D01*
X3924286Y-11439571D01*
X3910000Y-11468143D01*
X3895714Y-11482429D01*
X3867143Y-11496714D01*
X3838571Y-11496714D01*
X3810000Y-11482429D01*
X3795714Y-11468143D01*
X3781428Y-11439571D01*
X3767143Y-11382429D01*
X3767143Y-11311000D01*
X3781428Y-11253857D01*
X3795714Y-11225286D01*
X3810000Y-11211000D01*
X3838571Y-11196714D01*
X4067143Y-11468143D02*
X4081428Y-11482429D01*
X4067143Y-11496714D01*
X4052857Y-11482429D01*
X4067143Y-11468143D01*
X4067143Y-11496714D01*
X4338571Y-11196714D02*
X4281428Y-11196714D01*
X4252857Y-11211000D01*
X4238571Y-11225286D01*
X4210000Y-11268143D01*
X4195714Y-11325286D01*
X4195714Y-11439571D01*
X4210000Y-11468143D01*
X4224286Y-11482429D01*
X4252857Y-11496714D01*
X4310000Y-11496714D01*
X4338571Y-11482429D01*
X4352857Y-11468143D01*
X4367143Y-11439571D01*
X4367143Y-11368143D01*
X4352857Y-11339571D01*
X4338571Y-11325286D01*
X4310000Y-11311000D01*
X4252857Y-11311000D01*
X4224286Y-11325286D01*
X4210000Y-11339571D01*
X4195714Y-11368143D01*
X4552857Y-11196714D02*
X4581428Y-11196714D01*
X4610000Y-11211000D01*
X4624286Y-11225286D01*
X4638571Y-11253857D01*
X4652857Y-11311000D01*
X4652857Y-11382429D01*
X4638571Y-11439571D01*
X4624286Y-11468143D01*
X4610000Y-11482429D01*
X4581428Y-11496714D01*
X4552857Y-11496714D01*
X4524286Y-11482429D01*
X4510000Y-11468143D01*
X4495714Y-11439571D01*
X4481428Y-11382429D01*
X4481428Y-11311000D01*
X4495714Y-11253857D01*
X4510000Y-11225286D01*
X4524286Y-11211000D01*
X4552857Y-11196714D01*
X4838571Y-11196714D02*
X4867143Y-11196714D01*
X4895714Y-11211000D01*
X4910000Y-11225286D01*
X4924286Y-11253857D01*
X4938571Y-11311000D01*
X4938571Y-11382429D01*
X4924286Y-11439571D01*
X4910000Y-11468143D01*
X4895714Y-11482429D01*
X4867143Y-11496714D01*
X4838571Y-11496714D01*
X4810000Y-11482429D01*
X4795714Y-11468143D01*
X4781428Y-11439571D01*
X4767143Y-11382429D01*
X4767143Y-11311000D01*
X4781428Y-11253857D01*
X4795714Y-11225286D01*
X4810000Y-11211000D01*
X4838571Y-11196714D01*
X5067143Y-11496714D02*
X5067143Y-11296714D01*
X5067143Y-11325286D02*
X5081428Y-11311000D01*
X5110000Y-11296714D01*
X5152857Y-11296714D01*
X5181428Y-11311000D01*
X5195714Y-11339571D01*
X5195714Y-11496714D01*
X5195714Y-11339571D02*
X5210000Y-11311000D01*
X5238571Y-11296714D01*
X5281428Y-11296714D01*
X5310000Y-11311000D01*
X5324286Y-11339571D01*
X5324286Y-11496714D01*
X5467143Y-11496714D02*
X5467143Y-11296714D01*
X5467143Y-11325286D02*
X5481428Y-11311000D01*
X5510000Y-11296714D01*
X5552857Y-11296714D01*
X5581428Y-11311000D01*
X5595714Y-11339571D01*
X5595714Y-11496714D01*
X5595714Y-11339571D02*
X5610000Y-11311000D01*
X5638571Y-11296714D01*
X5681428Y-11296714D01*
X5710000Y-11311000D01*
X5724286Y-11339571D01*
X5724286Y-11496714D01*
X6310000Y-11182429D02*
X6052857Y-11568143D01*
X6695714Y-11196714D02*
X6724286Y-11196714D01*
X6752857Y-11211000D01*
X6767143Y-11225286D01*
X6781428Y-11253857D01*
X6795714Y-11311000D01*
X6795714Y-11382429D01*
X6781428Y-11439571D01*
X6767143Y-11468143D01*
X6752857Y-11482429D01*
X6724286Y-11496714D01*
X6695714Y-11496714D01*
X6667143Y-11482429D01*
X6652857Y-11468143D01*
X6638571Y-11439571D01*
X6624286Y-11382429D01*
X6624286Y-11311000D01*
X6638571Y-11253857D01*
X6652857Y-11225286D01*
X6667143Y-11211000D01*
X6695714Y-11196714D01*
X6924286Y-11468143D02*
X6938571Y-11482429D01*
X6924286Y-11496714D01*
X6910000Y-11482429D01*
X6924286Y-11468143D01*
X6924286Y-11496714D01*
X7124286Y-11196714D02*
X7152857Y-11196714D01*
X7181428Y-11211000D01*
X7195714Y-11225286D01*
X7210000Y-11253857D01*
X7224286Y-11311000D01*
X7224286Y-11382429D01*
X7210000Y-11439571D01*
X7195714Y-11468143D01*
X7181428Y-11482429D01*
X7152857Y-11496714D01*
X7124286Y-11496714D01*
X7095714Y-11482429D01*
X7081428Y-11468143D01*
X7067143Y-11439571D01*
X7052857Y-11382429D01*
X7052857Y-11311000D01*
X7067143Y-11253857D01*
X7081428Y-11225286D01*
X7095714Y-11211000D01*
X7124286Y-11196714D01*
X7338571Y-11225286D02*
X7352857Y-11211000D01*
X7381428Y-11196714D01*
X7452857Y-11196714D01*
X7481428Y-11211000D01*
X7495714Y-11225286D01*
X7510000Y-11253857D01*
X7510000Y-11282429D01*
X7495714Y-11325286D01*
X7324286Y-11496714D01*
X7510000Y-11496714D01*
X7610000Y-11196714D02*
X7795714Y-11196714D01*
X7695714Y-11311000D01*
X7738571Y-11311000D01*
X7767143Y-11325286D01*
X7781428Y-11339571D01*
X7795714Y-11368143D01*
X7795714Y-11439571D01*
X7781428Y-11468143D01*
X7767143Y-11482429D01*
X7738571Y-11496714D01*
X7652857Y-11496714D01*
X7624286Y-11482429D01*
X7610000Y-11468143D01*
X8052857Y-11196714D02*
X7995714Y-11196714D01*
X7967143Y-11211000D01*
X7952857Y-11225286D01*
X7924286Y-11268143D01*
X7910000Y-11325286D01*
X7910000Y-11439571D01*
X7924286Y-11468143D01*
X7938571Y-11482429D01*
X7967143Y-11496714D01*
X8024286Y-11496714D01*
X8052857Y-11482429D01*
X8067143Y-11468143D01*
X8081428Y-11439571D01*
X8081428Y-11368143D01*
X8067143Y-11339571D01*
X8052857Y-11325286D01*
X8024286Y-11311000D01*
X7967143Y-11311000D01*
X7938571Y-11325286D01*
X7924286Y-11339571D01*
X7910000Y-11368143D01*
X8195714Y-11196714D02*
X8195714Y-11253857D01*
X8310000Y-11196714D02*
X8310000Y-11253857D01*
X8752857Y-11611000D02*
X8738571Y-11596714D01*
X8710000Y-11553857D01*
X8695714Y-11525286D01*
X8681428Y-11482429D01*
X8667143Y-11411000D01*
X8667143Y-11353857D01*
X8681428Y-11282429D01*
X8695714Y-11239571D01*
X8710000Y-11211000D01*
X8738571Y-11168143D01*
X8752857Y-11153857D01*
X8852857Y-11225286D02*
X8867143Y-11211000D01*
X8895714Y-11196714D01*
X8967143Y-11196714D01*
X8995714Y-11211000D01*
X9010000Y-11225286D01*
X9024286Y-11253857D01*
X9024286Y-11282429D01*
X9010000Y-11325286D01*
X8838571Y-11496714D01*
X9024286Y-11496714D01*
X9381428Y-11496714D02*
X9381428Y-11196714D01*
X9510000Y-11496714D02*
X9510000Y-11339571D01*
X9495714Y-11311000D01*
X9467143Y-11296714D01*
X9424286Y-11296714D01*
X9395714Y-11311000D01*
X9381428Y-11325286D01*
X9695714Y-11496714D02*
X9667143Y-11482429D01*
X9652857Y-11468143D01*
X9638571Y-11439571D01*
X9638571Y-11353857D01*
X9652857Y-11325286D01*
X9667143Y-11311000D01*
X9695714Y-11296714D01*
X9738571Y-11296714D01*
X9767143Y-11311000D01*
X9781428Y-11325286D01*
X9795714Y-11353857D01*
X9795714Y-11439571D01*
X9781428Y-11468143D01*
X9767143Y-11482429D01*
X9738571Y-11496714D01*
X9695714Y-11496714D01*
X9967143Y-11496714D02*
X9938571Y-11482429D01*
X9924286Y-11453857D01*
X9924286Y-11196714D01*
X10195714Y-11482429D02*
X10167143Y-11496714D01*
X10110000Y-11496714D01*
X10081428Y-11482429D01*
X10067143Y-11453857D01*
X10067143Y-11339571D01*
X10081428Y-11311000D01*
X10110000Y-11296714D01*
X10167143Y-11296714D01*
X10195714Y-11311000D01*
X10210000Y-11339571D01*
X10210000Y-11368143D01*
X10067143Y-11396714D01*
X10324286Y-11482429D02*
X10352857Y-11496714D01*
X10410000Y-11496714D01*
X10438571Y-11482429D01*
X10452857Y-11453857D01*
X10452857Y-11439571D01*
X10438571Y-11411000D01*
X10410000Y-11396714D01*
X10367143Y-11396714D01*
X10338571Y-11382429D01*
X10324286Y-11353857D01*
X10324286Y-11339571D01*
X10338571Y-11311000D01*
X10367143Y-11296714D01*
X10410000Y-11296714D01*
X10438571Y-11311000D01*
X10552857Y-11611000D02*
X10567143Y-11596714D01*
X10595714Y-11553857D01*
X10610000Y-11525286D01*
X10624286Y-11482429D01*
X10638571Y-11411000D01*
X10638571Y-11353857D01*
X10624286Y-11282429D01*
X10610000Y-11239571D01*
X10595714Y-11211000D01*
X10567143Y-11168143D01*
X10552857Y-11153857D01*
X3455000Y-11717000D02*
X3455000Y-11797000D01*
X3415000Y-11757000D02*
X3495000Y-11757000D01*
X3838571Y-11592714D02*
X3867143Y-11592714D01*
X3895714Y-11607000D01*
X3910000Y-11621286D01*
X3924286Y-11649857D01*
X3938571Y-11707000D01*
X3938571Y-11778429D01*
X3924286Y-11835571D01*
X3910000Y-11864143D01*
X3895714Y-11878429D01*
X3867143Y-11892714D01*
X3838571Y-11892714D01*
X3810000Y-11878429D01*
X3795714Y-11864143D01*
X3781428Y-11835571D01*
X3767143Y-11778429D01*
X3767143Y-11707000D01*
X3781428Y-11649857D01*
X3795714Y-11621286D01*
X3810000Y-11607000D01*
X3838571Y-11592714D01*
X4067143Y-11864143D02*
X4081428Y-11878429D01*
X4067143Y-11892714D01*
X4052857Y-11878429D01*
X4067143Y-11864143D01*
X4067143Y-11892714D01*
X4252857Y-11721286D02*
X4224286Y-11707000D01*
X4210000Y-11692714D01*
X4195714Y-11664143D01*
X4195714Y-11649857D01*
X4210000Y-11621286D01*
X4224286Y-11607000D01*
X4252857Y-11592714D01*
X4310000Y-11592714D01*
X4338571Y-11607000D01*
X4352857Y-11621286D01*
X4367143Y-11649857D01*
X4367143Y-11664143D01*
X4352857Y-11692714D01*
X4338571Y-11707000D01*
X4310000Y-11721286D01*
X4252857Y-11721286D01*
X4224286Y-11735571D01*
X4210000Y-11749857D01*
X4195714Y-11778429D01*
X4195714Y-11835571D01*
X4210000Y-11864143D01*
X4224286Y-11878429D01*
X4252857Y-11892714D01*
X4310000Y-11892714D01*
X4338571Y-11878429D01*
X4352857Y-11864143D01*
X4367143Y-11835571D01*
X4367143Y-11778429D01*
X4352857Y-11749857D01*
X4338571Y-11735571D01*
X4310000Y-11721286D01*
X4552857Y-11592714D02*
X4581428Y-11592714D01*
X4610000Y-11607000D01*
X4624286Y-11621286D01*
X4638571Y-11649857D01*
X4652857Y-11707000D01*
X4652857Y-11778429D01*
X4638571Y-11835571D01*
X4624286Y-11864143D01*
X4610000Y-11878429D01*
X4581428Y-11892714D01*
X4552857Y-11892714D01*
X4524286Y-11878429D01*
X4510000Y-11864143D01*
X4495714Y-11835571D01*
X4481428Y-11778429D01*
X4481428Y-11707000D01*
X4495714Y-11649857D01*
X4510000Y-11621286D01*
X4524286Y-11607000D01*
X4552857Y-11592714D01*
X4838571Y-11592714D02*
X4867143Y-11592714D01*
X4895714Y-11607000D01*
X4910000Y-11621286D01*
X4924286Y-11649857D01*
X4938571Y-11707000D01*
X4938571Y-11778429D01*
X4924286Y-11835571D01*
X4910000Y-11864143D01*
X4895714Y-11878429D01*
X4867143Y-11892714D01*
X4838571Y-11892714D01*
X4810000Y-11878429D01*
X4795714Y-11864143D01*
X4781428Y-11835571D01*
X4767143Y-11778429D01*
X4767143Y-11707000D01*
X4781428Y-11649857D01*
X4795714Y-11621286D01*
X4810000Y-11607000D01*
X4838571Y-11592714D01*
X5067143Y-11892714D02*
X5067143Y-11692714D01*
X5067143Y-11721286D02*
X5081428Y-11707000D01*
X5110000Y-11692714D01*
X5152857Y-11692714D01*
X5181428Y-11707000D01*
X5195714Y-11735571D01*
X5195714Y-11892714D01*
X5195714Y-11735571D02*
X5210000Y-11707000D01*
X5238571Y-11692714D01*
X5281428Y-11692714D01*
X5310000Y-11707000D01*
X5324286Y-11735571D01*
X5324286Y-11892714D01*
X5467143Y-11892714D02*
X5467143Y-11692714D01*
X5467143Y-11721286D02*
X5481428Y-11707000D01*
X5510000Y-11692714D01*
X5552857Y-11692714D01*
X5581428Y-11707000D01*
X5595714Y-11735571D01*
X5595714Y-11892714D01*
X5595714Y-11735571D02*
X5610000Y-11707000D01*
X5638571Y-11692714D01*
X5681428Y-11692714D01*
X5710000Y-11707000D01*
X5724286Y-11735571D01*
X5724286Y-11892714D01*
X6310000Y-11578429D02*
X6052857Y-11964143D01*
X6695714Y-11592714D02*
X6724286Y-11592714D01*
X6752857Y-11607000D01*
X6767143Y-11621286D01*
X6781428Y-11649857D01*
X6795714Y-11707000D01*
X6795714Y-11778429D01*
X6781428Y-11835571D01*
X6767143Y-11864143D01*
X6752857Y-11878429D01*
X6724286Y-11892714D01*
X6695714Y-11892714D01*
X6667143Y-11878429D01*
X6652857Y-11864143D01*
X6638571Y-11835571D01*
X6624286Y-11778429D01*
X6624286Y-11707000D01*
X6638571Y-11649857D01*
X6652857Y-11621286D01*
X6667143Y-11607000D01*
X6695714Y-11592714D01*
X6924286Y-11864143D02*
X6938571Y-11878429D01*
X6924286Y-11892714D01*
X6910000Y-11878429D01*
X6924286Y-11864143D01*
X6924286Y-11892714D01*
X7124286Y-11592714D02*
X7152857Y-11592714D01*
X7181428Y-11607000D01*
X7195714Y-11621286D01*
X7210000Y-11649857D01*
X7224286Y-11707000D01*
X7224286Y-11778429D01*
X7210000Y-11835571D01*
X7195714Y-11864143D01*
X7181428Y-11878429D01*
X7152857Y-11892714D01*
X7124286Y-11892714D01*
X7095714Y-11878429D01*
X7081428Y-11864143D01*
X7067143Y-11835571D01*
X7052857Y-11778429D01*
X7052857Y-11707000D01*
X7067143Y-11649857D01*
X7081428Y-11621286D01*
X7095714Y-11607000D01*
X7124286Y-11592714D01*
X7324286Y-11592714D02*
X7510000Y-11592714D01*
X7410000Y-11707000D01*
X7452857Y-11707000D01*
X7481428Y-11721286D01*
X7495714Y-11735571D01*
X7510000Y-11764143D01*
X7510000Y-11835571D01*
X7495714Y-11864143D01*
X7481428Y-11878429D01*
X7452857Y-11892714D01*
X7367143Y-11892714D01*
X7338571Y-11878429D01*
X7324286Y-11864143D01*
X7795714Y-11892714D02*
X7624286Y-11892714D01*
X7710000Y-11892714D02*
X7710000Y-11592714D01*
X7681428Y-11635571D01*
X7652857Y-11664143D01*
X7624286Y-11678429D01*
X8067143Y-11592714D02*
X7924286Y-11592714D01*
X7910000Y-11735571D01*
X7924286Y-11721286D01*
X7952857Y-11707000D01*
X8024286Y-11707000D01*
X8052857Y-11721286D01*
X8067143Y-11735571D01*
X8081428Y-11764143D01*
X8081428Y-11835571D01*
X8067143Y-11864143D01*
X8052857Y-11878429D01*
X8024286Y-11892714D01*
X7952857Y-11892714D01*
X7924286Y-11878429D01*
X7910000Y-11864143D01*
X8195714Y-11592714D02*
X8195714Y-11649857D01*
X8310000Y-11592714D02*
X8310000Y-11649857D01*
X8752857Y-12007000D02*
X8738571Y-11992714D01*
X8710000Y-11949857D01*
X8695714Y-11921286D01*
X8681428Y-11878429D01*
X8667143Y-11807000D01*
X8667143Y-11749857D01*
X8681428Y-11678429D01*
X8695714Y-11635571D01*
X8710000Y-11607000D01*
X8738571Y-11564143D01*
X8752857Y-11549857D01*
X9024286Y-11892714D02*
X8852857Y-11892714D01*
X8938571Y-11892714D02*
X8938571Y-11592714D01*
X8910000Y-11635571D01*
X8881428Y-11664143D01*
X8852857Y-11678429D01*
X9210000Y-11592714D02*
X9238571Y-11592714D01*
X9267143Y-11607000D01*
X9281428Y-11621286D01*
X9295714Y-11649857D01*
X9310000Y-11707000D01*
X9310000Y-11778429D01*
X9295714Y-11835571D01*
X9281428Y-11864143D01*
X9267143Y-11878429D01*
X9238571Y-11892714D01*
X9210000Y-11892714D01*
X9181428Y-11878429D01*
X9167143Y-11864143D01*
X9152857Y-11835571D01*
X9138571Y-11778429D01*
X9138571Y-11707000D01*
X9152857Y-11649857D01*
X9167143Y-11621286D01*
X9181428Y-11607000D01*
X9210000Y-11592714D01*
X9567143Y-11692714D02*
X9567143Y-11892714D01*
X9495714Y-11578429D02*
X9424286Y-11792714D01*
X9610000Y-11792714D01*
X9952857Y-11892714D02*
X9952857Y-11592714D01*
X10081428Y-11892714D02*
X10081428Y-11735571D01*
X10067143Y-11707000D01*
X10038571Y-11692714D01*
X9995714Y-11692714D01*
X9967143Y-11707000D01*
X9952857Y-11721286D01*
X10267143Y-11892714D02*
X10238571Y-11878429D01*
X10224286Y-11864143D01*
X10210000Y-11835571D01*
X10210000Y-11749857D01*
X10224286Y-11721286D01*
X10238571Y-11707000D01*
X10267143Y-11692714D01*
X10310000Y-11692714D01*
X10338571Y-11707000D01*
X10352857Y-11721286D01*
X10367143Y-11749857D01*
X10367143Y-11835571D01*
X10352857Y-11864143D01*
X10338571Y-11878429D01*
X10310000Y-11892714D01*
X10267143Y-11892714D01*
X10538571Y-11892714D02*
X10510000Y-11878429D01*
X10495714Y-11849857D01*
X10495714Y-11592714D01*
X10767143Y-11878429D02*
X10738571Y-11892714D01*
X10681428Y-11892714D01*
X10652857Y-11878429D01*
X10638571Y-11849857D01*
X10638571Y-11735571D01*
X10652857Y-11707000D01*
X10681428Y-11692714D01*
X10738571Y-11692714D01*
X10767143Y-11707000D01*
X10781428Y-11735571D01*
X10781428Y-11764143D01*
X10638571Y-11792714D01*
X10895714Y-11878429D02*
X10924286Y-11892714D01*
X10981428Y-11892714D01*
X11010000Y-11878429D01*
X11024286Y-11849857D01*
X11024286Y-11835571D01*
X11010000Y-11807000D01*
X10981428Y-11792714D01*
X10938571Y-11792714D01*
X10910000Y-11778429D01*
X10895714Y-11749857D01*
X10895714Y-11735571D01*
X10910000Y-11707000D01*
X10938571Y-11692714D01*
X10981428Y-11692714D01*
X11010000Y-11707000D01*
X11124286Y-12007000D02*
X11138571Y-11992714D01*
X11167143Y-11949857D01*
X11181428Y-11921286D01*
X11195714Y-11878429D01*
X11210000Y-11807000D01*
X11210000Y-11749857D01*
X11195714Y-11678429D01*
X11181428Y-11635571D01*
X11167143Y-11607000D01*
X11138571Y-11564143D01*
X11124286Y-11549857D01*
X3481820Y-12184820D02*
X3481820Y-12121180D01*
X3418180Y-12121180D01*
X3418180Y-12184820D01*
X3481820Y-12184820D01*
X3838571Y-11988714D02*
X3867143Y-11988714D01*
X3895714Y-12003000D01*
X3910000Y-12017286D01*
X3924286Y-12045857D01*
X3938571Y-12103000D01*
X3938571Y-12174429D01*
X3924286Y-12231571D01*
X3910000Y-12260143D01*
X3895714Y-12274429D01*
X3867143Y-12288714D01*
X3838571Y-12288714D01*
X3810000Y-12274429D01*
X3795714Y-12260143D01*
X3781428Y-12231571D01*
X3767143Y-12174429D01*
X3767143Y-12103000D01*
X3781428Y-12045857D01*
X3795714Y-12017286D01*
X3810000Y-12003000D01*
X3838571Y-11988714D01*
X4067143Y-12260143D02*
X4081428Y-12274429D01*
X4067143Y-12288714D01*
X4052857Y-12274429D01*
X4067143Y-12260143D01*
X4067143Y-12288714D01*
X4224286Y-12288714D02*
X4281428Y-12288714D01*
X4310000Y-12274429D01*
X4324286Y-12260143D01*
X4352857Y-12217286D01*
X4367143Y-12160143D01*
X4367143Y-12045857D01*
X4352857Y-12017286D01*
X4338571Y-12003000D01*
X4310000Y-11988714D01*
X4252857Y-11988714D01*
X4224286Y-12003000D01*
X4210000Y-12017286D01*
X4195714Y-12045857D01*
X4195714Y-12117286D01*
X4210000Y-12145857D01*
X4224286Y-12160143D01*
X4252857Y-12174429D01*
X4310000Y-12174429D01*
X4338571Y-12160143D01*
X4352857Y-12145857D01*
X4367143Y-12117286D01*
X4552857Y-11988714D02*
X4581428Y-11988714D01*
X4610000Y-12003000D01*
X4624286Y-12017286D01*
X4638571Y-12045857D01*
X4652857Y-12103000D01*
X4652857Y-12174429D01*
X4638571Y-12231571D01*
X4624286Y-12260143D01*
X4610000Y-12274429D01*
X4581428Y-12288714D01*
X4552857Y-12288714D01*
X4524286Y-12274429D01*
X4510000Y-12260143D01*
X4495714Y-12231571D01*
X4481428Y-12174429D01*
X4481428Y-12103000D01*
X4495714Y-12045857D01*
X4510000Y-12017286D01*
X4524286Y-12003000D01*
X4552857Y-11988714D01*
X4838571Y-11988714D02*
X4867143Y-11988714D01*
X4895714Y-12003000D01*
X4910000Y-12017286D01*
X4924286Y-12045857D01*
X4938571Y-12103000D01*
X4938571Y-12174429D01*
X4924286Y-12231571D01*
X4910000Y-12260143D01*
X4895714Y-12274429D01*
X4867143Y-12288714D01*
X4838571Y-12288714D01*
X4810000Y-12274429D01*
X4795714Y-12260143D01*
X4781428Y-12231571D01*
X4767143Y-12174429D01*
X4767143Y-12103000D01*
X4781428Y-12045857D01*
X4795714Y-12017286D01*
X4810000Y-12003000D01*
X4838571Y-11988714D01*
X5067143Y-12288714D02*
X5067143Y-12088714D01*
X5067143Y-12117286D02*
X5081428Y-12103000D01*
X5110000Y-12088714D01*
X5152857Y-12088714D01*
X5181428Y-12103000D01*
X5195714Y-12131571D01*
X5195714Y-12288714D01*
X5195714Y-12131571D02*
X5210000Y-12103000D01*
X5238571Y-12088714D01*
X5281428Y-12088714D01*
X5310000Y-12103000D01*
X5324286Y-12131571D01*
X5324286Y-12288714D01*
X5467143Y-12288714D02*
X5467143Y-12088714D01*
X5467143Y-12117286D02*
X5481428Y-12103000D01*
X5510000Y-12088714D01*
X5552857Y-12088714D01*
X5581428Y-12103000D01*
X5595714Y-12131571D01*
X5595714Y-12288714D01*
X5595714Y-12131571D02*
X5610000Y-12103000D01*
X5638571Y-12088714D01*
X5681428Y-12088714D01*
X5710000Y-12103000D01*
X5724286Y-12131571D01*
X5724286Y-12288714D01*
X6310000Y-11974429D02*
X6052857Y-12360143D01*
X6695714Y-11988714D02*
X6724286Y-11988714D01*
X6752857Y-12003000D01*
X6767143Y-12017286D01*
X6781428Y-12045857D01*
X6795714Y-12103000D01*
X6795714Y-12174429D01*
X6781428Y-12231571D01*
X6767143Y-12260143D01*
X6752857Y-12274429D01*
X6724286Y-12288714D01*
X6695714Y-12288714D01*
X6667143Y-12274429D01*
X6652857Y-12260143D01*
X6638571Y-12231571D01*
X6624286Y-12174429D01*
X6624286Y-12103000D01*
X6638571Y-12045857D01*
X6652857Y-12017286D01*
X6667143Y-12003000D01*
X6695714Y-11988714D01*
X6924286Y-12260143D02*
X6938571Y-12274429D01*
X6924286Y-12288714D01*
X6910000Y-12274429D01*
X6924286Y-12260143D01*
X6924286Y-12288714D01*
X7124286Y-11988714D02*
X7152857Y-11988714D01*
X7181428Y-12003000D01*
X7195714Y-12017286D01*
X7210000Y-12045857D01*
X7224286Y-12103000D01*
X7224286Y-12174429D01*
X7210000Y-12231571D01*
X7195714Y-12260143D01*
X7181428Y-12274429D01*
X7152857Y-12288714D01*
X7124286Y-12288714D01*
X7095714Y-12274429D01*
X7081428Y-12260143D01*
X7067143Y-12231571D01*
X7052857Y-12174429D01*
X7052857Y-12103000D01*
X7067143Y-12045857D01*
X7081428Y-12017286D01*
X7095714Y-12003000D01*
X7124286Y-11988714D01*
X7324286Y-11988714D02*
X7510000Y-11988714D01*
X7410000Y-12103000D01*
X7452857Y-12103000D01*
X7481428Y-12117286D01*
X7495714Y-12131571D01*
X7510000Y-12160143D01*
X7510000Y-12231571D01*
X7495714Y-12260143D01*
X7481428Y-12274429D01*
X7452857Y-12288714D01*
X7367143Y-12288714D01*
X7338571Y-12274429D01*
X7324286Y-12260143D01*
X7781428Y-11988714D02*
X7638571Y-11988714D01*
X7624286Y-12131571D01*
X7638571Y-12117286D01*
X7667143Y-12103000D01*
X7738571Y-12103000D01*
X7767143Y-12117286D01*
X7781428Y-12131571D01*
X7795714Y-12160143D01*
X7795714Y-12231571D01*
X7781428Y-12260143D01*
X7767143Y-12274429D01*
X7738571Y-12288714D01*
X7667143Y-12288714D01*
X7638571Y-12274429D01*
X7624286Y-12260143D01*
X8052857Y-12088714D02*
X8052857Y-12288714D01*
X7981428Y-11974429D02*
X7910000Y-12188714D01*
X8095714Y-12188714D01*
X8195714Y-11988714D02*
X8195714Y-12045857D01*
X8310000Y-11988714D02*
X8310000Y-12045857D01*
X8752857Y-12403000D02*
X8738571Y-12388714D01*
X8710000Y-12345857D01*
X8695714Y-12317286D01*
X8681428Y-12274429D01*
X8667143Y-12203000D01*
X8667143Y-12145857D01*
X8681428Y-12074429D01*
X8695714Y-12031571D01*
X8710000Y-12003000D01*
X8738571Y-11960143D01*
X8752857Y-11945857D01*
X8852857Y-12017286D02*
X8867143Y-12003000D01*
X8895714Y-11988714D01*
X8967143Y-11988714D01*
X8995714Y-12003000D01*
X9010000Y-12017286D01*
X9024286Y-12045857D01*
X9024286Y-12074429D01*
X9010000Y-12117286D01*
X8838571Y-12288714D01*
X9024286Y-12288714D01*
X9381428Y-12288714D02*
X9381428Y-11988714D01*
X9510000Y-12288714D02*
X9510000Y-12131571D01*
X9495714Y-12103000D01*
X9467143Y-12088714D01*
X9424286Y-12088714D01*
X9395714Y-12103000D01*
X9381428Y-12117286D01*
X9695714Y-12288714D02*
X9667143Y-12274429D01*
X9652857Y-12260143D01*
X9638571Y-12231571D01*
X9638571Y-12145857D01*
X9652857Y-12117286D01*
X9667143Y-12103000D01*
X9695714Y-12088714D01*
X9738571Y-12088714D01*
X9767143Y-12103000D01*
X9781428Y-12117286D01*
X9795714Y-12145857D01*
X9795714Y-12231571D01*
X9781428Y-12260143D01*
X9767143Y-12274429D01*
X9738571Y-12288714D01*
X9695714Y-12288714D01*
X9967143Y-12288714D02*
X9938571Y-12274429D01*
X9924286Y-12245857D01*
X9924286Y-11988714D01*
X10195714Y-12274429D02*
X10167143Y-12288714D01*
X10110000Y-12288714D01*
X10081428Y-12274429D01*
X10067143Y-12245857D01*
X10067143Y-12131571D01*
X10081428Y-12103000D01*
X10110000Y-12088714D01*
X10167143Y-12088714D01*
X10195714Y-12103000D01*
X10210000Y-12131571D01*
X10210000Y-12160143D01*
X10067143Y-12188714D01*
X10324286Y-12274429D02*
X10352857Y-12288714D01*
X10410000Y-12288714D01*
X10438571Y-12274429D01*
X10452857Y-12245857D01*
X10452857Y-12231571D01*
X10438571Y-12203000D01*
X10410000Y-12188714D01*
X10367143Y-12188714D01*
X10338571Y-12174429D01*
X10324286Y-12145857D01*
X10324286Y-12131571D01*
X10338571Y-12103000D01*
X10367143Y-12088714D01*
X10410000Y-12088714D01*
X10438571Y-12103000D01*
X10552857Y-12403000D02*
X10567143Y-12388714D01*
X10595714Y-12345857D01*
X10610000Y-12317286D01*
X10624286Y-12274429D01*
X10638571Y-12203000D01*
X10638571Y-12145857D01*
X10624286Y-12074429D01*
X10610000Y-12031571D01*
X10595714Y-12003000D01*
X10567143Y-11960143D01*
X10552857Y-11945857D01*
X3445000Y-12599000D02*
X3495000Y-12549000D01*
X3445000Y-12499000D01*
X3395000Y-12549000D01*
X3445000Y-12599000D01*
X3938571Y-12684714D02*
X3767143Y-12684714D01*
X3852857Y-12684714D02*
X3852857Y-12384714D01*
X3824286Y-12427571D01*
X3795714Y-12456143D01*
X3767143Y-12470429D01*
X4067143Y-12656143D02*
X4081428Y-12670429D01*
X4067143Y-12684714D01*
X4052857Y-12670429D01*
X4067143Y-12656143D01*
X4067143Y-12684714D01*
X4267143Y-12384714D02*
X4295714Y-12384714D01*
X4324286Y-12399000D01*
X4338571Y-12413286D01*
X4352857Y-12441857D01*
X4367143Y-12499000D01*
X4367143Y-12570429D01*
X4352857Y-12627571D01*
X4338571Y-12656143D01*
X4324286Y-12670429D01*
X4295714Y-12684714D01*
X4267143Y-12684714D01*
X4238571Y-12670429D01*
X4224286Y-12656143D01*
X4210000Y-12627571D01*
X4195714Y-12570429D01*
X4195714Y-12499000D01*
X4210000Y-12441857D01*
X4224286Y-12413286D01*
X4238571Y-12399000D01*
X4267143Y-12384714D01*
X4552857Y-12384714D02*
X4581428Y-12384714D01*
X4610000Y-12399000D01*
X4624286Y-12413286D01*
X4638571Y-12441857D01*
X4652857Y-12499000D01*
X4652857Y-12570429D01*
X4638571Y-12627571D01*
X4624286Y-12656143D01*
X4610000Y-12670429D01*
X4581428Y-12684714D01*
X4552857Y-12684714D01*
X4524286Y-12670429D01*
X4510000Y-12656143D01*
X4495714Y-12627571D01*
X4481428Y-12570429D01*
X4481428Y-12499000D01*
X4495714Y-12441857D01*
X4510000Y-12413286D01*
X4524286Y-12399000D01*
X4552857Y-12384714D01*
X4838571Y-12384714D02*
X4867143Y-12384714D01*
X4895714Y-12399000D01*
X4910000Y-12413286D01*
X4924286Y-12441857D01*
X4938571Y-12499000D01*
X4938571Y-12570429D01*
X4924286Y-12627571D01*
X4910000Y-12656143D01*
X4895714Y-12670429D01*
X4867143Y-12684714D01*
X4838571Y-12684714D01*
X4810000Y-12670429D01*
X4795714Y-12656143D01*
X4781428Y-12627571D01*
X4767143Y-12570429D01*
X4767143Y-12499000D01*
X4781428Y-12441857D01*
X4795714Y-12413286D01*
X4810000Y-12399000D01*
X4838571Y-12384714D01*
X5067143Y-12684714D02*
X5067143Y-12484714D01*
X5067143Y-12513286D02*
X5081428Y-12499000D01*
X5110000Y-12484714D01*
X5152857Y-12484714D01*
X5181428Y-12499000D01*
X5195714Y-12527571D01*
X5195714Y-12684714D01*
X5195714Y-12527571D02*
X5210000Y-12499000D01*
X5238571Y-12484714D01*
X5281428Y-12484714D01*
X5310000Y-12499000D01*
X5324286Y-12527571D01*
X5324286Y-12684714D01*
X5467143Y-12684714D02*
X5467143Y-12484714D01*
X5467143Y-12513286D02*
X5481428Y-12499000D01*
X5510000Y-12484714D01*
X5552857Y-12484714D01*
X5581428Y-12499000D01*
X5595714Y-12527571D01*
X5595714Y-12684714D01*
X5595714Y-12527571D02*
X5610000Y-12499000D01*
X5638571Y-12484714D01*
X5681428Y-12484714D01*
X5710000Y-12499000D01*
X5724286Y-12527571D01*
X5724286Y-12684714D01*
X6310000Y-12370429D02*
X6052857Y-12756143D01*
X6695714Y-12384714D02*
X6724286Y-12384714D01*
X6752857Y-12399000D01*
X6767143Y-12413286D01*
X6781428Y-12441857D01*
X6795714Y-12499000D01*
X6795714Y-12570429D01*
X6781428Y-12627571D01*
X6767143Y-12656143D01*
X6752857Y-12670429D01*
X6724286Y-12684714D01*
X6695714Y-12684714D01*
X6667143Y-12670429D01*
X6652857Y-12656143D01*
X6638571Y-12627571D01*
X6624286Y-12570429D01*
X6624286Y-12499000D01*
X6638571Y-12441857D01*
X6652857Y-12413286D01*
X6667143Y-12399000D01*
X6695714Y-12384714D01*
X6924286Y-12656143D02*
X6938571Y-12670429D01*
X6924286Y-12684714D01*
X6910000Y-12670429D01*
X6924286Y-12656143D01*
X6924286Y-12684714D01*
X7124286Y-12384714D02*
X7152857Y-12384714D01*
X7181428Y-12399000D01*
X7195714Y-12413286D01*
X7210000Y-12441857D01*
X7224286Y-12499000D01*
X7224286Y-12570429D01*
X7210000Y-12627571D01*
X7195714Y-12656143D01*
X7181428Y-12670429D01*
X7152857Y-12684714D01*
X7124286Y-12684714D01*
X7095714Y-12670429D01*
X7081428Y-12656143D01*
X7067143Y-12627571D01*
X7052857Y-12570429D01*
X7052857Y-12499000D01*
X7067143Y-12441857D01*
X7081428Y-12413286D01*
X7095714Y-12399000D01*
X7124286Y-12384714D01*
X7324286Y-12384714D02*
X7510000Y-12384714D01*
X7410000Y-12499000D01*
X7452857Y-12499000D01*
X7481428Y-12513286D01*
X7495714Y-12527571D01*
X7510000Y-12556143D01*
X7510000Y-12627571D01*
X7495714Y-12656143D01*
X7481428Y-12670429D01*
X7452857Y-12684714D01*
X7367143Y-12684714D01*
X7338571Y-12670429D01*
X7324286Y-12656143D01*
X7652857Y-12684714D02*
X7710000Y-12684714D01*
X7738571Y-12670429D01*
X7752857Y-12656143D01*
X7781428Y-12613286D01*
X7795714Y-12556143D01*
X7795714Y-12441857D01*
X7781428Y-12413286D01*
X7767143Y-12399000D01*
X7738571Y-12384714D01*
X7681428Y-12384714D01*
X7652857Y-12399000D01*
X7638571Y-12413286D01*
X7624286Y-12441857D01*
X7624286Y-12513286D01*
X7638571Y-12541857D01*
X7652857Y-12556143D01*
X7681428Y-12570429D01*
X7738571Y-12570429D01*
X7767143Y-12556143D01*
X7781428Y-12541857D01*
X7795714Y-12513286D01*
X8052857Y-12484714D02*
X8052857Y-12684714D01*
X7981428Y-12370429D02*
X7910000Y-12584714D01*
X8095714Y-12584714D01*
X8195714Y-12384714D02*
X8195714Y-12441857D01*
X8310000Y-12384714D02*
X8310000Y-12441857D01*
X8752857Y-12799000D02*
X8738571Y-12784714D01*
X8710000Y-12741857D01*
X8695714Y-12713286D01*
X8681428Y-12670429D01*
X8667143Y-12599000D01*
X8667143Y-12541857D01*
X8681428Y-12470429D01*
X8695714Y-12427571D01*
X8710000Y-12399000D01*
X8738571Y-12356143D01*
X8752857Y-12341857D01*
X8910000Y-12513286D02*
X8881428Y-12499000D01*
X8867143Y-12484714D01*
X8852857Y-12456143D01*
X8852857Y-12441857D01*
X8867143Y-12413286D01*
X8881428Y-12399000D01*
X8910000Y-12384714D01*
X8967143Y-12384714D01*
X8995714Y-12399000D01*
X9010000Y-12413286D01*
X9024286Y-12441857D01*
X9024286Y-12456143D01*
X9010000Y-12484714D01*
X8995714Y-12499000D01*
X8967143Y-12513286D01*
X8910000Y-12513286D01*
X8881428Y-12527571D01*
X8867143Y-12541857D01*
X8852857Y-12570429D01*
X8852857Y-12627571D01*
X8867143Y-12656143D01*
X8881428Y-12670429D01*
X8910000Y-12684714D01*
X8967143Y-12684714D01*
X8995714Y-12670429D01*
X9010000Y-12656143D01*
X9024286Y-12627571D01*
X9024286Y-12570429D01*
X9010000Y-12541857D01*
X8995714Y-12527571D01*
X8967143Y-12513286D01*
X9281428Y-12484714D02*
X9281428Y-12684714D01*
X9210000Y-12370429D02*
X9138571Y-12584714D01*
X9324286Y-12584714D01*
X9667143Y-12684714D02*
X9667143Y-12384714D01*
X9795714Y-12684714D02*
X9795714Y-12527571D01*
X9781428Y-12499000D01*
X9752857Y-12484714D01*
X9710000Y-12484714D01*
X9681428Y-12499000D01*
X9667143Y-12513286D01*
X9981428Y-12684714D02*
X9952857Y-12670429D01*
X9938571Y-12656143D01*
X9924286Y-12627571D01*
X9924286Y-12541857D01*
X9938571Y-12513286D01*
X9952857Y-12499000D01*
X9981428Y-12484714D01*
X10024286Y-12484714D01*
X10052857Y-12499000D01*
X10067143Y-12513286D01*
X10081428Y-12541857D01*
X10081428Y-12627571D01*
X10067143Y-12656143D01*
X10052857Y-12670429D01*
X10024286Y-12684714D01*
X9981428Y-12684714D01*
X10252857Y-12684714D02*
X10224286Y-12670429D01*
X10210000Y-12641857D01*
X10210000Y-12384714D01*
X10481428Y-12670429D02*
X10452857Y-12684714D01*
X10395714Y-12684714D01*
X10367143Y-12670429D01*
X10352857Y-12641857D01*
X10352857Y-12527571D01*
X10367143Y-12499000D01*
X10395714Y-12484714D01*
X10452857Y-12484714D01*
X10481428Y-12499000D01*
X10495714Y-12527571D01*
X10495714Y-12556143D01*
X10352857Y-12584714D01*
X10610000Y-12670429D02*
X10638571Y-12684714D01*
X10695714Y-12684714D01*
X10724286Y-12670429D01*
X10738571Y-12641857D01*
X10738571Y-12627571D01*
X10724286Y-12599000D01*
X10695714Y-12584714D01*
X10652857Y-12584714D01*
X10624286Y-12570429D01*
X10610000Y-12541857D01*
X10610000Y-12527571D01*
X10624286Y-12499000D01*
X10652857Y-12484714D01*
X10695714Y-12484714D01*
X10724286Y-12499000D01*
X10838571Y-12799000D02*
X10852857Y-12784714D01*
X10881428Y-12741857D01*
X10895714Y-12713286D01*
X10910000Y-12670429D01*
X10924286Y-12599000D01*
X10924286Y-12541857D01*
X10910000Y-12470429D01*
X10895714Y-12427571D01*
X10881428Y-12399000D01*
X10852857Y-12356143D01*
X10838571Y-12341857D01*
X3391000Y-12893000D02*
X3495000Y-12997000D01*
X3495000Y-12893000D02*
X3391000Y-12997000D01*
X3495000Y-12945000D02*
G75*
G03*
X3495000Y-12945000I-52000J0D01*
G01*
X3938571Y-13080714D02*
X3767143Y-13080714D01*
X3852857Y-13080714D02*
X3852857Y-12780714D01*
X3824286Y-12823571D01*
X3795714Y-12852143D01*
X3767143Y-12866429D01*
X4067143Y-13052143D02*
X4081428Y-13066429D01*
X4067143Y-13080714D01*
X4052857Y-13066429D01*
X4067143Y-13052143D01*
X4067143Y-13080714D01*
X4267143Y-12780714D02*
X4295714Y-12780714D01*
X4324286Y-12795000D01*
X4338571Y-12809286D01*
X4352857Y-12837857D01*
X4367143Y-12895000D01*
X4367143Y-12966429D01*
X4352857Y-13023571D01*
X4338571Y-13052143D01*
X4324286Y-13066429D01*
X4295714Y-13080714D01*
X4267143Y-13080714D01*
X4238571Y-13066429D01*
X4224286Y-13052143D01*
X4210000Y-13023571D01*
X4195714Y-12966429D01*
X4195714Y-12895000D01*
X4210000Y-12837857D01*
X4224286Y-12809286D01*
X4238571Y-12795000D01*
X4267143Y-12780714D01*
X4624286Y-12880714D02*
X4624286Y-13080714D01*
X4552857Y-12766429D02*
X4481428Y-12980714D01*
X4667143Y-12980714D01*
X4838571Y-12780714D02*
X4867143Y-12780714D01*
X4895714Y-12795000D01*
X4910000Y-12809286D01*
X4924286Y-12837857D01*
X4938571Y-12895000D01*
X4938571Y-12966429D01*
X4924286Y-13023571D01*
X4910000Y-13052143D01*
X4895714Y-13066429D01*
X4867143Y-13080714D01*
X4838571Y-13080714D01*
X4810000Y-13066429D01*
X4795714Y-13052143D01*
X4781428Y-13023571D01*
X4767143Y-12966429D01*
X4767143Y-12895000D01*
X4781428Y-12837857D01*
X4795714Y-12809286D01*
X4810000Y-12795000D01*
X4838571Y-12780714D01*
X5067143Y-13080714D02*
X5067143Y-12880714D01*
X5067143Y-12909286D02*
X5081428Y-12895000D01*
X5110000Y-12880714D01*
X5152857Y-12880714D01*
X5181428Y-12895000D01*
X5195714Y-12923571D01*
X5195714Y-13080714D01*
X5195714Y-12923571D02*
X5210000Y-12895000D01*
X5238571Y-12880714D01*
X5281428Y-12880714D01*
X5310000Y-12895000D01*
X5324286Y-12923571D01*
X5324286Y-13080714D01*
X5467143Y-13080714D02*
X5467143Y-12880714D01*
X5467143Y-12909286D02*
X5481428Y-12895000D01*
X5510000Y-12880714D01*
X5552857Y-12880714D01*
X5581428Y-12895000D01*
X5595714Y-12923571D01*
X5595714Y-13080714D01*
X5595714Y-12923571D02*
X5610000Y-12895000D01*
X5638571Y-12880714D01*
X5681428Y-12880714D01*
X5710000Y-12895000D01*
X5724286Y-12923571D01*
X5724286Y-13080714D01*
X6310000Y-12766429D02*
X6052857Y-13152143D01*
X6695714Y-12780714D02*
X6724286Y-12780714D01*
X6752857Y-12795000D01*
X6767143Y-12809286D01*
X6781428Y-12837857D01*
X6795714Y-12895000D01*
X6795714Y-12966429D01*
X6781428Y-13023571D01*
X6767143Y-13052143D01*
X6752857Y-13066429D01*
X6724286Y-13080714D01*
X6695714Y-13080714D01*
X6667143Y-13066429D01*
X6652857Y-13052143D01*
X6638571Y-13023571D01*
X6624286Y-12966429D01*
X6624286Y-12895000D01*
X6638571Y-12837857D01*
X6652857Y-12809286D01*
X6667143Y-12795000D01*
X6695714Y-12780714D01*
X6924286Y-13052143D02*
X6938571Y-13066429D01*
X6924286Y-13080714D01*
X6910000Y-13066429D01*
X6924286Y-13052143D01*
X6924286Y-13080714D01*
X7124286Y-12780714D02*
X7152857Y-12780714D01*
X7181428Y-12795000D01*
X7195714Y-12809286D01*
X7210000Y-12837857D01*
X7224286Y-12895000D01*
X7224286Y-12966429D01*
X7210000Y-13023571D01*
X7195714Y-13052143D01*
X7181428Y-13066429D01*
X7152857Y-13080714D01*
X7124286Y-13080714D01*
X7095714Y-13066429D01*
X7081428Y-13052143D01*
X7067143Y-13023571D01*
X7052857Y-12966429D01*
X7052857Y-12895000D01*
X7067143Y-12837857D01*
X7081428Y-12809286D01*
X7095714Y-12795000D01*
X7124286Y-12780714D01*
X7481428Y-12880714D02*
X7481428Y-13080714D01*
X7410000Y-12766429D02*
X7338571Y-12980714D01*
X7524286Y-12980714D01*
X7695714Y-12780714D02*
X7724286Y-12780714D01*
X7752857Y-12795000D01*
X7767143Y-12809286D01*
X7781428Y-12837857D01*
X7795714Y-12895000D01*
X7795714Y-12966429D01*
X7781428Y-13023571D01*
X7767143Y-13052143D01*
X7752857Y-13066429D01*
X7724286Y-13080714D01*
X7695714Y-13080714D01*
X7667143Y-13066429D01*
X7652857Y-13052143D01*
X7638571Y-13023571D01*
X7624286Y-12966429D01*
X7624286Y-12895000D01*
X7638571Y-12837857D01*
X7652857Y-12809286D01*
X7667143Y-12795000D01*
X7695714Y-12780714D01*
X7938571Y-13080714D02*
X7995714Y-13080714D01*
X8024286Y-13066429D01*
X8038571Y-13052143D01*
X8067143Y-13009286D01*
X8081428Y-12952143D01*
X8081428Y-12837857D01*
X8067143Y-12809286D01*
X8052857Y-12795000D01*
X8024286Y-12780714D01*
X7967143Y-12780714D01*
X7938571Y-12795000D01*
X7924286Y-12809286D01*
X7910000Y-12837857D01*
X7910000Y-12909286D01*
X7924286Y-12937857D01*
X7938571Y-12952143D01*
X7967143Y-12966429D01*
X8024286Y-12966429D01*
X8052857Y-12952143D01*
X8067143Y-12937857D01*
X8081428Y-12909286D01*
X8195714Y-12780714D02*
X8195714Y-12837857D01*
X8310000Y-12780714D02*
X8310000Y-12837857D01*
X8752857Y-13195000D02*
X8738571Y-13180714D01*
X8710000Y-13137857D01*
X8695714Y-13109286D01*
X8681428Y-13066429D01*
X8667143Y-12995000D01*
X8667143Y-12937857D01*
X8681428Y-12866429D01*
X8695714Y-12823571D01*
X8710000Y-12795000D01*
X8738571Y-12752143D01*
X8752857Y-12737857D01*
X8838571Y-12780714D02*
X9024286Y-12780714D01*
X8924286Y-12895000D01*
X8967143Y-12895000D01*
X8995714Y-12909286D01*
X9010000Y-12923571D01*
X9024286Y-12952143D01*
X9024286Y-13023571D01*
X9010000Y-13052143D01*
X8995714Y-13066429D01*
X8967143Y-13080714D01*
X8881428Y-13080714D01*
X8852857Y-13066429D01*
X8838571Y-13052143D01*
X9195714Y-12909286D02*
X9167143Y-12895000D01*
X9152857Y-12880714D01*
X9138571Y-12852143D01*
X9138571Y-12837857D01*
X9152857Y-12809286D01*
X9167143Y-12795000D01*
X9195714Y-12780714D01*
X9252857Y-12780714D01*
X9281428Y-12795000D01*
X9295714Y-12809286D01*
X9310000Y-12837857D01*
X9310000Y-12852143D01*
X9295714Y-12880714D01*
X9281428Y-12895000D01*
X9252857Y-12909286D01*
X9195714Y-12909286D01*
X9167143Y-12923571D01*
X9152857Y-12937857D01*
X9138571Y-12966429D01*
X9138571Y-13023571D01*
X9152857Y-13052143D01*
X9167143Y-13066429D01*
X9195714Y-13080714D01*
X9252857Y-13080714D01*
X9281428Y-13066429D01*
X9295714Y-13052143D01*
X9310000Y-13023571D01*
X9310000Y-12966429D01*
X9295714Y-12937857D01*
X9281428Y-12923571D01*
X9252857Y-12909286D01*
X9667143Y-13080714D02*
X9667143Y-12780714D01*
X9795714Y-13080714D02*
X9795714Y-12923571D01*
X9781428Y-12895000D01*
X9752857Y-12880714D01*
X9710000Y-12880714D01*
X9681428Y-12895000D01*
X9667143Y-12909286D01*
X9981428Y-13080714D02*
X9952857Y-13066429D01*
X9938571Y-13052143D01*
X9924286Y-13023571D01*
X9924286Y-12937857D01*
X9938571Y-12909286D01*
X9952857Y-12895000D01*
X9981428Y-12880714D01*
X10024286Y-12880714D01*
X10052857Y-12895000D01*
X10067143Y-12909286D01*
X10081428Y-12937857D01*
X10081428Y-13023571D01*
X10067143Y-13052143D01*
X10052857Y-13066429D01*
X10024286Y-13080714D01*
X9981428Y-13080714D01*
X10252857Y-13080714D02*
X10224286Y-13066429D01*
X10210000Y-13037857D01*
X10210000Y-12780714D01*
X10481428Y-13066429D02*
X10452857Y-13080714D01*
X10395714Y-13080714D01*
X10367143Y-13066429D01*
X10352857Y-13037857D01*
X10352857Y-12923571D01*
X10367143Y-12895000D01*
X10395714Y-12880714D01*
X10452857Y-12880714D01*
X10481428Y-12895000D01*
X10495714Y-12923571D01*
X10495714Y-12952143D01*
X10352857Y-12980714D01*
X10610000Y-13066429D02*
X10638571Y-13080714D01*
X10695714Y-13080714D01*
X10724286Y-13066429D01*
X10738571Y-13037857D01*
X10738571Y-13023571D01*
X10724286Y-12995000D01*
X10695714Y-12980714D01*
X10652857Y-12980714D01*
X10624286Y-12966429D01*
X10610000Y-12937857D01*
X10610000Y-12923571D01*
X10624286Y-12895000D01*
X10652857Y-12880714D01*
X10695714Y-12880714D01*
X10724286Y-12895000D01*
X10838571Y-13195000D02*
X10852857Y-13180714D01*
X10881428Y-13137857D01*
X10895714Y-13109286D01*
X10910000Y-13066429D01*
X10924286Y-12995000D01*
X10924286Y-12937857D01*
X10910000Y-12866429D01*
X10895714Y-12823571D01*
X10881428Y-12795000D01*
X10852857Y-12752143D01*
X10838571Y-12737857D01*
X3385000Y-13286000D02*
X3495000Y-13396000D01*
X3495000Y-13286000D02*
X3385000Y-13396000D01*
X3440000Y-13286000D02*
X3440000Y-13396000D01*
X3385000Y-13341000D02*
X3495000Y-13341000D01*
X3938571Y-13476714D02*
X3767143Y-13476714D01*
X3852857Y-13476714D02*
X3852857Y-13176714D01*
X3824286Y-13219571D01*
X3795714Y-13248143D01*
X3767143Y-13262429D01*
X4067143Y-13448143D02*
X4081428Y-13462429D01*
X4067143Y-13476714D01*
X4052857Y-13462429D01*
X4067143Y-13448143D01*
X4067143Y-13476714D01*
X4367143Y-13476714D02*
X4195714Y-13476714D01*
X4281428Y-13476714D02*
X4281428Y-13176714D01*
X4252857Y-13219571D01*
X4224286Y-13248143D01*
X4195714Y-13262429D01*
X4552857Y-13176714D02*
X4581428Y-13176714D01*
X4610000Y-13191000D01*
X4624286Y-13205286D01*
X4638571Y-13233857D01*
X4652857Y-13291000D01*
X4652857Y-13362429D01*
X4638571Y-13419571D01*
X4624286Y-13448143D01*
X4610000Y-13462429D01*
X4581428Y-13476714D01*
X4552857Y-13476714D01*
X4524286Y-13462429D01*
X4510000Y-13448143D01*
X4495714Y-13419571D01*
X4481428Y-13362429D01*
X4481428Y-13291000D01*
X4495714Y-13233857D01*
X4510000Y-13205286D01*
X4524286Y-13191000D01*
X4552857Y-13176714D01*
X4838571Y-13176714D02*
X4867143Y-13176714D01*
X4895714Y-13191000D01*
X4910000Y-13205286D01*
X4924286Y-13233857D01*
X4938571Y-13291000D01*
X4938571Y-13362429D01*
X4924286Y-13419571D01*
X4910000Y-13448143D01*
X4895714Y-13462429D01*
X4867143Y-13476714D01*
X4838571Y-13476714D01*
X4810000Y-13462429D01*
X4795714Y-13448143D01*
X4781428Y-13419571D01*
X4767143Y-13362429D01*
X4767143Y-13291000D01*
X4781428Y-13233857D01*
X4795714Y-13205286D01*
X4810000Y-13191000D01*
X4838571Y-13176714D01*
X5067143Y-13476714D02*
X5067143Y-13276714D01*
X5067143Y-13305286D02*
X5081428Y-13291000D01*
X5110000Y-13276714D01*
X5152857Y-13276714D01*
X5181428Y-13291000D01*
X5195714Y-13319571D01*
X5195714Y-13476714D01*
X5195714Y-13319571D02*
X5210000Y-13291000D01*
X5238571Y-13276714D01*
X5281428Y-13276714D01*
X5310000Y-13291000D01*
X5324286Y-13319571D01*
X5324286Y-13476714D01*
X5467143Y-13476714D02*
X5467143Y-13276714D01*
X5467143Y-13305286D02*
X5481428Y-13291000D01*
X5510000Y-13276714D01*
X5552857Y-13276714D01*
X5581428Y-13291000D01*
X5595714Y-13319571D01*
X5595714Y-13476714D01*
X5595714Y-13319571D02*
X5610000Y-13291000D01*
X5638571Y-13276714D01*
X5681428Y-13276714D01*
X5710000Y-13291000D01*
X5724286Y-13319571D01*
X5724286Y-13476714D01*
X6310000Y-13162429D02*
X6052857Y-13548143D01*
X6695714Y-13176714D02*
X6724286Y-13176714D01*
X6752857Y-13191000D01*
X6767143Y-13205286D01*
X6781428Y-13233857D01*
X6795714Y-13291000D01*
X6795714Y-13362429D01*
X6781428Y-13419571D01*
X6767143Y-13448143D01*
X6752857Y-13462429D01*
X6724286Y-13476714D01*
X6695714Y-13476714D01*
X6667143Y-13462429D01*
X6652857Y-13448143D01*
X6638571Y-13419571D01*
X6624286Y-13362429D01*
X6624286Y-13291000D01*
X6638571Y-13233857D01*
X6652857Y-13205286D01*
X6667143Y-13191000D01*
X6695714Y-13176714D01*
X6924286Y-13448143D02*
X6938571Y-13462429D01*
X6924286Y-13476714D01*
X6910000Y-13462429D01*
X6924286Y-13448143D01*
X6924286Y-13476714D01*
X7124286Y-13176714D02*
X7152857Y-13176714D01*
X7181428Y-13191000D01*
X7195714Y-13205286D01*
X7210000Y-13233857D01*
X7224286Y-13291000D01*
X7224286Y-13362429D01*
X7210000Y-13419571D01*
X7195714Y-13448143D01*
X7181428Y-13462429D01*
X7152857Y-13476714D01*
X7124286Y-13476714D01*
X7095714Y-13462429D01*
X7081428Y-13448143D01*
X7067143Y-13419571D01*
X7052857Y-13362429D01*
X7052857Y-13291000D01*
X7067143Y-13233857D01*
X7081428Y-13205286D01*
X7095714Y-13191000D01*
X7124286Y-13176714D01*
X7481428Y-13276714D02*
X7481428Y-13476714D01*
X7410000Y-13162429D02*
X7338571Y-13376714D01*
X7524286Y-13376714D01*
X7610000Y-13176714D02*
X7795714Y-13176714D01*
X7695714Y-13291000D01*
X7738571Y-13291000D01*
X7767143Y-13305286D01*
X7781428Y-13319571D01*
X7795714Y-13348143D01*
X7795714Y-13419571D01*
X7781428Y-13448143D01*
X7767143Y-13462429D01*
X7738571Y-13476714D01*
X7652857Y-13476714D01*
X7624286Y-13462429D01*
X7610000Y-13448143D01*
X7895714Y-13176714D02*
X8081428Y-13176714D01*
X7981428Y-13291000D01*
X8024286Y-13291000D01*
X8052857Y-13305286D01*
X8067143Y-13319571D01*
X8081428Y-13348143D01*
X8081428Y-13419571D01*
X8067143Y-13448143D01*
X8052857Y-13462429D01*
X8024286Y-13476714D01*
X7938571Y-13476714D01*
X7910000Y-13462429D01*
X7895714Y-13448143D01*
X8195714Y-13176714D02*
X8195714Y-13233857D01*
X8310000Y-13176714D02*
X8310000Y-13233857D01*
X8752857Y-13591000D02*
X8738571Y-13576714D01*
X8710000Y-13533857D01*
X8695714Y-13505286D01*
X8681428Y-13462429D01*
X8667143Y-13391000D01*
X8667143Y-13333857D01*
X8681428Y-13262429D01*
X8695714Y-13219571D01*
X8710000Y-13191000D01*
X8738571Y-13148143D01*
X8752857Y-13133857D01*
X9024286Y-13476714D02*
X8852857Y-13476714D01*
X8938571Y-13476714D02*
X8938571Y-13176714D01*
X8910000Y-13219571D01*
X8881428Y-13248143D01*
X8852857Y-13262429D01*
X9195714Y-13305286D02*
X9167143Y-13291000D01*
X9152857Y-13276714D01*
X9138571Y-13248143D01*
X9138571Y-13233857D01*
X9152857Y-13205286D01*
X9167143Y-13191000D01*
X9195714Y-13176714D01*
X9252857Y-13176714D01*
X9281428Y-13191000D01*
X9295714Y-13205286D01*
X9310000Y-13233857D01*
X9310000Y-13248143D01*
X9295714Y-13276714D01*
X9281428Y-13291000D01*
X9252857Y-13305286D01*
X9195714Y-13305286D01*
X9167143Y-13319571D01*
X9152857Y-13333857D01*
X9138571Y-13362429D01*
X9138571Y-13419571D01*
X9152857Y-13448143D01*
X9167143Y-13462429D01*
X9195714Y-13476714D01*
X9252857Y-13476714D01*
X9281428Y-13462429D01*
X9295714Y-13448143D01*
X9310000Y-13419571D01*
X9310000Y-13362429D01*
X9295714Y-13333857D01*
X9281428Y-13319571D01*
X9252857Y-13305286D01*
X9667143Y-13476714D02*
X9667143Y-13176714D01*
X9795714Y-13476714D02*
X9795714Y-13319571D01*
X9781428Y-13291000D01*
X9752857Y-13276714D01*
X9710000Y-13276714D01*
X9681428Y-13291000D01*
X9667143Y-13305286D01*
X9981428Y-13476714D02*
X9952857Y-13462429D01*
X9938571Y-13448143D01*
X9924286Y-13419571D01*
X9924286Y-13333857D01*
X9938571Y-13305286D01*
X9952857Y-13291000D01*
X9981428Y-13276714D01*
X10024286Y-13276714D01*
X10052857Y-13291000D01*
X10067143Y-13305286D01*
X10081428Y-13333857D01*
X10081428Y-13419571D01*
X10067143Y-13448143D01*
X10052857Y-13462429D01*
X10024286Y-13476714D01*
X9981428Y-13476714D01*
X10252857Y-13476714D02*
X10224286Y-13462429D01*
X10210000Y-13433857D01*
X10210000Y-13176714D01*
X10481428Y-13462429D02*
X10452857Y-13476714D01*
X10395714Y-13476714D01*
X10367143Y-13462429D01*
X10352857Y-13433857D01*
X10352857Y-13319571D01*
X10367143Y-13291000D01*
X10395714Y-13276714D01*
X10452857Y-13276714D01*
X10481428Y-13291000D01*
X10495714Y-13319571D01*
X10495714Y-13348143D01*
X10352857Y-13376714D01*
X10610000Y-13462429D02*
X10638571Y-13476714D01*
X10695714Y-13476714D01*
X10724286Y-13462429D01*
X10738571Y-13433857D01*
X10738571Y-13419571D01*
X10724286Y-13391000D01*
X10695714Y-13376714D01*
X10652857Y-13376714D01*
X10624286Y-13362429D01*
X10610000Y-13333857D01*
X10610000Y-13319571D01*
X10624286Y-13291000D01*
X10652857Y-13276714D01*
X10695714Y-13276714D01*
X10724286Y-13291000D01*
X10838571Y-13591000D02*
X10852857Y-13576714D01*
X10881428Y-13533857D01*
X10895714Y-13505286D01*
X10910000Y-13462429D01*
X10924286Y-13391000D01*
X10924286Y-13333857D01*
X10910000Y-13262429D01*
X10895714Y-13219571D01*
X10881428Y-13191000D01*
X10852857Y-13148143D01*
X10838571Y-13133857D01*
X3375000Y-13677000D02*
X3495000Y-13797000D01*
X3495000Y-13677000D02*
X3375000Y-13797000D01*
X3477427Y-13779427D02*
X3477427Y-13694573D01*
X3392573Y-13694573D01*
X3392573Y-13779427D01*
X3477427Y-13779427D01*
X3938571Y-13872714D02*
X3767143Y-13872714D01*
X3852857Y-13872714D02*
X3852857Y-13572714D01*
X3824286Y-13615571D01*
X3795714Y-13644143D01*
X3767143Y-13658429D01*
X4067143Y-13844143D02*
X4081428Y-13858429D01*
X4067143Y-13872714D01*
X4052857Y-13858429D01*
X4067143Y-13844143D01*
X4067143Y-13872714D01*
X4195714Y-13601286D02*
X4210000Y-13587000D01*
X4238571Y-13572714D01*
X4310000Y-13572714D01*
X4338571Y-13587000D01*
X4352857Y-13601286D01*
X4367143Y-13629857D01*
X4367143Y-13658429D01*
X4352857Y-13701286D01*
X4181428Y-13872714D01*
X4367143Y-13872714D01*
X4552857Y-13572714D02*
X4581428Y-13572714D01*
X4610000Y-13587000D01*
X4624286Y-13601286D01*
X4638571Y-13629857D01*
X4652857Y-13687000D01*
X4652857Y-13758429D01*
X4638571Y-13815571D01*
X4624286Y-13844143D01*
X4610000Y-13858429D01*
X4581428Y-13872714D01*
X4552857Y-13872714D01*
X4524286Y-13858429D01*
X4510000Y-13844143D01*
X4495714Y-13815571D01*
X4481428Y-13758429D01*
X4481428Y-13687000D01*
X4495714Y-13629857D01*
X4510000Y-13601286D01*
X4524286Y-13587000D01*
X4552857Y-13572714D01*
X4838571Y-13572714D02*
X4867143Y-13572714D01*
X4895714Y-13587000D01*
X4910000Y-13601286D01*
X4924286Y-13629857D01*
X4938571Y-13687000D01*
X4938571Y-13758429D01*
X4924286Y-13815571D01*
X4910000Y-13844143D01*
X4895714Y-13858429D01*
X4867143Y-13872714D01*
X4838571Y-13872714D01*
X4810000Y-13858429D01*
X4795714Y-13844143D01*
X4781428Y-13815571D01*
X4767143Y-13758429D01*
X4767143Y-13687000D01*
X4781428Y-13629857D01*
X4795714Y-13601286D01*
X4810000Y-13587000D01*
X4838571Y-13572714D01*
X5067143Y-13872714D02*
X5067143Y-13672714D01*
X5067143Y-13701286D02*
X5081428Y-13687000D01*
X5110000Y-13672714D01*
X5152857Y-13672714D01*
X5181428Y-13687000D01*
X5195714Y-13715571D01*
X5195714Y-13872714D01*
X5195714Y-13715571D02*
X5210000Y-13687000D01*
X5238571Y-13672714D01*
X5281428Y-13672714D01*
X5310000Y-13687000D01*
X5324286Y-13715571D01*
X5324286Y-13872714D01*
X5467143Y-13872714D02*
X5467143Y-13672714D01*
X5467143Y-13701286D02*
X5481428Y-13687000D01*
X5510000Y-13672714D01*
X5552857Y-13672714D01*
X5581428Y-13687000D01*
X5595714Y-13715571D01*
X5595714Y-13872714D01*
X5595714Y-13715571D02*
X5610000Y-13687000D01*
X5638571Y-13672714D01*
X5681428Y-13672714D01*
X5710000Y-13687000D01*
X5724286Y-13715571D01*
X5724286Y-13872714D01*
X6310000Y-13558429D02*
X6052857Y-13944143D01*
X6695714Y-13572714D02*
X6724286Y-13572714D01*
X6752857Y-13587000D01*
X6767143Y-13601286D01*
X6781428Y-13629857D01*
X6795714Y-13687000D01*
X6795714Y-13758429D01*
X6781428Y-13815571D01*
X6767143Y-13844143D01*
X6752857Y-13858429D01*
X6724286Y-13872714D01*
X6695714Y-13872714D01*
X6667143Y-13858429D01*
X6652857Y-13844143D01*
X6638571Y-13815571D01*
X6624286Y-13758429D01*
X6624286Y-13687000D01*
X6638571Y-13629857D01*
X6652857Y-13601286D01*
X6667143Y-13587000D01*
X6695714Y-13572714D01*
X6924286Y-13844143D02*
X6938571Y-13858429D01*
X6924286Y-13872714D01*
X6910000Y-13858429D01*
X6924286Y-13844143D01*
X6924286Y-13872714D01*
X7124286Y-13572714D02*
X7152857Y-13572714D01*
X7181428Y-13587000D01*
X7195714Y-13601286D01*
X7210000Y-13629857D01*
X7224286Y-13687000D01*
X7224286Y-13758429D01*
X7210000Y-13815571D01*
X7195714Y-13844143D01*
X7181428Y-13858429D01*
X7152857Y-13872714D01*
X7124286Y-13872714D01*
X7095714Y-13858429D01*
X7081428Y-13844143D01*
X7067143Y-13815571D01*
X7052857Y-13758429D01*
X7052857Y-13687000D01*
X7067143Y-13629857D01*
X7081428Y-13601286D01*
X7095714Y-13587000D01*
X7124286Y-13572714D01*
X7481428Y-13672714D02*
X7481428Y-13872714D01*
X7410000Y-13558429D02*
X7338571Y-13772714D01*
X7524286Y-13772714D01*
X7610000Y-13572714D02*
X7810000Y-13572714D01*
X7681428Y-13872714D01*
X7910000Y-13601286D02*
X7924286Y-13587000D01*
X7952857Y-13572714D01*
X8024286Y-13572714D01*
X8052857Y-13587000D01*
X8067143Y-13601286D01*
X8081428Y-13629857D01*
X8081428Y-13658429D01*
X8067143Y-13701286D01*
X7895714Y-13872714D01*
X8081428Y-13872714D01*
X8195714Y-13572714D02*
X8195714Y-13629857D01*
X8310000Y-13572714D02*
X8310000Y-13629857D01*
X8752857Y-13987000D02*
X8738571Y-13972714D01*
X8710000Y-13929857D01*
X8695714Y-13901286D01*
X8681428Y-13858429D01*
X8667143Y-13787000D01*
X8667143Y-13729857D01*
X8681428Y-13658429D01*
X8695714Y-13615571D01*
X8710000Y-13587000D01*
X8738571Y-13544143D01*
X8752857Y-13529857D01*
X8852857Y-13601286D02*
X8867143Y-13587000D01*
X8895714Y-13572714D01*
X8967143Y-13572714D01*
X8995714Y-13587000D01*
X9010000Y-13601286D01*
X9024286Y-13629857D01*
X9024286Y-13658429D01*
X9010000Y-13701286D01*
X8838571Y-13872714D01*
X9024286Y-13872714D01*
X9195714Y-13701286D02*
X9167143Y-13687000D01*
X9152857Y-13672714D01*
X9138571Y-13644143D01*
X9138571Y-13629857D01*
X9152857Y-13601286D01*
X9167143Y-13587000D01*
X9195714Y-13572714D01*
X9252857Y-13572714D01*
X9281428Y-13587000D01*
X9295714Y-13601286D01*
X9310000Y-13629857D01*
X9310000Y-13644143D01*
X9295714Y-13672714D01*
X9281428Y-13687000D01*
X9252857Y-13701286D01*
X9195714Y-13701286D01*
X9167143Y-13715571D01*
X9152857Y-13729857D01*
X9138571Y-13758429D01*
X9138571Y-13815571D01*
X9152857Y-13844143D01*
X9167143Y-13858429D01*
X9195714Y-13872714D01*
X9252857Y-13872714D01*
X9281428Y-13858429D01*
X9295714Y-13844143D01*
X9310000Y-13815571D01*
X9310000Y-13758429D01*
X9295714Y-13729857D01*
X9281428Y-13715571D01*
X9252857Y-13701286D01*
X9667143Y-13872714D02*
X9667143Y-13572714D01*
X9795714Y-13872714D02*
X9795714Y-13715571D01*
X9781428Y-13687000D01*
X9752857Y-13672714D01*
X9710000Y-13672714D01*
X9681428Y-13687000D01*
X9667143Y-13701286D01*
X9981428Y-13872714D02*
X9952857Y-13858429D01*
X9938571Y-13844143D01*
X9924286Y-13815571D01*
X9924286Y-13729857D01*
X9938571Y-13701286D01*
X9952857Y-13687000D01*
X9981428Y-13672714D01*
X10024286Y-13672714D01*
X10052857Y-13687000D01*
X10067143Y-13701286D01*
X10081428Y-13729857D01*
X10081428Y-13815571D01*
X10067143Y-13844143D01*
X10052857Y-13858429D01*
X10024286Y-13872714D01*
X9981428Y-13872714D01*
X10252857Y-13872714D02*
X10224286Y-13858429D01*
X10210000Y-13829857D01*
X10210000Y-13572714D01*
X10481428Y-13858429D02*
X10452857Y-13872714D01*
X10395714Y-13872714D01*
X10367143Y-13858429D01*
X10352857Y-13829857D01*
X10352857Y-13715571D01*
X10367143Y-13687000D01*
X10395714Y-13672714D01*
X10452857Y-13672714D01*
X10481428Y-13687000D01*
X10495714Y-13715571D01*
X10495714Y-13744143D01*
X10352857Y-13772714D01*
X10610000Y-13858429D02*
X10638571Y-13872714D01*
X10695714Y-13872714D01*
X10724286Y-13858429D01*
X10738571Y-13829857D01*
X10738571Y-13815571D01*
X10724286Y-13787000D01*
X10695714Y-13772714D01*
X10652857Y-13772714D01*
X10624286Y-13758429D01*
X10610000Y-13729857D01*
X10610000Y-13715571D01*
X10624286Y-13687000D01*
X10652857Y-13672714D01*
X10695714Y-13672714D01*
X10724286Y-13687000D01*
X10838571Y-13987000D02*
X10852857Y-13972714D01*
X10881428Y-13929857D01*
X10895714Y-13901286D01*
X10910000Y-13858429D01*
X10924286Y-13787000D01*
X10924286Y-13729857D01*
X10910000Y-13658429D01*
X10895714Y-13615571D01*
X10881428Y-13587000D01*
X10852857Y-13544143D01*
X10838571Y-13529857D01*
X3365000Y-14068000D02*
X3495000Y-14198000D01*
X3495000Y-14068000D02*
X3365000Y-14198000D01*
X3430000Y-14198000D02*
X3495000Y-14133000D01*
X3430000Y-14068000D01*
X3365000Y-14133000D01*
X3430000Y-14198000D01*
X3938571Y-14268714D02*
X3767143Y-14268714D01*
X3852857Y-14268714D02*
X3852857Y-13968714D01*
X3824286Y-14011571D01*
X3795714Y-14040143D01*
X3767143Y-14054429D01*
X4067143Y-14240143D02*
X4081428Y-14254429D01*
X4067143Y-14268714D01*
X4052857Y-14254429D01*
X4067143Y-14240143D01*
X4067143Y-14268714D01*
X4181428Y-13968714D02*
X4367143Y-13968714D01*
X4267143Y-14083000D01*
X4310000Y-14083000D01*
X4338571Y-14097286D01*
X4352857Y-14111571D01*
X4367143Y-14140143D01*
X4367143Y-14211571D01*
X4352857Y-14240143D01*
X4338571Y-14254429D01*
X4310000Y-14268714D01*
X4224286Y-14268714D01*
X4195714Y-14254429D01*
X4181428Y-14240143D01*
X4552857Y-13968714D02*
X4581428Y-13968714D01*
X4610000Y-13983000D01*
X4624286Y-13997286D01*
X4638571Y-14025857D01*
X4652857Y-14083000D01*
X4652857Y-14154429D01*
X4638571Y-14211571D01*
X4624286Y-14240143D01*
X4610000Y-14254429D01*
X4581428Y-14268714D01*
X4552857Y-14268714D01*
X4524286Y-14254429D01*
X4510000Y-14240143D01*
X4495714Y-14211571D01*
X4481428Y-14154429D01*
X4481428Y-14083000D01*
X4495714Y-14025857D01*
X4510000Y-13997286D01*
X4524286Y-13983000D01*
X4552857Y-13968714D01*
X4838571Y-13968714D02*
X4867143Y-13968714D01*
X4895714Y-13983000D01*
X4910000Y-13997286D01*
X4924286Y-14025857D01*
X4938571Y-14083000D01*
X4938571Y-14154429D01*
X4924286Y-14211571D01*
X4910000Y-14240143D01*
X4895714Y-14254429D01*
X4867143Y-14268714D01*
X4838571Y-14268714D01*
X4810000Y-14254429D01*
X4795714Y-14240143D01*
X4781428Y-14211571D01*
X4767143Y-14154429D01*
X4767143Y-14083000D01*
X4781428Y-14025857D01*
X4795714Y-13997286D01*
X4810000Y-13983000D01*
X4838571Y-13968714D01*
X5067143Y-14268714D02*
X5067143Y-14068714D01*
X5067143Y-14097286D02*
X5081428Y-14083000D01*
X5110000Y-14068714D01*
X5152857Y-14068714D01*
X5181428Y-14083000D01*
X5195714Y-14111571D01*
X5195714Y-14268714D01*
X5195714Y-14111571D02*
X5210000Y-14083000D01*
X5238571Y-14068714D01*
X5281428Y-14068714D01*
X5310000Y-14083000D01*
X5324286Y-14111571D01*
X5324286Y-14268714D01*
X5467143Y-14268714D02*
X5467143Y-14068714D01*
X5467143Y-14097286D02*
X5481428Y-14083000D01*
X5510000Y-14068714D01*
X5552857Y-14068714D01*
X5581428Y-14083000D01*
X5595714Y-14111571D01*
X5595714Y-14268714D01*
X5595714Y-14111571D02*
X5610000Y-14083000D01*
X5638571Y-14068714D01*
X5681428Y-14068714D01*
X5710000Y-14083000D01*
X5724286Y-14111571D01*
X5724286Y-14268714D01*
X6310000Y-13954429D02*
X6052857Y-14340143D01*
X6695714Y-13968714D02*
X6724286Y-13968714D01*
X6752857Y-13983000D01*
X6767143Y-13997286D01*
X6781428Y-14025857D01*
X6795714Y-14083000D01*
X6795714Y-14154429D01*
X6781428Y-14211571D01*
X6767143Y-14240143D01*
X6752857Y-14254429D01*
X6724286Y-14268714D01*
X6695714Y-14268714D01*
X6667143Y-14254429D01*
X6652857Y-14240143D01*
X6638571Y-14211571D01*
X6624286Y-14154429D01*
X6624286Y-14083000D01*
X6638571Y-14025857D01*
X6652857Y-13997286D01*
X6667143Y-13983000D01*
X6695714Y-13968714D01*
X6924286Y-14240143D02*
X6938571Y-14254429D01*
X6924286Y-14268714D01*
X6910000Y-14254429D01*
X6924286Y-14240143D01*
X6924286Y-14268714D01*
X7124286Y-13968714D02*
X7152857Y-13968714D01*
X7181428Y-13983000D01*
X7195714Y-13997286D01*
X7210000Y-14025857D01*
X7224286Y-14083000D01*
X7224286Y-14154429D01*
X7210000Y-14211571D01*
X7195714Y-14240143D01*
X7181428Y-14254429D01*
X7152857Y-14268714D01*
X7124286Y-14268714D01*
X7095714Y-14254429D01*
X7081428Y-14240143D01*
X7067143Y-14211571D01*
X7052857Y-14154429D01*
X7052857Y-14083000D01*
X7067143Y-14025857D01*
X7081428Y-13997286D01*
X7095714Y-13983000D01*
X7124286Y-13968714D01*
X7495714Y-13968714D02*
X7352857Y-13968714D01*
X7338571Y-14111571D01*
X7352857Y-14097286D01*
X7381428Y-14083000D01*
X7452857Y-14083000D01*
X7481428Y-14097286D01*
X7495714Y-14111571D01*
X7510000Y-14140143D01*
X7510000Y-14211571D01*
X7495714Y-14240143D01*
X7481428Y-14254429D01*
X7452857Y-14268714D01*
X7381428Y-14268714D01*
X7352857Y-14254429D01*
X7338571Y-14240143D01*
X7795714Y-14268714D02*
X7624286Y-14268714D01*
X7710000Y-14268714D02*
X7710000Y-13968714D01*
X7681428Y-14011571D01*
X7652857Y-14040143D01*
X7624286Y-14054429D01*
X7910000Y-13997286D02*
X7924286Y-13983000D01*
X7952857Y-13968714D01*
X8024286Y-13968714D01*
X8052857Y-13983000D01*
X8067143Y-13997286D01*
X8081428Y-14025857D01*
X8081428Y-14054429D01*
X8067143Y-14097286D01*
X7895714Y-14268714D01*
X8081428Y-14268714D01*
X8195714Y-13968714D02*
X8195714Y-14025857D01*
X8310000Y-13968714D02*
X8310000Y-14025857D01*
X8752857Y-14383000D02*
X8738571Y-14368714D01*
X8710000Y-14325857D01*
X8695714Y-14297286D01*
X8681428Y-14254429D01*
X8667143Y-14183000D01*
X8667143Y-14125857D01*
X8681428Y-14054429D01*
X8695714Y-14011571D01*
X8710000Y-13983000D01*
X8738571Y-13940143D01*
X8752857Y-13925857D01*
X8852857Y-13997286D02*
X8867143Y-13983000D01*
X8895714Y-13968714D01*
X8967143Y-13968714D01*
X8995714Y-13983000D01*
X9010000Y-13997286D01*
X9024286Y-14025857D01*
X9024286Y-14054429D01*
X9010000Y-14097286D01*
X8838571Y-14268714D01*
X9024286Y-14268714D01*
X9381428Y-14268714D02*
X9381428Y-13968714D01*
X9510000Y-14268714D02*
X9510000Y-14111571D01*
X9495714Y-14083000D01*
X9467143Y-14068714D01*
X9424286Y-14068714D01*
X9395714Y-14083000D01*
X9381428Y-14097286D01*
X9695714Y-14268714D02*
X9667143Y-14254429D01*
X9652857Y-14240143D01*
X9638571Y-14211571D01*
X9638571Y-14125857D01*
X9652857Y-14097286D01*
X9667143Y-14083000D01*
X9695714Y-14068714D01*
X9738571Y-14068714D01*
X9767143Y-14083000D01*
X9781428Y-14097286D01*
X9795714Y-14125857D01*
X9795714Y-14211571D01*
X9781428Y-14240143D01*
X9767143Y-14254429D01*
X9738571Y-14268714D01*
X9695714Y-14268714D01*
X9967143Y-14268714D02*
X9938571Y-14254429D01*
X9924286Y-14225857D01*
X9924286Y-13968714D01*
X10195714Y-14254429D02*
X10167143Y-14268714D01*
X10110000Y-14268714D01*
X10081428Y-14254429D01*
X10067143Y-14225857D01*
X10067143Y-14111571D01*
X10081428Y-14083000D01*
X10110000Y-14068714D01*
X10167143Y-14068714D01*
X10195714Y-14083000D01*
X10210000Y-14111571D01*
X10210000Y-14140143D01*
X10067143Y-14168714D01*
X10324286Y-14254429D02*
X10352857Y-14268714D01*
X10410000Y-14268714D01*
X10438571Y-14254429D01*
X10452857Y-14225857D01*
X10452857Y-14211571D01*
X10438571Y-14183000D01*
X10410000Y-14168714D01*
X10367143Y-14168714D01*
X10338571Y-14154429D01*
X10324286Y-14125857D01*
X10324286Y-14111571D01*
X10338571Y-14083000D01*
X10367143Y-14068714D01*
X10410000Y-14068714D01*
X10438571Y-14083000D01*
X10552857Y-14383000D02*
X10567143Y-14368714D01*
X10595714Y-14325857D01*
X10610000Y-14297286D01*
X10624286Y-14254429D01*
X10638571Y-14183000D01*
X10638571Y-14125857D01*
X10624286Y-14054429D01*
X10610000Y-14011571D01*
X10595714Y-13983000D01*
X10567143Y-13940143D01*
X10552857Y-13925857D01*
X3419000Y-14453000D02*
X3419000Y-14605000D01*
X3343000Y-14529000D02*
X3495000Y-14529000D01*
X3495000Y-14529000D02*
G75*
G03*
X3495000Y-14529000I-76000J0D01*
G01*
X3938571Y-14664714D02*
X3767143Y-14664714D01*
X3852857Y-14664714D02*
X3852857Y-14364714D01*
X3824286Y-14407571D01*
X3795714Y-14436143D01*
X3767143Y-14450429D01*
X4067143Y-14636143D02*
X4081428Y-14650429D01*
X4067143Y-14664714D01*
X4052857Y-14650429D01*
X4067143Y-14636143D01*
X4067143Y-14664714D01*
X4352857Y-14364714D02*
X4210000Y-14364714D01*
X4195714Y-14507571D01*
X4210000Y-14493286D01*
X4238571Y-14479000D01*
X4310000Y-14479000D01*
X4338571Y-14493286D01*
X4352857Y-14507571D01*
X4367143Y-14536143D01*
X4367143Y-14607571D01*
X4352857Y-14636143D01*
X4338571Y-14650429D01*
X4310000Y-14664714D01*
X4238571Y-14664714D01*
X4210000Y-14650429D01*
X4195714Y-14636143D01*
X4481428Y-14393286D02*
X4495714Y-14379000D01*
X4524286Y-14364714D01*
X4595714Y-14364714D01*
X4624286Y-14379000D01*
X4638571Y-14393286D01*
X4652857Y-14421857D01*
X4652857Y-14450429D01*
X4638571Y-14493286D01*
X4467143Y-14664714D01*
X4652857Y-14664714D01*
X4838571Y-14364714D02*
X4867143Y-14364714D01*
X4895714Y-14379000D01*
X4910000Y-14393286D01*
X4924286Y-14421857D01*
X4938571Y-14479000D01*
X4938571Y-14550429D01*
X4924286Y-14607571D01*
X4910000Y-14636143D01*
X4895714Y-14650429D01*
X4867143Y-14664714D01*
X4838571Y-14664714D01*
X4810000Y-14650429D01*
X4795714Y-14636143D01*
X4781428Y-14607571D01*
X4767143Y-14550429D01*
X4767143Y-14479000D01*
X4781428Y-14421857D01*
X4795714Y-14393286D01*
X4810000Y-14379000D01*
X4838571Y-14364714D01*
X5067143Y-14664714D02*
X5067143Y-14464714D01*
X5067143Y-14493286D02*
X5081428Y-14479000D01*
X5110000Y-14464714D01*
X5152857Y-14464714D01*
X5181428Y-14479000D01*
X5195714Y-14507571D01*
X5195714Y-14664714D01*
X5195714Y-14507571D02*
X5210000Y-14479000D01*
X5238571Y-14464714D01*
X5281428Y-14464714D01*
X5310000Y-14479000D01*
X5324286Y-14507571D01*
X5324286Y-14664714D01*
X5467143Y-14664714D02*
X5467143Y-14464714D01*
X5467143Y-14493286D02*
X5481428Y-14479000D01*
X5510000Y-14464714D01*
X5552857Y-14464714D01*
X5581428Y-14479000D01*
X5595714Y-14507571D01*
X5595714Y-14664714D01*
X5595714Y-14507571D02*
X5610000Y-14479000D01*
X5638571Y-14464714D01*
X5681428Y-14464714D01*
X5710000Y-14479000D01*
X5724286Y-14507571D01*
X5724286Y-14664714D01*
X6310000Y-14350429D02*
X6052857Y-14736143D01*
X6695714Y-14364714D02*
X6724286Y-14364714D01*
X6752857Y-14379000D01*
X6767143Y-14393286D01*
X6781428Y-14421857D01*
X6795714Y-14479000D01*
X6795714Y-14550429D01*
X6781428Y-14607571D01*
X6767143Y-14636143D01*
X6752857Y-14650429D01*
X6724286Y-14664714D01*
X6695714Y-14664714D01*
X6667143Y-14650429D01*
X6652857Y-14636143D01*
X6638571Y-14607571D01*
X6624286Y-14550429D01*
X6624286Y-14479000D01*
X6638571Y-14421857D01*
X6652857Y-14393286D01*
X6667143Y-14379000D01*
X6695714Y-14364714D01*
X6924286Y-14636143D02*
X6938571Y-14650429D01*
X6924286Y-14664714D01*
X6910000Y-14650429D01*
X6924286Y-14636143D01*
X6924286Y-14664714D01*
X7124286Y-14364714D02*
X7152857Y-14364714D01*
X7181428Y-14379000D01*
X7195714Y-14393286D01*
X7210000Y-14421857D01*
X7224286Y-14479000D01*
X7224286Y-14550429D01*
X7210000Y-14607571D01*
X7195714Y-14636143D01*
X7181428Y-14650429D01*
X7152857Y-14664714D01*
X7124286Y-14664714D01*
X7095714Y-14650429D01*
X7081428Y-14636143D01*
X7067143Y-14607571D01*
X7052857Y-14550429D01*
X7052857Y-14479000D01*
X7067143Y-14421857D01*
X7081428Y-14393286D01*
X7095714Y-14379000D01*
X7124286Y-14364714D01*
X7495714Y-14364714D02*
X7352857Y-14364714D01*
X7338571Y-14507571D01*
X7352857Y-14493286D01*
X7381428Y-14479000D01*
X7452857Y-14479000D01*
X7481428Y-14493286D01*
X7495714Y-14507571D01*
X7510000Y-14536143D01*
X7510000Y-14607571D01*
X7495714Y-14636143D01*
X7481428Y-14650429D01*
X7452857Y-14664714D01*
X7381428Y-14664714D01*
X7352857Y-14650429D01*
X7338571Y-14636143D01*
X7652857Y-14664714D02*
X7710000Y-14664714D01*
X7738571Y-14650429D01*
X7752857Y-14636143D01*
X7781428Y-14593286D01*
X7795714Y-14536143D01*
X7795714Y-14421857D01*
X7781428Y-14393286D01*
X7767143Y-14379000D01*
X7738571Y-14364714D01*
X7681428Y-14364714D01*
X7652857Y-14379000D01*
X7638571Y-14393286D01*
X7624286Y-14421857D01*
X7624286Y-14493286D01*
X7638571Y-14521857D01*
X7652857Y-14536143D01*
X7681428Y-14550429D01*
X7738571Y-14550429D01*
X7767143Y-14536143D01*
X7781428Y-14521857D01*
X7795714Y-14493286D01*
X7967143Y-14493286D02*
X7938571Y-14479000D01*
X7924286Y-14464714D01*
X7910000Y-14436143D01*
X7910000Y-14421857D01*
X7924286Y-14393286D01*
X7938571Y-14379000D01*
X7967143Y-14364714D01*
X8024286Y-14364714D01*
X8052857Y-14379000D01*
X8067143Y-14393286D01*
X8081428Y-14421857D01*
X8081428Y-14436143D01*
X8067143Y-14464714D01*
X8052857Y-14479000D01*
X8024286Y-14493286D01*
X7967143Y-14493286D01*
X7938571Y-14507571D01*
X7924286Y-14521857D01*
X7910000Y-14550429D01*
X7910000Y-14607571D01*
X7924286Y-14636143D01*
X7938571Y-14650429D01*
X7967143Y-14664714D01*
X8024286Y-14664714D01*
X8052857Y-14650429D01*
X8067143Y-14636143D01*
X8081428Y-14607571D01*
X8081428Y-14550429D01*
X8067143Y-14521857D01*
X8052857Y-14507571D01*
X8024286Y-14493286D01*
X8195714Y-14364714D02*
X8195714Y-14421857D01*
X8310000Y-14364714D02*
X8310000Y-14421857D01*
X8752857Y-14779000D02*
X8738571Y-14764714D01*
X8710000Y-14721857D01*
X8695714Y-14693286D01*
X8681428Y-14650429D01*
X8667143Y-14579000D01*
X8667143Y-14521857D01*
X8681428Y-14450429D01*
X8695714Y-14407571D01*
X8710000Y-14379000D01*
X8738571Y-14336143D01*
X8752857Y-14321857D01*
X8838571Y-14364714D02*
X9024286Y-14364714D01*
X8924286Y-14479000D01*
X8967143Y-14479000D01*
X8995714Y-14493286D01*
X9010000Y-14507571D01*
X9024286Y-14536143D01*
X9024286Y-14607571D01*
X9010000Y-14636143D01*
X8995714Y-14650429D01*
X8967143Y-14664714D01*
X8881428Y-14664714D01*
X8852857Y-14650429D01*
X8838571Y-14636143D01*
X9210000Y-14364714D02*
X9238571Y-14364714D01*
X9267143Y-14379000D01*
X9281428Y-14393286D01*
X9295714Y-14421857D01*
X9310000Y-14479000D01*
X9310000Y-14550429D01*
X9295714Y-14607571D01*
X9281428Y-14636143D01*
X9267143Y-14650429D01*
X9238571Y-14664714D01*
X9210000Y-14664714D01*
X9181428Y-14650429D01*
X9167143Y-14636143D01*
X9152857Y-14607571D01*
X9138571Y-14550429D01*
X9138571Y-14479000D01*
X9152857Y-14421857D01*
X9167143Y-14393286D01*
X9181428Y-14379000D01*
X9210000Y-14364714D01*
X9667143Y-14664714D02*
X9667143Y-14364714D01*
X9795714Y-14664714D02*
X9795714Y-14507571D01*
X9781428Y-14479000D01*
X9752857Y-14464714D01*
X9710000Y-14464714D01*
X9681428Y-14479000D01*
X9667143Y-14493286D01*
X9981428Y-14664714D02*
X9952857Y-14650429D01*
X9938571Y-14636143D01*
X9924286Y-14607571D01*
X9924286Y-14521857D01*
X9938571Y-14493286D01*
X9952857Y-14479000D01*
X9981428Y-14464714D01*
X10024286Y-14464714D01*
X10052857Y-14479000D01*
X10067143Y-14493286D01*
X10081428Y-14521857D01*
X10081428Y-14607571D01*
X10067143Y-14636143D01*
X10052857Y-14650429D01*
X10024286Y-14664714D01*
X9981428Y-14664714D01*
X10252857Y-14664714D02*
X10224286Y-14650429D01*
X10210000Y-14621857D01*
X10210000Y-14364714D01*
X10481428Y-14650429D02*
X10452857Y-14664714D01*
X10395714Y-14664714D01*
X10367143Y-14650429D01*
X10352857Y-14621857D01*
X10352857Y-14507571D01*
X10367143Y-14479000D01*
X10395714Y-14464714D01*
X10452857Y-14464714D01*
X10481428Y-14479000D01*
X10495714Y-14507571D01*
X10495714Y-14536143D01*
X10352857Y-14564714D01*
X10610000Y-14650429D02*
X10638571Y-14664714D01*
X10695714Y-14664714D01*
X10724286Y-14650429D01*
X10738571Y-14621857D01*
X10738571Y-14607571D01*
X10724286Y-14579000D01*
X10695714Y-14564714D01*
X10652857Y-14564714D01*
X10624286Y-14550429D01*
X10610000Y-14521857D01*
X10610000Y-14507571D01*
X10624286Y-14479000D01*
X10652857Y-14464714D01*
X10695714Y-14464714D01*
X10724286Y-14479000D01*
X10838571Y-14779000D02*
X10852857Y-14764714D01*
X10881428Y-14721857D01*
X10895714Y-14693286D01*
X10910000Y-14650429D01*
X10924286Y-14579000D01*
X10924286Y-14521857D01*
X10910000Y-14450429D01*
X10895714Y-14407571D01*
X10881428Y-14379000D01*
X10852857Y-14336143D01*
X10838571Y-14321857D01*
M02*
