G04 #@! TF.GenerationSoftware,KiCad,Pcbnew,(5.1.10)-1*
G04 #@! TF.CreationDate,2021-12-14T18:47:07+01:00*
G04 #@! TF.ProjectId,main_board,6d61696e-5f62-46f6-9172-642e6b696361,rev?*
G04 #@! TF.SameCoordinates,Original*
G04 #@! TF.FileFunction,Legend,Bot*
G04 #@! TF.FilePolarity,Positive*
%FSLAX46Y46*%
G04 Gerber Fmt 4.6, Leading zero omitted, Abs format (unit mm)*
G04 Created by KiCad (PCBNEW (5.1.10)-1) date 2021-12-14 18:47:07*
%MOMM*%
%LPD*%
G01*
G04 APERTURE LIST*
%ADD10C,1.560000*%
%ADD11R,1.560000X1.560000*%
%ADD12C,1.600000*%
%ADD13R,1.600000X1.600000*%
%ADD14O,2.240000X2.240000*%
%ADD15R,2.240000X2.240000*%
%ADD16C,3.000000*%
%ADD17R,3.000000X3.000000*%
%ADD18C,3.200000*%
%ADD19O,1.700000X1.700000*%
%ADD20R,1.700000X1.700000*%
%ADD21R,1.500000X1.500000*%
%ADD22C,1.500000*%
%ADD23O,1.905000X2.000000*%
%ADD24R,1.905000X2.000000*%
%ADD25C,2.700000*%
%ADD26C,1.800000*%
%ADD27R,1.800000X1.800000*%
%ADD28C,1.200000*%
%ADD29R,1.200000X1.200000*%
%ADD30O,1.600000X1.600000*%
G04 APERTURE END LIST*
%LPC*%
D10*
X67310000Y-15240000D03*
X67310000Y-17780000D03*
X67310000Y-20320000D03*
X67310000Y-22860000D03*
X67310000Y-25400000D03*
X67310000Y-27940000D03*
X67310000Y-30480000D03*
X67310000Y-33020000D03*
X67310000Y-35560000D03*
X67310000Y-38100000D03*
X67310000Y-40640000D03*
X67310000Y-43180000D03*
X67310000Y-45720000D03*
X67310000Y-48260000D03*
X67310000Y-50800000D03*
X67310000Y-53340000D03*
X67310000Y-55880000D03*
X67310000Y-58420000D03*
X67310000Y-60960000D03*
X92710000Y-17780000D03*
X92710000Y-20320000D03*
X92710000Y-22860000D03*
X92710000Y-25400000D03*
X92710000Y-27940000D03*
X92710000Y-30480000D03*
X92710000Y-33020000D03*
X92710000Y-35560000D03*
X92710000Y-38100000D03*
X92710000Y-40640000D03*
X92710000Y-43180000D03*
X92710000Y-45720000D03*
X92710000Y-48260000D03*
X92710000Y-50800000D03*
X92710000Y-53340000D03*
X92710000Y-55880000D03*
X92710000Y-15240000D03*
X92710000Y-58420000D03*
D11*
X92710000Y-60960000D03*
D12*
X129500000Y-24130000D03*
D13*
X127000000Y-24130000D03*
D14*
X151130000Y-45720000D03*
D15*
X151130000Y-48260000D03*
D14*
X129540000Y-17000000D03*
D15*
X127000000Y-17000000D03*
D14*
X140970000Y-86360000D03*
D15*
X143510000Y-86360000D03*
D14*
X130810000Y-86360000D03*
D15*
X133350000Y-86360000D03*
D14*
X120650000Y-86360000D03*
D15*
X123190000Y-86360000D03*
D14*
X110490000Y-86360000D03*
D15*
X113030000Y-86360000D03*
D14*
X100330000Y-86360000D03*
D15*
X102870000Y-86360000D03*
D14*
X90170000Y-86360000D03*
D15*
X92710000Y-86360000D03*
D14*
X163830000Y-26670000D03*
D15*
X166370000Y-26670000D03*
D14*
X163830000Y-36830000D03*
D15*
X166370000Y-36830000D03*
D14*
X163830000Y-46990000D03*
D15*
X166370000Y-46990000D03*
D14*
X163830000Y-57150000D03*
D15*
X166370000Y-57150000D03*
D14*
X163830000Y-67310000D03*
D15*
X166370000Y-67310000D03*
D14*
X163830000Y-77470000D03*
D15*
X166370000Y-77470000D03*
D16*
X167640000Y-19050000D03*
D17*
X162560000Y-19050000D03*
D16*
X76200000Y-93980000D03*
D17*
X81280000Y-93980000D03*
D16*
X66040000Y-93980000D03*
D17*
X71120000Y-93980000D03*
D16*
X140970000Y-93980000D03*
D17*
X146050000Y-93980000D03*
D16*
X130810000Y-93980000D03*
D17*
X135890000Y-93980000D03*
D16*
X120650000Y-93980000D03*
D17*
X125730000Y-93980000D03*
D16*
X110490000Y-93980000D03*
D17*
X115570000Y-93980000D03*
D16*
X100330000Y-93980000D03*
D17*
X105410000Y-93980000D03*
D16*
X90170000Y-93980000D03*
D17*
X95250000Y-93980000D03*
D16*
X173990000Y-33020000D03*
D17*
X173990000Y-27940000D03*
D16*
X173990000Y-43180000D03*
D17*
X173990000Y-38100000D03*
D16*
X173990000Y-53340000D03*
D17*
X173990000Y-48260000D03*
D16*
X173990000Y-63500000D03*
D17*
X173990000Y-58420000D03*
D16*
X173990000Y-73660000D03*
D17*
X173990000Y-68580000D03*
D16*
X173990000Y-83820000D03*
D17*
X173990000Y-78740000D03*
D18*
X175260000Y-95250000D03*
X40000000Y-95250000D03*
X40000000Y-18000000D03*
X175000000Y-18000000D03*
D19*
X142240000Y-64770000D03*
X142240000Y-62230000D03*
X142240000Y-59690000D03*
X142240000Y-57150000D03*
D20*
X142240000Y-54610000D03*
D21*
X140970000Y-81280000D03*
D22*
X146050000Y-81280000D03*
X143510000Y-81280000D03*
D21*
X130810000Y-81280000D03*
D22*
X135890000Y-81280000D03*
X133350000Y-81280000D03*
D21*
X120650000Y-81280000D03*
D22*
X125730000Y-81280000D03*
X123190000Y-81280000D03*
D21*
X110490000Y-81280000D03*
D22*
X115570000Y-81280000D03*
X113030000Y-81280000D03*
D21*
X100330000Y-81280000D03*
D22*
X105410000Y-81280000D03*
X102870000Y-81280000D03*
D21*
X90170000Y-81280000D03*
D22*
X95250000Y-81280000D03*
X92710000Y-81280000D03*
D23*
X165100000Y-33020000D03*
X162560000Y-33020000D03*
D24*
X160020000Y-33020000D03*
D23*
X165100000Y-43180000D03*
X162560000Y-43180000D03*
D24*
X160020000Y-43180000D03*
D23*
X165100000Y-53340000D03*
X162560000Y-53340000D03*
D24*
X160020000Y-53340000D03*
D23*
X165100000Y-63500000D03*
X162560000Y-63500000D03*
D24*
X160020000Y-63500000D03*
D23*
X165100000Y-73660000D03*
X162560000Y-73660000D03*
D24*
X160020000Y-73660000D03*
D23*
X165100000Y-83820000D03*
X162560000Y-83820000D03*
D24*
X160020000Y-83820000D03*
D19*
X149860000Y-36830000D03*
D20*
X149860000Y-39370000D03*
D19*
X147320000Y-36830000D03*
D20*
X147320000Y-39370000D03*
D19*
X144780000Y-36830000D03*
D20*
X144780000Y-39370000D03*
D19*
X137160000Y-27940000D03*
D20*
X137160000Y-30480000D03*
D19*
X139700000Y-27940000D03*
D20*
X139700000Y-30480000D03*
D19*
X142240000Y-27940000D03*
D20*
X142240000Y-30480000D03*
D19*
X118110000Y-27940000D03*
X118110000Y-25400000D03*
X118110000Y-22860000D03*
D20*
X118110000Y-20320000D03*
D19*
X119380000Y-34290000D03*
X119380000Y-36830000D03*
D20*
X119380000Y-39370000D03*
D19*
X142240000Y-36830000D03*
D20*
X142240000Y-39370000D03*
D19*
X139700000Y-36830000D03*
D20*
X139700000Y-39370000D03*
D19*
X137160000Y-36830000D03*
D20*
X137160000Y-39370000D03*
D19*
X144780000Y-27940000D03*
D20*
X144780000Y-30480000D03*
D19*
X147320000Y-27940000D03*
D20*
X147320000Y-30480000D03*
D19*
X149860000Y-27940000D03*
D20*
X149860000Y-30480000D03*
D19*
X132080000Y-31750000D03*
X132080000Y-34290000D03*
X132080000Y-36830000D03*
D20*
X132080000Y-39370000D03*
D19*
X102870000Y-17780000D03*
X102870000Y-20320000D03*
X102870000Y-22860000D03*
X102870000Y-25400000D03*
D20*
X102870000Y-27940000D03*
D19*
X129540000Y-64770000D03*
X129540000Y-62230000D03*
X129540000Y-59690000D03*
D20*
X129540000Y-57150000D03*
D19*
X106680000Y-45720000D03*
X106680000Y-48260000D03*
D20*
X106680000Y-50800000D03*
D19*
X118110000Y-45720000D03*
X118110000Y-48260000D03*
X118110000Y-50800000D03*
D20*
X118110000Y-53340000D03*
D19*
X120650000Y-45720000D03*
X120650000Y-48260000D03*
X120650000Y-50800000D03*
D20*
X120650000Y-53340000D03*
D19*
X123190000Y-45720000D03*
X123190000Y-48260000D03*
X123190000Y-50800000D03*
D20*
X123190000Y-53340000D03*
D19*
X125730000Y-45720000D03*
X125730000Y-48260000D03*
X125730000Y-50800000D03*
D20*
X125730000Y-53340000D03*
D19*
X40640000Y-80010000D03*
X40640000Y-82550000D03*
X40640000Y-85090000D03*
D20*
X40640000Y-87630000D03*
D19*
X40640000Y-63500000D03*
X40640000Y-66040000D03*
X40640000Y-68580000D03*
D20*
X40640000Y-71120000D03*
D19*
X40640000Y-41910000D03*
X40640000Y-44450000D03*
X40640000Y-46990000D03*
D20*
X40640000Y-49530000D03*
X40640000Y-33020000D03*
D19*
X40640000Y-30480000D03*
X40640000Y-27940000D03*
X40640000Y-25400000D03*
D16*
X157480000Y-19050000D03*
X134980000Y-19050000D03*
D25*
X146230000Y-19050000D03*
D26*
X138430000Y-46990000D03*
D27*
X135890000Y-46990000D03*
D12*
X109220000Y-20280000D03*
D13*
X109220000Y-17780000D03*
D12*
X113030000Y-38100000D03*
D13*
X113030000Y-40600000D03*
D12*
X144780000Y-48260000D03*
D13*
X142280000Y-48260000D03*
D12*
X100330000Y-49570000D03*
D13*
X100330000Y-52070000D03*
D12*
X82550000Y-78780000D03*
D13*
X82550000Y-81280000D03*
D12*
X72390000Y-78740000D03*
D13*
X72390000Y-81240000D03*
D28*
X110490000Y-64540000D03*
D29*
X110490000Y-66040000D03*
D13*
X50800000Y-93980000D03*
D12*
X53300000Y-93980000D03*
X53340000Y-72390000D03*
D13*
X50840000Y-72390000D03*
D12*
X53340000Y-50800000D03*
D13*
X50840000Y-50800000D03*
D12*
X53300000Y-29210000D03*
D13*
X50800000Y-29210000D03*
D30*
X58420000Y-80010000D03*
X45720000Y-97790000D03*
X58420000Y-82550000D03*
X45720000Y-95250000D03*
X58420000Y-85090000D03*
X45720000Y-92710000D03*
X58420000Y-87630000D03*
X45720000Y-90170000D03*
X58420000Y-90170000D03*
X45720000Y-87630000D03*
X58420000Y-92710000D03*
X45720000Y-85090000D03*
X58420000Y-95250000D03*
X45720000Y-82550000D03*
X58420000Y-97790000D03*
D13*
X45720000Y-80010000D03*
D30*
X58420000Y-58420000D03*
X45720000Y-76200000D03*
X58420000Y-60960000D03*
X45720000Y-73660000D03*
X58420000Y-63500000D03*
X45720000Y-71120000D03*
X58420000Y-66040000D03*
X45720000Y-68580000D03*
X58420000Y-68580000D03*
X45720000Y-66040000D03*
X58420000Y-71120000D03*
X45720000Y-63500000D03*
X58420000Y-73660000D03*
X45720000Y-60960000D03*
X58420000Y-76200000D03*
D13*
X45720000Y-58420000D03*
D30*
X58420000Y-36830000D03*
X45720000Y-54610000D03*
X58420000Y-39370000D03*
X45720000Y-52070000D03*
X58420000Y-41910000D03*
X45720000Y-49530000D03*
X58420000Y-44450000D03*
X45720000Y-46990000D03*
X58420000Y-46990000D03*
X45720000Y-44450000D03*
X58420000Y-49530000D03*
X45720000Y-41910000D03*
X58420000Y-52070000D03*
X45720000Y-39370000D03*
X58420000Y-54610000D03*
D13*
X45720000Y-36830000D03*
D30*
X58420000Y-15240000D03*
X45720000Y-33020000D03*
X58420000Y-17780000D03*
X45720000Y-30480000D03*
X58420000Y-20320000D03*
X45720000Y-27940000D03*
X58420000Y-22860000D03*
X45720000Y-25400000D03*
X58420000Y-25400000D03*
X45720000Y-22860000D03*
X58420000Y-27940000D03*
X45720000Y-20320000D03*
X58420000Y-30480000D03*
X45720000Y-17780000D03*
X58420000Y-33020000D03*
D13*
X45720000Y-15240000D03*
M02*
