M48
; DRILL file {KiCad (5.1.10)-1} date 12/15/21 20:43:37
; FORMAT={-:-/ absolute / metric / decimal}
; #@! TF.CreationDate,2021-12-15T20:43:37+01:00
; #@! TF.GenerationSoftware,Kicad,Pcbnew,(5.1.10)-1
; #@! TF.FileFunction,Plated,1,2,PTH
FMAT,2
METRIC
T1C0.400
T2C0.800
T3C0.900
T4C1.000
T5C1.040
T6C1.100
T7C1.200
T8C1.300
T9C1.520
%
G90
G05
T1
X38.1Y-36.83
X39.37Y-76.2
X48.26Y-66.04
X62.23Y-27.94
X62.23Y-39.37
X63.5Y-34.29
X63.5Y-54.61
X69.85Y-27.94
X69.85Y-53.34
X74.93Y-29.21
X74.93Y-58.42
X80.01Y-36.83
X80.01Y-62.23
X81.182Y-82.54
X85.09Y-45.72
X87.63Y-41.91
X94.886Y-46.109
X94.886Y-47.11
X95.022Y-78.025
X96.853Y-73.428
X97.79Y-29.21
X99.06Y-34.29
X103.33Y-60.737
X103.505Y-73.66
X103.54Y-55.992
X104.14Y-31.75
X105.186Y-78.026
X110.49Y-55.88
X111.76Y-49.53
X112.484Y-51.105
X112.722Y-63.123
X114.078Y-49.155
X114.166Y-57.68
X114.3Y-50.8
X114.774Y-62.039
X115.173Y-59.659
X115.57Y-16.51
X116.014Y-78.037
X117.92Y-63.099
X118.134Y-61.744
X118.647Y-63.839
X121.92Y-71.12
X123.19Y-41.91
X125.807Y-78.024
X129.54Y-43.18
X132.08Y-62.23
X134.62Y-64.77
X135.07Y-78.045
X139.189Y-63.647
X145.94Y-78.015
X157.495Y-77.554
T2
X45.72Y-15.24
X45.72Y-17.78
X45.72Y-20.32
X45.72Y-22.86
X45.72Y-25.4
X45.72Y-27.94
X45.72Y-30.48
X45.72Y-33.02
X45.72Y-36.83
X45.72Y-39.37
X45.72Y-41.91
X45.72Y-44.45
X45.72Y-46.99
X45.72Y-49.53
X45.72Y-52.07
X45.72Y-54.61
X45.72Y-58.42
X45.72Y-60.96
X45.72Y-63.5
X45.72Y-66.04
X45.72Y-68.58
X45.72Y-71.12
X45.72Y-73.66
X45.72Y-76.2
X45.72Y-80.01
X45.72Y-82.55
X45.72Y-85.09
X45.72Y-87.63
X45.72Y-90.17
X45.72Y-92.71
X45.72Y-95.25
X45.72Y-97.79
X50.8Y-29.21
X50.8Y-93.98
X50.84Y-50.8
X50.84Y-72.39
X53.3Y-29.21
X53.3Y-93.98
X53.34Y-50.8
X53.34Y-72.39
X58.42Y-15.24
X58.42Y-17.78
X58.42Y-20.32
X58.42Y-22.86
X58.42Y-25.4
X58.42Y-27.94
X58.42Y-30.48
X58.42Y-33.02
X58.42Y-36.83
X58.42Y-39.37
X58.42Y-41.91
X58.42Y-44.45
X58.42Y-46.99
X58.42Y-49.53
X58.42Y-52.07
X58.42Y-54.61
X58.42Y-58.42
X58.42Y-60.96
X58.42Y-63.5
X58.42Y-66.04
X58.42Y-68.58
X58.42Y-71.12
X58.42Y-73.66
X58.42Y-76.2
X58.42Y-80.01
X58.42Y-82.55
X58.42Y-85.09
X58.42Y-87.63
X58.42Y-90.17
X58.42Y-92.71
X58.42Y-95.25
X58.42Y-97.79
X71.12Y-80.01
X73.62Y-80.01
X81.28Y-80.01
X83.78Y-80.01
X90.17Y-81.28
X92.71Y-81.28
X95.25Y-81.28
X100.33Y-49.53
X100.33Y-52.03
X100.33Y-81.28
X102.87Y-81.28
X105.41Y-81.28
X106.68Y-66.08
X106.68Y-68.58
X107.99Y-19.05
X110.49Y-19.05
X110.49Y-81.28
X113.03Y-38.1
X113.03Y-40.6
X113.03Y-81.28
X115.57Y-81.28
X120.65Y-81.28
X123.19Y-81.28
X125.73Y-81.28
X127.0Y-25.4
X129.5Y-25.4
X130.81Y-81.28
X133.35Y-81.28
X135.89Y-81.28
X140.97Y-81.28
X142.28Y-48.26
X143.51Y-81.28
X144.78Y-48.26
X146.05Y-81.28
T3
X135.89Y-45.72
X135.89Y-53.34
X138.43Y-45.72
X138.43Y-53.34
T4
X40.64Y-25.4
X40.64Y-27.94
X40.64Y-30.48
X40.64Y-33.02
X40.64Y-41.91
X40.64Y-44.45
X40.64Y-46.99
X40.64Y-49.53
X40.64Y-63.5
X40.64Y-66.04
X40.64Y-68.58
X40.64Y-71.12
X40.64Y-80.01
X40.64Y-82.55
X40.64Y-85.09
X40.64Y-87.63
X102.87Y-17.78
X102.87Y-20.32
X102.87Y-22.86
X102.87Y-25.4
X102.87Y-27.94
X106.68Y-45.72
X106.68Y-48.26
X106.68Y-50.8
X106.68Y-53.34
X118.11Y-19.05
X118.11Y-21.59
X118.11Y-24.13
X118.11Y-26.67
X118.11Y-45.72
X118.11Y-48.26
X118.11Y-50.8
X118.11Y-53.34
X119.38Y-33.02
X119.38Y-35.56
X119.38Y-38.1
X119.38Y-40.64
X120.65Y-45.72
X120.65Y-48.26
X120.65Y-50.8
X120.65Y-53.34
X123.19Y-45.72
X123.19Y-48.26
X123.19Y-50.8
X123.19Y-53.34
X125.73Y-45.72
X125.73Y-48.26
X125.73Y-50.8
X125.73Y-53.34
X129.54Y-57.15
X129.54Y-59.69
X129.54Y-62.23
X129.54Y-64.77
X132.08Y-31.75
X132.08Y-34.29
X132.08Y-36.83
X132.08Y-39.37
X137.16Y-27.94
X137.16Y-30.48
X137.16Y-36.83
X137.16Y-39.37
X139.7Y-27.94
X139.7Y-30.48
X139.7Y-36.83
X139.7Y-39.37
X142.24Y-27.94
X142.24Y-30.48
X142.24Y-36.83
X142.24Y-39.37
X142.24Y-55.88
X142.24Y-58.42
X142.24Y-60.96
X142.24Y-63.5
X142.24Y-66.04
X144.78Y-27.94
X144.78Y-30.48
X144.78Y-36.83
X144.78Y-39.37
X147.32Y-27.94
X147.32Y-30.48
X147.32Y-36.83
X147.32Y-39.37
X149.86Y-27.94
X149.86Y-30.48
X149.86Y-36.83
X149.86Y-39.37
T5
X67.31Y-15.24
X67.31Y-17.78
X67.31Y-20.32
X67.31Y-22.86
X67.31Y-25.4
X67.31Y-27.94
X67.31Y-30.48
X67.31Y-33.02
X67.31Y-35.56
X67.31Y-38.1
X67.31Y-40.64
X67.31Y-43.18
X67.31Y-45.72
X67.31Y-48.26
X67.31Y-50.8
X67.31Y-53.34
X67.31Y-55.88
X67.31Y-58.42
X67.31Y-60.96
X92.71Y-15.24
X92.71Y-17.78
X92.71Y-20.32
X92.71Y-22.86
X92.71Y-25.4
X92.71Y-27.94
X92.71Y-30.48
X92.71Y-33.02
X92.71Y-35.56
X92.71Y-38.1
X92.71Y-40.64
X92.71Y-43.18
X92.71Y-45.72
X92.71Y-48.26
X92.71Y-50.8
X92.71Y-53.34
X92.71Y-55.88
X92.71Y-58.42
X92.71Y-60.96
T6
X160.02Y-33.02
X160.02Y-43.18
X160.02Y-53.34
X160.02Y-63.5
X160.02Y-73.66
X160.02Y-83.82
X162.56Y-33.02
X162.56Y-43.18
X162.56Y-53.34
X162.56Y-63.5
X162.56Y-73.66
X162.56Y-83.82
X165.1Y-33.02
X165.1Y-43.18
X165.1Y-53.34
X165.1Y-63.5
X165.1Y-73.66
X165.1Y-83.82
T7
X90.17Y-86.36
X92.71Y-86.36
X100.33Y-86.36
X102.87Y-86.36
X110.49Y-86.36
X113.03Y-86.36
X120.65Y-86.36
X123.19Y-86.36
X127.0Y-17.0
X129.54Y-17.0
X130.81Y-86.36
X133.35Y-86.36
X140.97Y-86.36
X143.51Y-86.36
X151.13Y-45.72
X151.13Y-48.26
X163.83Y-26.67
X163.83Y-36.83
X163.83Y-46.99
X163.83Y-57.15
X163.83Y-67.31
X163.83Y-77.47
X166.37Y-26.67
X166.37Y-36.83
X166.37Y-46.99
X166.37Y-57.15
X166.37Y-67.31
X166.37Y-77.47
T8
X134.98Y-19.05
X157.48Y-19.05
T9
X66.04Y-93.98
X71.12Y-93.98
X76.2Y-93.98
X81.28Y-93.98
X90.17Y-93.98
X95.25Y-93.98
X100.33Y-93.98
X105.41Y-93.98
X110.49Y-93.98
X115.57Y-93.98
X120.65Y-93.98
X125.73Y-93.98
X130.81Y-93.98
X135.89Y-93.98
X140.97Y-93.98
X146.05Y-93.98
X162.56Y-19.05
X167.64Y-19.05
X173.99Y-27.94
X173.99Y-33.02
X173.99Y-38.1
X173.99Y-43.18
X173.99Y-48.26
X173.99Y-53.34
X173.99Y-58.42
X173.99Y-63.5
X173.99Y-68.58
X173.99Y-73.66
X173.99Y-78.74
X173.99Y-83.82
T0
M30
