M48
; DRILL file {KiCad (5.1.10)-1} date 12/14/21 18:48:26
; FORMAT={-:-/ absolute / metric / decimal}
; #@! TF.CreationDate,2021-12-14T18:48:26+01:00
; #@! TF.GenerationSoftware,Kicad,Pcbnew,(5.1.10)-1
; #@! TF.FileFunction,Plated,1,2,PTH
FMAT,2
METRIC
T1C0.400
T2C0.600
T3C0.800
T4C0.900
T5C1.000
T6C1.040
T7C1.100
T8C1.200
T9C1.300
T10C1.520
%
G90
G05
T1
X52.07Y-19.05
X53.34Y-40.64
X54.61Y-63.5
X54.61Y-86.36
X63.0Y-36.83
X63.0Y-43.0
X63.0Y-52.07
X63.0Y-64.77
X64.77Y-57.15
X68.983Y-61.569
X72.39Y-20.32
X74.93Y-27.94
X74.93Y-44.45
X76.2Y-71.12
X78.74Y-53.34
X81.28Y-21.59
X81.28Y-36.83
X81.28Y-49.53
X82.55Y-63.5
X83.82Y-27.94
X83.82Y-58.42
X85.09Y-55.88
X86.36Y-53.34
X88.254Y-50.694
X90.17Y-49.53
X93.98Y-71.12
X96.52Y-16.51
X96.52Y-16.51
X96.52Y-25.4
X96.52Y-50.8
X97.79Y-57.15
X99.06Y-40.64
X99.06Y-64.77
X100.33Y-55.88
X102.412Y-57.378
X104.14Y-33.02
X108.442Y-61.226
X109.22Y-52.07
X111.76Y-54.61
X114.3Y-22.86
X114.871Y-63.205
X115.57Y-55.88
X121.92Y-17.78
X125.73Y-38.1
X128.27Y-30.48
X130.81Y-49.53
X134.62Y-71.12
X135.89Y-53.34
X136.228Y-59.993
X144.78Y-71.12
X149.86Y-53.34
X151.13Y-68.58
X151.13Y-80.01
X168.91Y-96.52
X170.18Y-24.13
T2
X110.49Y-64.54
X110.49Y-66.04
T3
X45.72Y-15.24
X45.72Y-17.78
X45.72Y-20.32
X45.72Y-22.86
X45.72Y-25.4
X45.72Y-27.94
X45.72Y-30.48
X45.72Y-33.02
X45.72Y-36.83
X45.72Y-39.37
X45.72Y-41.91
X45.72Y-44.45
X45.72Y-46.99
X45.72Y-49.53
X45.72Y-52.07
X45.72Y-54.61
X45.72Y-58.42
X45.72Y-60.96
X45.72Y-63.5
X45.72Y-66.04
X45.72Y-68.58
X45.72Y-71.12
X45.72Y-73.66
X45.72Y-76.2
X45.72Y-80.01
X45.72Y-82.55
X45.72Y-85.09
X45.72Y-87.63
X45.72Y-90.17
X45.72Y-92.71
X45.72Y-95.25
X45.72Y-97.79
X50.8Y-29.21
X50.8Y-93.98
X50.84Y-50.8
X50.84Y-72.39
X53.3Y-29.21
X53.3Y-93.98
X53.34Y-50.8
X53.34Y-72.39
X58.42Y-15.24
X58.42Y-17.78
X58.42Y-20.32
X58.42Y-22.86
X58.42Y-25.4
X58.42Y-27.94
X58.42Y-30.48
X58.42Y-33.02
X58.42Y-36.83
X58.42Y-39.37
X58.42Y-41.91
X58.42Y-44.45
X58.42Y-46.99
X58.42Y-49.53
X58.42Y-52.07
X58.42Y-54.61
X58.42Y-58.42
X58.42Y-60.96
X58.42Y-63.5
X58.42Y-66.04
X58.42Y-68.58
X58.42Y-71.12
X58.42Y-73.66
X58.42Y-76.2
X58.42Y-80.01
X58.42Y-82.55
X58.42Y-85.09
X58.42Y-87.63
X58.42Y-90.17
X58.42Y-92.71
X58.42Y-95.25
X58.42Y-97.79
X72.39Y-78.74
X72.39Y-81.24
X82.55Y-78.78
X82.55Y-81.28
X90.17Y-81.28
X92.71Y-81.28
X95.25Y-81.28
X100.33Y-49.57
X100.33Y-52.07
X100.33Y-81.28
X102.87Y-81.28
X105.41Y-81.28
X109.22Y-17.78
X109.22Y-20.28
X110.49Y-81.28
X113.03Y-38.1
X113.03Y-40.6
X113.03Y-81.28
X115.57Y-81.28
X120.65Y-81.28
X123.19Y-81.28
X125.73Y-81.28
X127.0Y-24.13
X129.5Y-24.13
X130.81Y-81.28
X133.35Y-81.28
X135.89Y-81.28
X140.97Y-81.28
X142.28Y-48.26
X143.51Y-81.28
X144.78Y-48.26
X146.05Y-81.28
T4
X135.89Y-46.99
X138.43Y-46.99
T5
X40.64Y-25.4
X40.64Y-27.94
X40.64Y-30.48
X40.64Y-33.02
X40.64Y-41.91
X40.64Y-44.45
X40.64Y-46.99
X40.64Y-49.53
X40.64Y-63.5
X40.64Y-66.04
X40.64Y-68.58
X40.64Y-71.12
X40.64Y-80.01
X40.64Y-82.55
X40.64Y-85.09
X40.64Y-87.63
X102.87Y-17.78
X102.87Y-20.32
X102.87Y-22.86
X102.87Y-25.4
X102.87Y-27.94
X106.68Y-45.72
X106.68Y-48.26
X106.68Y-50.8
X118.11Y-20.32
X118.11Y-22.86
X118.11Y-25.4
X118.11Y-27.94
X118.11Y-45.72
X118.11Y-48.26
X118.11Y-50.8
X118.11Y-53.34
X119.38Y-34.29
X119.38Y-36.83
X119.38Y-39.37
X120.65Y-45.72
X120.65Y-48.26
X120.65Y-50.8
X120.65Y-53.34
X123.19Y-45.72
X123.19Y-48.26
X123.19Y-50.8
X123.19Y-53.34
X125.73Y-45.72
X125.73Y-48.26
X125.73Y-50.8
X125.73Y-53.34
X129.54Y-57.15
X129.54Y-59.69
X129.54Y-62.23
X129.54Y-64.77
X132.08Y-31.75
X132.08Y-34.29
X132.08Y-36.83
X132.08Y-39.37
X137.16Y-27.94
X137.16Y-30.48
X137.16Y-36.83
X137.16Y-39.37
X139.7Y-27.94
X139.7Y-30.48
X139.7Y-36.83
X139.7Y-39.37
X142.24Y-27.94
X142.24Y-30.48
X142.24Y-36.83
X142.24Y-39.37
X142.24Y-54.61
X142.24Y-57.15
X142.24Y-59.69
X142.24Y-62.23
X142.24Y-64.77
X144.78Y-27.94
X144.78Y-30.48
X144.78Y-36.83
X144.78Y-39.37
X147.32Y-27.94
X147.32Y-30.48
X147.32Y-36.83
X147.32Y-39.37
X149.86Y-27.94
X149.86Y-30.48
X149.86Y-36.83
X149.86Y-39.37
T6
X67.31Y-15.24
X67.31Y-17.78
X67.31Y-20.32
X67.31Y-22.86
X67.31Y-25.4
X67.31Y-27.94
X67.31Y-30.48
X67.31Y-33.02
X67.31Y-35.56
X67.31Y-38.1
X67.31Y-40.64
X67.31Y-43.18
X67.31Y-45.72
X67.31Y-48.26
X67.31Y-50.8
X67.31Y-53.34
X67.31Y-55.88
X67.31Y-58.42
X67.31Y-60.96
X92.71Y-15.24
X92.71Y-17.78
X92.71Y-20.32
X92.71Y-22.86
X92.71Y-25.4
X92.71Y-27.94
X92.71Y-30.48
X92.71Y-33.02
X92.71Y-35.56
X92.71Y-38.1
X92.71Y-40.64
X92.71Y-43.18
X92.71Y-45.72
X92.71Y-48.26
X92.71Y-50.8
X92.71Y-53.34
X92.71Y-55.88
X92.71Y-58.42
X92.71Y-60.96
T7
X160.02Y-33.02
X160.02Y-43.18
X160.02Y-53.34
X160.02Y-63.5
X160.02Y-73.66
X160.02Y-83.82
X162.56Y-33.02
X162.56Y-43.18
X162.56Y-53.34
X162.56Y-63.5
X162.56Y-73.66
X162.56Y-83.82
X165.1Y-33.02
X165.1Y-43.18
X165.1Y-53.34
X165.1Y-63.5
X165.1Y-73.66
X165.1Y-83.82
T8
X90.17Y-86.36
X92.71Y-86.36
X100.33Y-86.36
X102.87Y-86.36
X110.49Y-86.36
X113.03Y-86.36
X120.65Y-86.36
X123.19Y-86.36
X127.0Y-17.0
X129.54Y-17.0
X130.81Y-86.36
X133.35Y-86.36
X140.97Y-86.36
X143.51Y-86.36
X151.13Y-45.72
X151.13Y-48.26
X163.83Y-26.67
X163.83Y-36.83
X163.83Y-46.99
X163.83Y-57.15
X163.83Y-67.31
X163.83Y-77.47
X166.37Y-26.67
X166.37Y-36.83
X166.37Y-46.99
X166.37Y-57.15
X166.37Y-67.31
X166.37Y-77.47
T9
X134.98Y-19.05
X157.48Y-19.05
T10
X66.04Y-93.98
X71.12Y-93.98
X76.2Y-93.98
X81.28Y-93.98
X90.17Y-93.98
X95.25Y-93.98
X100.33Y-93.98
X105.41Y-93.98
X110.49Y-93.98
X115.57Y-93.98
X120.65Y-93.98
X125.73Y-93.98
X130.81Y-93.98
X135.89Y-93.98
X140.97Y-93.98
X146.05Y-93.98
X162.56Y-19.05
X167.64Y-19.05
X173.99Y-27.94
X173.99Y-33.02
X173.99Y-38.1
X173.99Y-43.18
X173.99Y-48.26
X173.99Y-53.34
X173.99Y-58.42
X173.99Y-63.5
X173.99Y-68.58
X173.99Y-73.66
X173.99Y-78.74
X173.99Y-83.82
T0
M30
