G04 #@! TF.GenerationSoftware,KiCad,Pcbnew,(5.1.10)-1*
G04 #@! TF.CreationDate,2021-12-14T18:47:07+01:00*
G04 #@! TF.ProjectId,main_board,6d61696e-5f62-46f6-9172-642e6b696361,rev?*
G04 #@! TF.SameCoordinates,Original*
G04 #@! TF.FileFunction,Soldermask,Top*
G04 #@! TF.FilePolarity,Negative*
%FSLAX46Y46*%
G04 Gerber Fmt 4.6, Leading zero omitted, Abs format (unit mm)*
G04 Created by KiCad (PCBNEW (5.1.10)-1) date 2021-12-14 18:47:07*
%MOMM*%
%LPD*%
G01*
G04 APERTURE LIST*
%ADD10C,1.560000*%
%ADD11R,1.560000X1.560000*%
%ADD12C,1.600000*%
%ADD13R,1.600000X1.600000*%
%ADD14O,2.240000X2.240000*%
%ADD15R,2.240000X2.240000*%
%ADD16C,3.000000*%
%ADD17R,3.000000X3.000000*%
%ADD18C,3.200000*%
%ADD19O,1.700000X1.700000*%
%ADD20R,1.700000X1.700000*%
%ADD21R,1.500000X1.500000*%
%ADD22C,1.500000*%
%ADD23O,1.905000X2.000000*%
%ADD24R,1.905000X2.000000*%
%ADD25C,2.700000*%
%ADD26C,1.800000*%
%ADD27R,1.800000X1.800000*%
%ADD28C,1.200000*%
%ADD29R,1.200000X1.200000*%
%ADD30O,1.600000X1.600000*%
G04 APERTURE END LIST*
D10*
X67310000Y-15240000D03*
X67310000Y-17780000D03*
X67310000Y-20320000D03*
X67310000Y-22860000D03*
X67310000Y-25400000D03*
X67310000Y-27940000D03*
X67310000Y-30480000D03*
X67310000Y-33020000D03*
X67310000Y-35560000D03*
X67310000Y-38100000D03*
X67310000Y-40640000D03*
X67310000Y-43180000D03*
X67310000Y-45720000D03*
X67310000Y-48260000D03*
X67310000Y-50800000D03*
X67310000Y-53340000D03*
X67310000Y-55880000D03*
X67310000Y-58420000D03*
X67310000Y-60960000D03*
X92710000Y-17780000D03*
X92710000Y-20320000D03*
X92710000Y-22860000D03*
X92710000Y-25400000D03*
X92710000Y-27940000D03*
X92710000Y-30480000D03*
X92710000Y-33020000D03*
X92710000Y-35560000D03*
X92710000Y-38100000D03*
X92710000Y-40640000D03*
X92710000Y-43180000D03*
X92710000Y-45720000D03*
X92710000Y-48260000D03*
X92710000Y-50800000D03*
X92710000Y-53340000D03*
X92710000Y-55880000D03*
X92710000Y-15240000D03*
X92710000Y-58420000D03*
D11*
X92710000Y-60960000D03*
G36*
G01*
X135270001Y-57112500D02*
X133969999Y-57112500D01*
G75*
G02*
X133720000Y-56862501I0J249999D01*
G01*
X133720000Y-56037499D01*
G75*
G02*
X133969999Y-55787500I249999J0D01*
G01*
X135270001Y-55787500D01*
G75*
G02*
X135520000Y-56037499I0J-249999D01*
G01*
X135520000Y-56862501D01*
G75*
G02*
X135270001Y-57112500I-249999J0D01*
G01*
G37*
G36*
G01*
X135270001Y-60237500D02*
X133969999Y-60237500D01*
G75*
G02*
X133720000Y-59987501I0J249999D01*
G01*
X133720000Y-59162499D01*
G75*
G02*
X133969999Y-58912500I249999J0D01*
G01*
X135270001Y-58912500D01*
G75*
G02*
X135520000Y-59162499I0J-249999D01*
G01*
X135520000Y-59987501D01*
G75*
G02*
X135270001Y-60237500I-249999J0D01*
G01*
G37*
G36*
G01*
X139080001Y-57112500D02*
X137779999Y-57112500D01*
G75*
G02*
X137530000Y-56862501I0J249999D01*
G01*
X137530000Y-56037499D01*
G75*
G02*
X137779999Y-55787500I249999J0D01*
G01*
X139080001Y-55787500D01*
G75*
G02*
X139330000Y-56037499I0J-249999D01*
G01*
X139330000Y-56862501D01*
G75*
G02*
X139080001Y-57112500I-249999J0D01*
G01*
G37*
G36*
G01*
X139080001Y-60237500D02*
X137779999Y-60237500D01*
G75*
G02*
X137530000Y-59987501I0J249999D01*
G01*
X137530000Y-59162499D01*
G75*
G02*
X137779999Y-58912500I249999J0D01*
G01*
X139080001Y-58912500D01*
G75*
G02*
X139330000Y-59162499I0J-249999D01*
G01*
X139330000Y-59987501D01*
G75*
G02*
X139080001Y-60237500I-249999J0D01*
G01*
G37*
G36*
G01*
X137810001Y-62600000D02*
X136509999Y-62600000D01*
G75*
G02*
X136260000Y-62350001I0J249999D01*
G01*
X136260000Y-61524999D01*
G75*
G02*
X136509999Y-61275000I249999J0D01*
G01*
X137810001Y-61275000D01*
G75*
G02*
X138060000Y-61524999I0J-249999D01*
G01*
X138060000Y-62350001D01*
G75*
G02*
X137810001Y-62600000I-249999J0D01*
G01*
G37*
G36*
G01*
X137810001Y-65725000D02*
X136509999Y-65725000D01*
G75*
G02*
X136260000Y-65475001I0J249999D01*
G01*
X136260000Y-64649999D01*
G75*
G02*
X136509999Y-64400000I249999J0D01*
G01*
X137810001Y-64400000D01*
G75*
G02*
X138060000Y-64649999I0J-249999D01*
G01*
X138060000Y-65475001D01*
G75*
G02*
X137810001Y-65725000I-249999J0D01*
G01*
G37*
D12*
X129500000Y-24130000D03*
D13*
X127000000Y-24130000D03*
D14*
X151130000Y-45720000D03*
D15*
X151130000Y-48260000D03*
D14*
X129540000Y-17000000D03*
D15*
X127000000Y-17000000D03*
D14*
X140970000Y-86360000D03*
D15*
X143510000Y-86360000D03*
D14*
X130810000Y-86360000D03*
D15*
X133350000Y-86360000D03*
D14*
X120650000Y-86360000D03*
D15*
X123190000Y-86360000D03*
D14*
X110490000Y-86360000D03*
D15*
X113030000Y-86360000D03*
D14*
X100330000Y-86360000D03*
D15*
X102870000Y-86360000D03*
D14*
X90170000Y-86360000D03*
D15*
X92710000Y-86360000D03*
D14*
X163830000Y-26670000D03*
D15*
X166370000Y-26670000D03*
D14*
X163830000Y-36830000D03*
D15*
X166370000Y-36830000D03*
D14*
X163830000Y-46990000D03*
D15*
X166370000Y-46990000D03*
D14*
X163830000Y-57150000D03*
D15*
X166370000Y-57150000D03*
D14*
X163830000Y-67310000D03*
D15*
X166370000Y-67310000D03*
D14*
X163830000Y-77470000D03*
D15*
X166370000Y-77470000D03*
D16*
X167640000Y-19050000D03*
D17*
X162560000Y-19050000D03*
D16*
X76200000Y-93980000D03*
D17*
X81280000Y-93980000D03*
D16*
X66040000Y-93980000D03*
D17*
X71120000Y-93980000D03*
D16*
X140970000Y-93980000D03*
D17*
X146050000Y-93980000D03*
D16*
X130810000Y-93980000D03*
D17*
X135890000Y-93980000D03*
D16*
X120650000Y-93980000D03*
D17*
X125730000Y-93980000D03*
D16*
X110490000Y-93980000D03*
D17*
X115570000Y-93980000D03*
D16*
X100330000Y-93980000D03*
D17*
X105410000Y-93980000D03*
D16*
X90170000Y-93980000D03*
D17*
X95250000Y-93980000D03*
D16*
X173990000Y-33020000D03*
D17*
X173990000Y-27940000D03*
D16*
X173990000Y-43180000D03*
D17*
X173990000Y-38100000D03*
D16*
X173990000Y-53340000D03*
D17*
X173990000Y-48260000D03*
D16*
X173990000Y-63500000D03*
D17*
X173990000Y-58420000D03*
D16*
X173990000Y-73660000D03*
D17*
X173990000Y-68580000D03*
D16*
X173990000Y-83820000D03*
D17*
X173990000Y-78740000D03*
D18*
X175260000Y-95250000D03*
X40000000Y-95250000D03*
X40000000Y-18000000D03*
X175000000Y-18000000D03*
D19*
X142240000Y-64770000D03*
X142240000Y-62230000D03*
X142240000Y-59690000D03*
X142240000Y-57150000D03*
D20*
X142240000Y-54610000D03*
G36*
G01*
X117255000Y-66355000D02*
X117255000Y-66555000D01*
G75*
G02*
X117155000Y-66655000I-100000J0D01*
G01*
X115880000Y-66655000D01*
G75*
G02*
X115780000Y-66555000I0J100000D01*
G01*
X115780000Y-66355000D01*
G75*
G02*
X115880000Y-66255000I100000J0D01*
G01*
X117155000Y-66255000D01*
G75*
G02*
X117255000Y-66355000I0J-100000D01*
G01*
G37*
G36*
G01*
X117255000Y-65705000D02*
X117255000Y-65905000D01*
G75*
G02*
X117155000Y-66005000I-100000J0D01*
G01*
X115880000Y-66005000D01*
G75*
G02*
X115780000Y-65905000I0J100000D01*
G01*
X115780000Y-65705000D01*
G75*
G02*
X115880000Y-65605000I100000J0D01*
G01*
X117155000Y-65605000D01*
G75*
G02*
X117255000Y-65705000I0J-100000D01*
G01*
G37*
G36*
G01*
X117255000Y-65055000D02*
X117255000Y-65255000D01*
G75*
G02*
X117155000Y-65355000I-100000J0D01*
G01*
X115880000Y-65355000D01*
G75*
G02*
X115780000Y-65255000I0J100000D01*
G01*
X115780000Y-65055000D01*
G75*
G02*
X115880000Y-64955000I100000J0D01*
G01*
X117155000Y-64955000D01*
G75*
G02*
X117255000Y-65055000I0J-100000D01*
G01*
G37*
G36*
G01*
X117255000Y-64405000D02*
X117255000Y-64605000D01*
G75*
G02*
X117155000Y-64705000I-100000J0D01*
G01*
X115880000Y-64705000D01*
G75*
G02*
X115780000Y-64605000I0J100000D01*
G01*
X115780000Y-64405000D01*
G75*
G02*
X115880000Y-64305000I100000J0D01*
G01*
X117155000Y-64305000D01*
G75*
G02*
X117255000Y-64405000I0J-100000D01*
G01*
G37*
G36*
G01*
X117255000Y-63755000D02*
X117255000Y-63955000D01*
G75*
G02*
X117155000Y-64055000I-100000J0D01*
G01*
X115880000Y-64055000D01*
G75*
G02*
X115780000Y-63955000I0J100000D01*
G01*
X115780000Y-63755000D01*
G75*
G02*
X115880000Y-63655000I100000J0D01*
G01*
X117155000Y-63655000D01*
G75*
G02*
X117255000Y-63755000I0J-100000D01*
G01*
G37*
G36*
G01*
X117255000Y-63105000D02*
X117255000Y-63305000D01*
G75*
G02*
X117155000Y-63405000I-100000J0D01*
G01*
X115880000Y-63405000D01*
G75*
G02*
X115780000Y-63305000I0J100000D01*
G01*
X115780000Y-63105000D01*
G75*
G02*
X115880000Y-63005000I100000J0D01*
G01*
X117155000Y-63005000D01*
G75*
G02*
X117255000Y-63105000I0J-100000D01*
G01*
G37*
G36*
G01*
X117255000Y-62455000D02*
X117255000Y-62655000D01*
G75*
G02*
X117155000Y-62755000I-100000J0D01*
G01*
X115880000Y-62755000D01*
G75*
G02*
X115780000Y-62655000I0J100000D01*
G01*
X115780000Y-62455000D01*
G75*
G02*
X115880000Y-62355000I100000J0D01*
G01*
X117155000Y-62355000D01*
G75*
G02*
X117255000Y-62455000I0J-100000D01*
G01*
G37*
G36*
G01*
X117255000Y-61805000D02*
X117255000Y-62005000D01*
G75*
G02*
X117155000Y-62105000I-100000J0D01*
G01*
X115880000Y-62105000D01*
G75*
G02*
X115780000Y-62005000I0J100000D01*
G01*
X115780000Y-61805000D01*
G75*
G02*
X115880000Y-61705000I100000J0D01*
G01*
X117155000Y-61705000D01*
G75*
G02*
X117255000Y-61805000I0J-100000D01*
G01*
G37*
G36*
G01*
X117255000Y-61155000D02*
X117255000Y-61355000D01*
G75*
G02*
X117155000Y-61455000I-100000J0D01*
G01*
X115880000Y-61455000D01*
G75*
G02*
X115780000Y-61355000I0J100000D01*
G01*
X115780000Y-61155000D01*
G75*
G02*
X115880000Y-61055000I100000J0D01*
G01*
X117155000Y-61055000D01*
G75*
G02*
X117255000Y-61155000I0J-100000D01*
G01*
G37*
G36*
G01*
X117255000Y-60505000D02*
X117255000Y-60705000D01*
G75*
G02*
X117155000Y-60805000I-100000J0D01*
G01*
X115880000Y-60805000D01*
G75*
G02*
X115780000Y-60705000I0J100000D01*
G01*
X115780000Y-60505000D01*
G75*
G02*
X115880000Y-60405000I100000J0D01*
G01*
X117155000Y-60405000D01*
G75*
G02*
X117255000Y-60505000I0J-100000D01*
G01*
G37*
G36*
G01*
X117255000Y-59855000D02*
X117255000Y-60055000D01*
G75*
G02*
X117155000Y-60155000I-100000J0D01*
G01*
X115880000Y-60155000D01*
G75*
G02*
X115780000Y-60055000I0J100000D01*
G01*
X115780000Y-59855000D01*
G75*
G02*
X115880000Y-59755000I100000J0D01*
G01*
X117155000Y-59755000D01*
G75*
G02*
X117255000Y-59855000I0J-100000D01*
G01*
G37*
G36*
G01*
X117255000Y-59205000D02*
X117255000Y-59405000D01*
G75*
G02*
X117155000Y-59505000I-100000J0D01*
G01*
X115880000Y-59505000D01*
G75*
G02*
X115780000Y-59405000I0J100000D01*
G01*
X115780000Y-59205000D01*
G75*
G02*
X115880000Y-59105000I100000J0D01*
G01*
X117155000Y-59105000D01*
G75*
G02*
X117255000Y-59205000I0J-100000D01*
G01*
G37*
G36*
G01*
X117255000Y-58555000D02*
X117255000Y-58755000D01*
G75*
G02*
X117155000Y-58855000I-100000J0D01*
G01*
X115880000Y-58855000D01*
G75*
G02*
X115780000Y-58755000I0J100000D01*
G01*
X115780000Y-58555000D01*
G75*
G02*
X115880000Y-58455000I100000J0D01*
G01*
X117155000Y-58455000D01*
G75*
G02*
X117255000Y-58555000I0J-100000D01*
G01*
G37*
G36*
G01*
X117255000Y-57905000D02*
X117255000Y-58105000D01*
G75*
G02*
X117155000Y-58205000I-100000J0D01*
G01*
X115880000Y-58205000D01*
G75*
G02*
X115780000Y-58105000I0J100000D01*
G01*
X115780000Y-57905000D01*
G75*
G02*
X115880000Y-57805000I100000J0D01*
G01*
X117155000Y-57805000D01*
G75*
G02*
X117255000Y-57905000I0J-100000D01*
G01*
G37*
G36*
G01*
X122980000Y-57905000D02*
X122980000Y-58105000D01*
G75*
G02*
X122880000Y-58205000I-100000J0D01*
G01*
X121605000Y-58205000D01*
G75*
G02*
X121505000Y-58105000I0J100000D01*
G01*
X121505000Y-57905000D01*
G75*
G02*
X121605000Y-57805000I100000J0D01*
G01*
X122880000Y-57805000D01*
G75*
G02*
X122980000Y-57905000I0J-100000D01*
G01*
G37*
G36*
G01*
X122980000Y-58555000D02*
X122980000Y-58755000D01*
G75*
G02*
X122880000Y-58855000I-100000J0D01*
G01*
X121605000Y-58855000D01*
G75*
G02*
X121505000Y-58755000I0J100000D01*
G01*
X121505000Y-58555000D01*
G75*
G02*
X121605000Y-58455000I100000J0D01*
G01*
X122880000Y-58455000D01*
G75*
G02*
X122980000Y-58555000I0J-100000D01*
G01*
G37*
G36*
G01*
X122980000Y-59205000D02*
X122980000Y-59405000D01*
G75*
G02*
X122880000Y-59505000I-100000J0D01*
G01*
X121605000Y-59505000D01*
G75*
G02*
X121505000Y-59405000I0J100000D01*
G01*
X121505000Y-59205000D01*
G75*
G02*
X121605000Y-59105000I100000J0D01*
G01*
X122880000Y-59105000D01*
G75*
G02*
X122980000Y-59205000I0J-100000D01*
G01*
G37*
G36*
G01*
X122980000Y-59855000D02*
X122980000Y-60055000D01*
G75*
G02*
X122880000Y-60155000I-100000J0D01*
G01*
X121605000Y-60155000D01*
G75*
G02*
X121505000Y-60055000I0J100000D01*
G01*
X121505000Y-59855000D01*
G75*
G02*
X121605000Y-59755000I100000J0D01*
G01*
X122880000Y-59755000D01*
G75*
G02*
X122980000Y-59855000I0J-100000D01*
G01*
G37*
G36*
G01*
X122980000Y-60505000D02*
X122980000Y-60705000D01*
G75*
G02*
X122880000Y-60805000I-100000J0D01*
G01*
X121605000Y-60805000D01*
G75*
G02*
X121505000Y-60705000I0J100000D01*
G01*
X121505000Y-60505000D01*
G75*
G02*
X121605000Y-60405000I100000J0D01*
G01*
X122880000Y-60405000D01*
G75*
G02*
X122980000Y-60505000I0J-100000D01*
G01*
G37*
G36*
G01*
X122980000Y-61155000D02*
X122980000Y-61355000D01*
G75*
G02*
X122880000Y-61455000I-100000J0D01*
G01*
X121605000Y-61455000D01*
G75*
G02*
X121505000Y-61355000I0J100000D01*
G01*
X121505000Y-61155000D01*
G75*
G02*
X121605000Y-61055000I100000J0D01*
G01*
X122880000Y-61055000D01*
G75*
G02*
X122980000Y-61155000I0J-100000D01*
G01*
G37*
G36*
G01*
X122980000Y-61805000D02*
X122980000Y-62005000D01*
G75*
G02*
X122880000Y-62105000I-100000J0D01*
G01*
X121605000Y-62105000D01*
G75*
G02*
X121505000Y-62005000I0J100000D01*
G01*
X121505000Y-61805000D01*
G75*
G02*
X121605000Y-61705000I100000J0D01*
G01*
X122880000Y-61705000D01*
G75*
G02*
X122980000Y-61805000I0J-100000D01*
G01*
G37*
G36*
G01*
X122980000Y-62455000D02*
X122980000Y-62655000D01*
G75*
G02*
X122880000Y-62755000I-100000J0D01*
G01*
X121605000Y-62755000D01*
G75*
G02*
X121505000Y-62655000I0J100000D01*
G01*
X121505000Y-62455000D01*
G75*
G02*
X121605000Y-62355000I100000J0D01*
G01*
X122880000Y-62355000D01*
G75*
G02*
X122980000Y-62455000I0J-100000D01*
G01*
G37*
G36*
G01*
X122980000Y-63105000D02*
X122980000Y-63305000D01*
G75*
G02*
X122880000Y-63405000I-100000J0D01*
G01*
X121605000Y-63405000D01*
G75*
G02*
X121505000Y-63305000I0J100000D01*
G01*
X121505000Y-63105000D01*
G75*
G02*
X121605000Y-63005000I100000J0D01*
G01*
X122880000Y-63005000D01*
G75*
G02*
X122980000Y-63105000I0J-100000D01*
G01*
G37*
G36*
G01*
X122980000Y-63755000D02*
X122980000Y-63955000D01*
G75*
G02*
X122880000Y-64055000I-100000J0D01*
G01*
X121605000Y-64055000D01*
G75*
G02*
X121505000Y-63955000I0J100000D01*
G01*
X121505000Y-63755000D01*
G75*
G02*
X121605000Y-63655000I100000J0D01*
G01*
X122880000Y-63655000D01*
G75*
G02*
X122980000Y-63755000I0J-100000D01*
G01*
G37*
G36*
G01*
X122980000Y-64405000D02*
X122980000Y-64605000D01*
G75*
G02*
X122880000Y-64705000I-100000J0D01*
G01*
X121605000Y-64705000D01*
G75*
G02*
X121505000Y-64605000I0J100000D01*
G01*
X121505000Y-64405000D01*
G75*
G02*
X121605000Y-64305000I100000J0D01*
G01*
X122880000Y-64305000D01*
G75*
G02*
X122980000Y-64405000I0J-100000D01*
G01*
G37*
G36*
G01*
X122980000Y-65055000D02*
X122980000Y-65255000D01*
G75*
G02*
X122880000Y-65355000I-100000J0D01*
G01*
X121605000Y-65355000D01*
G75*
G02*
X121505000Y-65255000I0J100000D01*
G01*
X121505000Y-65055000D01*
G75*
G02*
X121605000Y-64955000I100000J0D01*
G01*
X122880000Y-64955000D01*
G75*
G02*
X122980000Y-65055000I0J-100000D01*
G01*
G37*
G36*
G01*
X122980000Y-65705000D02*
X122980000Y-65905000D01*
G75*
G02*
X122880000Y-66005000I-100000J0D01*
G01*
X121605000Y-66005000D01*
G75*
G02*
X121505000Y-65905000I0J100000D01*
G01*
X121505000Y-65705000D01*
G75*
G02*
X121605000Y-65605000I100000J0D01*
G01*
X122880000Y-65605000D01*
G75*
G02*
X122980000Y-65705000I0J-100000D01*
G01*
G37*
G36*
G01*
X122980000Y-66355000D02*
X122980000Y-66555000D01*
G75*
G02*
X122880000Y-66655000I-100000J0D01*
G01*
X121605000Y-66655000D01*
G75*
G02*
X121505000Y-66555000I0J100000D01*
G01*
X121505000Y-66355000D01*
G75*
G02*
X121605000Y-66255000I100000J0D01*
G01*
X122880000Y-66255000D01*
G75*
G02*
X122980000Y-66355000I0J-100000D01*
G01*
G37*
G36*
G01*
X108570000Y-29835000D02*
X108570000Y-28585000D01*
G75*
G02*
X108820000Y-28335000I250000J0D01*
G01*
X109620000Y-28335000D01*
G75*
G02*
X109870000Y-28585000I0J-250000D01*
G01*
X109870000Y-29835000D01*
G75*
G02*
X109620000Y-30085000I-250000J0D01*
G01*
X108820000Y-30085000D01*
G75*
G02*
X108570000Y-29835000I0J250000D01*
G01*
G37*
G36*
G01*
X105470000Y-29835000D02*
X105470000Y-28585000D01*
G75*
G02*
X105720000Y-28335000I250000J0D01*
G01*
X106520000Y-28335000D01*
G75*
G02*
X106770000Y-28585000I0J-250000D01*
G01*
X106770000Y-29835000D01*
G75*
G02*
X106520000Y-30085000I-250000J0D01*
G01*
X105720000Y-30085000D01*
G75*
G02*
X105470000Y-29835000I0J250000D01*
G01*
G37*
G36*
G01*
X132705000Y-44540000D02*
X131455000Y-44540000D01*
G75*
G02*
X131205000Y-44290000I0J250000D01*
G01*
X131205000Y-43490000D01*
G75*
G02*
X131455000Y-43240000I250000J0D01*
G01*
X132705000Y-43240000D01*
G75*
G02*
X132955000Y-43490000I0J-250000D01*
G01*
X132955000Y-44290000D01*
G75*
G02*
X132705000Y-44540000I-250000J0D01*
G01*
G37*
G36*
G01*
X132705000Y-47640000D02*
X131455000Y-47640000D01*
G75*
G02*
X131205000Y-47390000I0J250000D01*
G01*
X131205000Y-46590000D01*
G75*
G02*
X131455000Y-46340000I250000J0D01*
G01*
X132705000Y-46340000D01*
G75*
G02*
X132955000Y-46590000I0J-250000D01*
G01*
X132955000Y-47390000D01*
G75*
G02*
X132705000Y-47640000I-250000J0D01*
G01*
G37*
G36*
G01*
X106770000Y-23505000D02*
X106770000Y-24755000D01*
G75*
G02*
X106520000Y-25005000I-250000J0D01*
G01*
X105720000Y-25005000D01*
G75*
G02*
X105470000Y-24755000I0J250000D01*
G01*
X105470000Y-23505000D01*
G75*
G02*
X105720000Y-23255000I250000J0D01*
G01*
X106520000Y-23255000D01*
G75*
G02*
X106770000Y-23505000I0J-250000D01*
G01*
G37*
G36*
G01*
X109870000Y-23505000D02*
X109870000Y-24755000D01*
G75*
G02*
X109620000Y-25005000I-250000J0D01*
G01*
X108820000Y-25005000D01*
G75*
G02*
X108570000Y-24755000I0J250000D01*
G01*
X108570000Y-23505000D01*
G75*
G02*
X108820000Y-23255000I250000J0D01*
G01*
X109620000Y-23255000D01*
G75*
G02*
X109870000Y-23505000I0J-250000D01*
G01*
G37*
G36*
G01*
X112130000Y-32395000D02*
X112130000Y-33645000D01*
G75*
G02*
X111880000Y-33895000I-250000J0D01*
G01*
X111080000Y-33895000D01*
G75*
G02*
X110830000Y-33645000I0J250000D01*
G01*
X110830000Y-32395000D01*
G75*
G02*
X111080000Y-32145000I250000J0D01*
G01*
X111880000Y-32145000D01*
G75*
G02*
X112130000Y-32395000I0J-250000D01*
G01*
G37*
G36*
G01*
X115230000Y-32395000D02*
X115230000Y-33645000D01*
G75*
G02*
X114980000Y-33895000I-250000J0D01*
G01*
X114180000Y-33895000D01*
G75*
G02*
X113930000Y-33645000I0J250000D01*
G01*
X113930000Y-32395000D01*
G75*
G02*
X114180000Y-32145000I250000J0D01*
G01*
X114980000Y-32145000D01*
G75*
G02*
X115230000Y-32395000I0J-250000D01*
G01*
G37*
G36*
G01*
X113650000Y-28565000D02*
X113650000Y-27315000D01*
G75*
G02*
X113900000Y-27065000I250000J0D01*
G01*
X114700000Y-27065000D01*
G75*
G02*
X114950000Y-27315000I0J-250000D01*
G01*
X114950000Y-28565000D01*
G75*
G02*
X114700000Y-28815000I-250000J0D01*
G01*
X113900000Y-28815000D01*
G75*
G02*
X113650000Y-28565000I0J250000D01*
G01*
G37*
G36*
G01*
X110550000Y-28565000D02*
X110550000Y-27315000D01*
G75*
G02*
X110800000Y-27065000I250000J0D01*
G01*
X111600000Y-27065000D01*
G75*
G02*
X111850000Y-27315000I0J-250000D01*
G01*
X111850000Y-28565000D01*
G75*
G02*
X111600000Y-28815000I-250000J0D01*
G01*
X110800000Y-28815000D01*
G75*
G02*
X110550000Y-28565000I0J250000D01*
G01*
G37*
G36*
G01*
X99430000Y-43825000D02*
X99430000Y-45075000D01*
G75*
G02*
X99180000Y-45325000I-250000J0D01*
G01*
X98380000Y-45325000D01*
G75*
G02*
X98130000Y-45075000I0J250000D01*
G01*
X98130000Y-43825000D01*
G75*
G02*
X98380000Y-43575000I250000J0D01*
G01*
X99180000Y-43575000D01*
G75*
G02*
X99430000Y-43825000I0J-250000D01*
G01*
G37*
G36*
G01*
X102530000Y-43825000D02*
X102530000Y-45075000D01*
G75*
G02*
X102280000Y-45325000I-250000J0D01*
G01*
X101480000Y-45325000D01*
G75*
G02*
X101230000Y-45075000I0J250000D01*
G01*
X101230000Y-43825000D01*
G75*
G02*
X101480000Y-43575000I250000J0D01*
G01*
X102280000Y-43575000D01*
G75*
G02*
X102530000Y-43825000I0J-250000D01*
G01*
G37*
G36*
G01*
X80660000Y-84465000D02*
X80660000Y-85715000D01*
G75*
G02*
X80410000Y-85965000I-250000J0D01*
G01*
X79610000Y-85965000D01*
G75*
G02*
X79360000Y-85715000I0J250000D01*
G01*
X79360000Y-84465000D01*
G75*
G02*
X79610000Y-84215000I250000J0D01*
G01*
X80410000Y-84215000D01*
G75*
G02*
X80660000Y-84465000I0J-250000D01*
G01*
G37*
G36*
G01*
X83760000Y-84465000D02*
X83760000Y-85715000D01*
G75*
G02*
X83510000Y-85965000I-250000J0D01*
G01*
X82710000Y-85965000D01*
G75*
G02*
X82460000Y-85715000I0J250000D01*
G01*
X82460000Y-84465000D01*
G75*
G02*
X82710000Y-84215000I250000J0D01*
G01*
X83510000Y-84215000D01*
G75*
G02*
X83760000Y-84465000I0J-250000D01*
G01*
G37*
G36*
G01*
X70500000Y-84465000D02*
X70500000Y-85715000D01*
G75*
G02*
X70250000Y-85965000I-250000J0D01*
G01*
X69450000Y-85965000D01*
G75*
G02*
X69200000Y-85715000I0J250000D01*
G01*
X69200000Y-84465000D01*
G75*
G02*
X69450000Y-84215000I250000J0D01*
G01*
X70250000Y-84215000D01*
G75*
G02*
X70500000Y-84465000I0J-250000D01*
G01*
G37*
G36*
G01*
X73600000Y-84465000D02*
X73600000Y-85715000D01*
G75*
G02*
X73350000Y-85965000I-250000J0D01*
G01*
X72550000Y-85965000D01*
G75*
G02*
X72300000Y-85715000I0J250000D01*
G01*
X72300000Y-84465000D01*
G75*
G02*
X72550000Y-84215000I250000J0D01*
G01*
X73350000Y-84215000D01*
G75*
G02*
X73600000Y-84465000I0J-250000D01*
G01*
G37*
G36*
G01*
X106310000Y-62855000D02*
X106310000Y-61605000D01*
G75*
G02*
X106560000Y-61355000I250000J0D01*
G01*
X107360000Y-61355000D01*
G75*
G02*
X107610000Y-61605000I0J-250000D01*
G01*
X107610000Y-62855000D01*
G75*
G02*
X107360000Y-63105000I-250000J0D01*
G01*
X106560000Y-63105000D01*
G75*
G02*
X106310000Y-62855000I0J250000D01*
G01*
G37*
G36*
G01*
X103210000Y-62855000D02*
X103210000Y-61605000D01*
G75*
G02*
X103460000Y-61355000I250000J0D01*
G01*
X104260000Y-61355000D01*
G75*
G02*
X104510000Y-61605000I0J-250000D01*
G01*
X104510000Y-62855000D01*
G75*
G02*
X104260000Y-63105000I-250000J0D01*
G01*
X103460000Y-63105000D01*
G75*
G02*
X103210000Y-62855000I0J250000D01*
G01*
G37*
G36*
G01*
X106310000Y-57775000D02*
X106310000Y-56525000D01*
G75*
G02*
X106560000Y-56275000I250000J0D01*
G01*
X107360000Y-56275000D01*
G75*
G02*
X107610000Y-56525000I0J-250000D01*
G01*
X107610000Y-57775000D01*
G75*
G02*
X107360000Y-58025000I-250000J0D01*
G01*
X106560000Y-58025000D01*
G75*
G02*
X106310000Y-57775000I0J250000D01*
G01*
G37*
G36*
G01*
X103210000Y-57775000D02*
X103210000Y-56525000D01*
G75*
G02*
X103460000Y-56275000I250000J0D01*
G01*
X104260000Y-56275000D01*
G75*
G02*
X104510000Y-56525000I0J-250000D01*
G01*
X104510000Y-57775000D01*
G75*
G02*
X104260000Y-58025000I-250000J0D01*
G01*
X103460000Y-58025000D01*
G75*
G02*
X103210000Y-57775000I0J250000D01*
G01*
G37*
G36*
G01*
X75575000Y-85710000D02*
X76825000Y-85710000D01*
G75*
G02*
X77075000Y-85960000I0J-250000D01*
G01*
X77075000Y-86760000D01*
G75*
G02*
X76825000Y-87010000I-250000J0D01*
G01*
X75575000Y-87010000D01*
G75*
G02*
X75325000Y-86760000I0J250000D01*
G01*
X75325000Y-85960000D01*
G75*
G02*
X75575000Y-85710000I250000J0D01*
G01*
G37*
G36*
G01*
X75575000Y-82610000D02*
X76825000Y-82610000D01*
G75*
G02*
X77075000Y-82860000I0J-250000D01*
G01*
X77075000Y-83660000D01*
G75*
G02*
X76825000Y-83910000I-250000J0D01*
G01*
X75575000Y-83910000D01*
G75*
G02*
X75325000Y-83660000I0J250000D01*
G01*
X75325000Y-82860000D01*
G75*
G02*
X75575000Y-82610000I250000J0D01*
G01*
G37*
G36*
G01*
X65415000Y-85710000D02*
X66665000Y-85710000D01*
G75*
G02*
X66915000Y-85960000I0J-250000D01*
G01*
X66915000Y-86760000D01*
G75*
G02*
X66665000Y-87010000I-250000J0D01*
G01*
X65415000Y-87010000D01*
G75*
G02*
X65165000Y-86760000I0J250000D01*
G01*
X65165000Y-85960000D01*
G75*
G02*
X65415000Y-85710000I250000J0D01*
G01*
G37*
G36*
G01*
X65415000Y-82610000D02*
X66665000Y-82610000D01*
G75*
G02*
X66915000Y-82860000I0J-250000D01*
G01*
X66915000Y-83660000D01*
G75*
G02*
X66665000Y-83910000I-250000J0D01*
G01*
X65415000Y-83910000D01*
G75*
G02*
X65165000Y-83660000I0J250000D01*
G01*
X65165000Y-82860000D01*
G75*
G02*
X65415000Y-82610000I250000J0D01*
G01*
G37*
G36*
G01*
X76845000Y-76820000D02*
X78095000Y-76820000D01*
G75*
G02*
X78345000Y-77070000I0J-250000D01*
G01*
X78345000Y-77870000D01*
G75*
G02*
X78095000Y-78120000I-250000J0D01*
G01*
X76845000Y-78120000D01*
G75*
G02*
X76595000Y-77870000I0J250000D01*
G01*
X76595000Y-77070000D01*
G75*
G02*
X76845000Y-76820000I250000J0D01*
G01*
G37*
G36*
G01*
X76845000Y-73720000D02*
X78095000Y-73720000D01*
G75*
G02*
X78345000Y-73970000I0J-250000D01*
G01*
X78345000Y-74770000D01*
G75*
G02*
X78095000Y-75020000I-250000J0D01*
G01*
X76845000Y-75020000D01*
G75*
G02*
X76595000Y-74770000I0J250000D01*
G01*
X76595000Y-73970000D01*
G75*
G02*
X76845000Y-73720000I250000J0D01*
G01*
G37*
G36*
G01*
X66685000Y-76820000D02*
X67935000Y-76820000D01*
G75*
G02*
X68185000Y-77070000I0J-250000D01*
G01*
X68185000Y-77870000D01*
G75*
G02*
X67935000Y-78120000I-250000J0D01*
G01*
X66685000Y-78120000D01*
G75*
G02*
X66435000Y-77870000I0J250000D01*
G01*
X66435000Y-77070000D01*
G75*
G02*
X66685000Y-76820000I250000J0D01*
G01*
G37*
G36*
G01*
X66685000Y-73720000D02*
X67935000Y-73720000D01*
G75*
G02*
X68185000Y-73970000I0J-250000D01*
G01*
X68185000Y-74770000D01*
G75*
G02*
X67935000Y-75020000I-250000J0D01*
G01*
X66685000Y-75020000D01*
G75*
G02*
X66435000Y-74770000I0J250000D01*
G01*
X66435000Y-73970000D01*
G75*
G02*
X66685000Y-73720000I250000J0D01*
G01*
G37*
G36*
G01*
X141590000Y-74285000D02*
X141590000Y-73035000D01*
G75*
G02*
X141840000Y-72785000I250000J0D01*
G01*
X142640000Y-72785000D01*
G75*
G02*
X142890000Y-73035000I0J-250000D01*
G01*
X142890000Y-74285000D01*
G75*
G02*
X142640000Y-74535000I-250000J0D01*
G01*
X141840000Y-74535000D01*
G75*
G02*
X141590000Y-74285000I0J250000D01*
G01*
G37*
G36*
G01*
X138490000Y-74285000D02*
X138490000Y-73035000D01*
G75*
G02*
X138740000Y-72785000I250000J0D01*
G01*
X139540000Y-72785000D01*
G75*
G02*
X139790000Y-73035000I0J-250000D01*
G01*
X139790000Y-74285000D01*
G75*
G02*
X139540000Y-74535000I-250000J0D01*
G01*
X138740000Y-74535000D01*
G75*
G02*
X138490000Y-74285000I0J250000D01*
G01*
G37*
G36*
G01*
X146675000Y-74310000D02*
X145425000Y-74310000D01*
G75*
G02*
X145175000Y-74060000I0J250000D01*
G01*
X145175000Y-73260000D01*
G75*
G02*
X145425000Y-73010000I250000J0D01*
G01*
X146675000Y-73010000D01*
G75*
G02*
X146925000Y-73260000I0J-250000D01*
G01*
X146925000Y-74060000D01*
G75*
G02*
X146675000Y-74310000I-250000J0D01*
G01*
G37*
G36*
G01*
X146675000Y-77410000D02*
X145425000Y-77410000D01*
G75*
G02*
X145175000Y-77160000I0J250000D01*
G01*
X145175000Y-76360000D01*
G75*
G02*
X145425000Y-76110000I250000J0D01*
G01*
X146675000Y-76110000D01*
G75*
G02*
X146925000Y-76360000I0J-250000D01*
G01*
X146925000Y-77160000D01*
G75*
G02*
X146675000Y-77410000I-250000J0D01*
G01*
G37*
G36*
G01*
X131430000Y-74285000D02*
X131430000Y-73035000D01*
G75*
G02*
X131680000Y-72785000I250000J0D01*
G01*
X132480000Y-72785000D01*
G75*
G02*
X132730000Y-73035000I0J-250000D01*
G01*
X132730000Y-74285000D01*
G75*
G02*
X132480000Y-74535000I-250000J0D01*
G01*
X131680000Y-74535000D01*
G75*
G02*
X131430000Y-74285000I0J250000D01*
G01*
G37*
G36*
G01*
X128330000Y-74285000D02*
X128330000Y-73035000D01*
G75*
G02*
X128580000Y-72785000I250000J0D01*
G01*
X129380000Y-72785000D01*
G75*
G02*
X129630000Y-73035000I0J-250000D01*
G01*
X129630000Y-74285000D01*
G75*
G02*
X129380000Y-74535000I-250000J0D01*
G01*
X128580000Y-74535000D01*
G75*
G02*
X128330000Y-74285000I0J250000D01*
G01*
G37*
G36*
G01*
X136515000Y-74310000D02*
X135265000Y-74310000D01*
G75*
G02*
X135015000Y-74060000I0J250000D01*
G01*
X135015000Y-73260000D01*
G75*
G02*
X135265000Y-73010000I250000J0D01*
G01*
X136515000Y-73010000D01*
G75*
G02*
X136765000Y-73260000I0J-250000D01*
G01*
X136765000Y-74060000D01*
G75*
G02*
X136515000Y-74310000I-250000J0D01*
G01*
G37*
G36*
G01*
X136515000Y-77410000D02*
X135265000Y-77410000D01*
G75*
G02*
X135015000Y-77160000I0J250000D01*
G01*
X135015000Y-76360000D01*
G75*
G02*
X135265000Y-76110000I250000J0D01*
G01*
X136515000Y-76110000D01*
G75*
G02*
X136765000Y-76360000I0J-250000D01*
G01*
X136765000Y-77160000D01*
G75*
G02*
X136515000Y-77410000I-250000J0D01*
G01*
G37*
G36*
G01*
X121270000Y-74285000D02*
X121270000Y-73035000D01*
G75*
G02*
X121520000Y-72785000I250000J0D01*
G01*
X122320000Y-72785000D01*
G75*
G02*
X122570000Y-73035000I0J-250000D01*
G01*
X122570000Y-74285000D01*
G75*
G02*
X122320000Y-74535000I-250000J0D01*
G01*
X121520000Y-74535000D01*
G75*
G02*
X121270000Y-74285000I0J250000D01*
G01*
G37*
G36*
G01*
X118170000Y-74285000D02*
X118170000Y-73035000D01*
G75*
G02*
X118420000Y-72785000I250000J0D01*
G01*
X119220000Y-72785000D01*
G75*
G02*
X119470000Y-73035000I0J-250000D01*
G01*
X119470000Y-74285000D01*
G75*
G02*
X119220000Y-74535000I-250000J0D01*
G01*
X118420000Y-74535000D01*
G75*
G02*
X118170000Y-74285000I0J250000D01*
G01*
G37*
G36*
G01*
X126355000Y-74310000D02*
X125105000Y-74310000D01*
G75*
G02*
X124855000Y-74060000I0J250000D01*
G01*
X124855000Y-73260000D01*
G75*
G02*
X125105000Y-73010000I250000J0D01*
G01*
X126355000Y-73010000D01*
G75*
G02*
X126605000Y-73260000I0J-250000D01*
G01*
X126605000Y-74060000D01*
G75*
G02*
X126355000Y-74310000I-250000J0D01*
G01*
G37*
G36*
G01*
X126355000Y-77410000D02*
X125105000Y-77410000D01*
G75*
G02*
X124855000Y-77160000I0J250000D01*
G01*
X124855000Y-76360000D01*
G75*
G02*
X125105000Y-76110000I250000J0D01*
G01*
X126355000Y-76110000D01*
G75*
G02*
X126605000Y-76360000I0J-250000D01*
G01*
X126605000Y-77160000D01*
G75*
G02*
X126355000Y-77410000I-250000J0D01*
G01*
G37*
G36*
G01*
X111110000Y-74285000D02*
X111110000Y-73035000D01*
G75*
G02*
X111360000Y-72785000I250000J0D01*
G01*
X112160000Y-72785000D01*
G75*
G02*
X112410000Y-73035000I0J-250000D01*
G01*
X112410000Y-74285000D01*
G75*
G02*
X112160000Y-74535000I-250000J0D01*
G01*
X111360000Y-74535000D01*
G75*
G02*
X111110000Y-74285000I0J250000D01*
G01*
G37*
G36*
G01*
X108010000Y-74285000D02*
X108010000Y-73035000D01*
G75*
G02*
X108260000Y-72785000I250000J0D01*
G01*
X109060000Y-72785000D01*
G75*
G02*
X109310000Y-73035000I0J-250000D01*
G01*
X109310000Y-74285000D01*
G75*
G02*
X109060000Y-74535000I-250000J0D01*
G01*
X108260000Y-74535000D01*
G75*
G02*
X108010000Y-74285000I0J250000D01*
G01*
G37*
G36*
G01*
X116195000Y-74310000D02*
X114945000Y-74310000D01*
G75*
G02*
X114695000Y-74060000I0J250000D01*
G01*
X114695000Y-73260000D01*
G75*
G02*
X114945000Y-73010000I250000J0D01*
G01*
X116195000Y-73010000D01*
G75*
G02*
X116445000Y-73260000I0J-250000D01*
G01*
X116445000Y-74060000D01*
G75*
G02*
X116195000Y-74310000I-250000J0D01*
G01*
G37*
G36*
G01*
X116195000Y-77410000D02*
X114945000Y-77410000D01*
G75*
G02*
X114695000Y-77160000I0J250000D01*
G01*
X114695000Y-76360000D01*
G75*
G02*
X114945000Y-76110000I250000J0D01*
G01*
X116195000Y-76110000D01*
G75*
G02*
X116445000Y-76360000I0J-250000D01*
G01*
X116445000Y-77160000D01*
G75*
G02*
X116195000Y-77410000I-250000J0D01*
G01*
G37*
G36*
G01*
X100950000Y-74285000D02*
X100950000Y-73035000D01*
G75*
G02*
X101200000Y-72785000I250000J0D01*
G01*
X102000000Y-72785000D01*
G75*
G02*
X102250000Y-73035000I0J-250000D01*
G01*
X102250000Y-74285000D01*
G75*
G02*
X102000000Y-74535000I-250000J0D01*
G01*
X101200000Y-74535000D01*
G75*
G02*
X100950000Y-74285000I0J250000D01*
G01*
G37*
G36*
G01*
X97850000Y-74285000D02*
X97850000Y-73035000D01*
G75*
G02*
X98100000Y-72785000I250000J0D01*
G01*
X98900000Y-72785000D01*
G75*
G02*
X99150000Y-73035000I0J-250000D01*
G01*
X99150000Y-74285000D01*
G75*
G02*
X98900000Y-74535000I-250000J0D01*
G01*
X98100000Y-74535000D01*
G75*
G02*
X97850000Y-74285000I0J250000D01*
G01*
G37*
G36*
G01*
X106035000Y-74310000D02*
X104785000Y-74310000D01*
G75*
G02*
X104535000Y-74060000I0J250000D01*
G01*
X104535000Y-73260000D01*
G75*
G02*
X104785000Y-73010000I250000J0D01*
G01*
X106035000Y-73010000D01*
G75*
G02*
X106285000Y-73260000I0J-250000D01*
G01*
X106285000Y-74060000D01*
G75*
G02*
X106035000Y-74310000I-250000J0D01*
G01*
G37*
G36*
G01*
X106035000Y-77410000D02*
X104785000Y-77410000D01*
G75*
G02*
X104535000Y-77160000I0J250000D01*
G01*
X104535000Y-76360000D01*
G75*
G02*
X104785000Y-76110000I250000J0D01*
G01*
X106035000Y-76110000D01*
G75*
G02*
X106285000Y-76360000I0J-250000D01*
G01*
X106285000Y-77160000D01*
G75*
G02*
X106035000Y-77410000I-250000J0D01*
G01*
G37*
G36*
G01*
X90790000Y-74285000D02*
X90790000Y-73035000D01*
G75*
G02*
X91040000Y-72785000I250000J0D01*
G01*
X91840000Y-72785000D01*
G75*
G02*
X92090000Y-73035000I0J-250000D01*
G01*
X92090000Y-74285000D01*
G75*
G02*
X91840000Y-74535000I-250000J0D01*
G01*
X91040000Y-74535000D01*
G75*
G02*
X90790000Y-74285000I0J250000D01*
G01*
G37*
G36*
G01*
X87690000Y-74285000D02*
X87690000Y-73035000D01*
G75*
G02*
X87940000Y-72785000I250000J0D01*
G01*
X88740000Y-72785000D01*
G75*
G02*
X88990000Y-73035000I0J-250000D01*
G01*
X88990000Y-74285000D01*
G75*
G02*
X88740000Y-74535000I-250000J0D01*
G01*
X87940000Y-74535000D01*
G75*
G02*
X87690000Y-74285000I0J250000D01*
G01*
G37*
G36*
G01*
X95875000Y-74310000D02*
X94625000Y-74310000D01*
G75*
G02*
X94375000Y-74060000I0J250000D01*
G01*
X94375000Y-73260000D01*
G75*
G02*
X94625000Y-73010000I250000J0D01*
G01*
X95875000Y-73010000D01*
G75*
G02*
X96125000Y-73260000I0J-250000D01*
G01*
X96125000Y-74060000D01*
G75*
G02*
X95875000Y-74310000I-250000J0D01*
G01*
G37*
G36*
G01*
X95875000Y-77410000D02*
X94625000Y-77410000D01*
G75*
G02*
X94375000Y-77160000I0J250000D01*
G01*
X94375000Y-76360000D01*
G75*
G02*
X94625000Y-76110000I250000J0D01*
G01*
X95875000Y-76110000D01*
G75*
G02*
X96125000Y-76360000I0J-250000D01*
G01*
X96125000Y-77160000D01*
G75*
G02*
X95875000Y-77410000I-250000J0D01*
G01*
G37*
G36*
G01*
X155565000Y-31130000D02*
X154315000Y-31130000D01*
G75*
G02*
X154065000Y-30880000I0J250000D01*
G01*
X154065000Y-30080000D01*
G75*
G02*
X154315000Y-29830000I250000J0D01*
G01*
X155565000Y-29830000D01*
G75*
G02*
X155815000Y-30080000I0J-250000D01*
G01*
X155815000Y-30880000D01*
G75*
G02*
X155565000Y-31130000I-250000J0D01*
G01*
G37*
G36*
G01*
X155565000Y-34230000D02*
X154315000Y-34230000D01*
G75*
G02*
X154065000Y-33980000I0J250000D01*
G01*
X154065000Y-33180000D01*
G75*
G02*
X154315000Y-32930000I250000J0D01*
G01*
X155565000Y-32930000D01*
G75*
G02*
X155815000Y-33180000I0J-250000D01*
G01*
X155815000Y-33980000D01*
G75*
G02*
X155565000Y-34230000I-250000J0D01*
G01*
G37*
G36*
G01*
X156300000Y-26045000D02*
X156300000Y-27295000D01*
G75*
G02*
X156050000Y-27545000I-250000J0D01*
G01*
X155250000Y-27545000D01*
G75*
G02*
X155000000Y-27295000I0J250000D01*
G01*
X155000000Y-26045000D01*
G75*
G02*
X155250000Y-25795000I250000J0D01*
G01*
X156050000Y-25795000D01*
G75*
G02*
X156300000Y-26045000I0J-250000D01*
G01*
G37*
G36*
G01*
X159400000Y-26045000D02*
X159400000Y-27295000D01*
G75*
G02*
X159150000Y-27545000I-250000J0D01*
G01*
X158350000Y-27545000D01*
G75*
G02*
X158100000Y-27295000I0J250000D01*
G01*
X158100000Y-26045000D01*
G75*
G02*
X158350000Y-25795000I250000J0D01*
G01*
X159150000Y-25795000D01*
G75*
G02*
X159400000Y-26045000I0J-250000D01*
G01*
G37*
G36*
G01*
X155565000Y-41290000D02*
X154315000Y-41290000D01*
G75*
G02*
X154065000Y-41040000I0J250000D01*
G01*
X154065000Y-40240000D01*
G75*
G02*
X154315000Y-39990000I250000J0D01*
G01*
X155565000Y-39990000D01*
G75*
G02*
X155815000Y-40240000I0J-250000D01*
G01*
X155815000Y-41040000D01*
G75*
G02*
X155565000Y-41290000I-250000J0D01*
G01*
G37*
G36*
G01*
X155565000Y-44390000D02*
X154315000Y-44390000D01*
G75*
G02*
X154065000Y-44140000I0J250000D01*
G01*
X154065000Y-43340000D01*
G75*
G02*
X154315000Y-43090000I250000J0D01*
G01*
X155565000Y-43090000D01*
G75*
G02*
X155815000Y-43340000I0J-250000D01*
G01*
X155815000Y-44140000D01*
G75*
G02*
X155565000Y-44390000I-250000J0D01*
G01*
G37*
G36*
G01*
X156300000Y-36205000D02*
X156300000Y-37455000D01*
G75*
G02*
X156050000Y-37705000I-250000J0D01*
G01*
X155250000Y-37705000D01*
G75*
G02*
X155000000Y-37455000I0J250000D01*
G01*
X155000000Y-36205000D01*
G75*
G02*
X155250000Y-35955000I250000J0D01*
G01*
X156050000Y-35955000D01*
G75*
G02*
X156300000Y-36205000I0J-250000D01*
G01*
G37*
G36*
G01*
X159400000Y-36205000D02*
X159400000Y-37455000D01*
G75*
G02*
X159150000Y-37705000I-250000J0D01*
G01*
X158350000Y-37705000D01*
G75*
G02*
X158100000Y-37455000I0J250000D01*
G01*
X158100000Y-36205000D01*
G75*
G02*
X158350000Y-35955000I250000J0D01*
G01*
X159150000Y-35955000D01*
G75*
G02*
X159400000Y-36205000I0J-250000D01*
G01*
G37*
G36*
G01*
X155565000Y-51450000D02*
X154315000Y-51450000D01*
G75*
G02*
X154065000Y-51200000I0J250000D01*
G01*
X154065000Y-50400000D01*
G75*
G02*
X154315000Y-50150000I250000J0D01*
G01*
X155565000Y-50150000D01*
G75*
G02*
X155815000Y-50400000I0J-250000D01*
G01*
X155815000Y-51200000D01*
G75*
G02*
X155565000Y-51450000I-250000J0D01*
G01*
G37*
G36*
G01*
X155565000Y-54550000D02*
X154315000Y-54550000D01*
G75*
G02*
X154065000Y-54300000I0J250000D01*
G01*
X154065000Y-53500000D01*
G75*
G02*
X154315000Y-53250000I250000J0D01*
G01*
X155565000Y-53250000D01*
G75*
G02*
X155815000Y-53500000I0J-250000D01*
G01*
X155815000Y-54300000D01*
G75*
G02*
X155565000Y-54550000I-250000J0D01*
G01*
G37*
G36*
G01*
X156300000Y-46365000D02*
X156300000Y-47615000D01*
G75*
G02*
X156050000Y-47865000I-250000J0D01*
G01*
X155250000Y-47865000D01*
G75*
G02*
X155000000Y-47615000I0J250000D01*
G01*
X155000000Y-46365000D01*
G75*
G02*
X155250000Y-46115000I250000J0D01*
G01*
X156050000Y-46115000D01*
G75*
G02*
X156300000Y-46365000I0J-250000D01*
G01*
G37*
G36*
G01*
X159400000Y-46365000D02*
X159400000Y-47615000D01*
G75*
G02*
X159150000Y-47865000I-250000J0D01*
G01*
X158350000Y-47865000D01*
G75*
G02*
X158100000Y-47615000I0J250000D01*
G01*
X158100000Y-46365000D01*
G75*
G02*
X158350000Y-46115000I250000J0D01*
G01*
X159150000Y-46115000D01*
G75*
G02*
X159400000Y-46365000I0J-250000D01*
G01*
G37*
G36*
G01*
X155565000Y-61610000D02*
X154315000Y-61610000D01*
G75*
G02*
X154065000Y-61360000I0J250000D01*
G01*
X154065000Y-60560000D01*
G75*
G02*
X154315000Y-60310000I250000J0D01*
G01*
X155565000Y-60310000D01*
G75*
G02*
X155815000Y-60560000I0J-250000D01*
G01*
X155815000Y-61360000D01*
G75*
G02*
X155565000Y-61610000I-250000J0D01*
G01*
G37*
G36*
G01*
X155565000Y-64710000D02*
X154315000Y-64710000D01*
G75*
G02*
X154065000Y-64460000I0J250000D01*
G01*
X154065000Y-63660000D01*
G75*
G02*
X154315000Y-63410000I250000J0D01*
G01*
X155565000Y-63410000D01*
G75*
G02*
X155815000Y-63660000I0J-250000D01*
G01*
X155815000Y-64460000D01*
G75*
G02*
X155565000Y-64710000I-250000J0D01*
G01*
G37*
G36*
G01*
X156300000Y-56525000D02*
X156300000Y-57775000D01*
G75*
G02*
X156050000Y-58025000I-250000J0D01*
G01*
X155250000Y-58025000D01*
G75*
G02*
X155000000Y-57775000I0J250000D01*
G01*
X155000000Y-56525000D01*
G75*
G02*
X155250000Y-56275000I250000J0D01*
G01*
X156050000Y-56275000D01*
G75*
G02*
X156300000Y-56525000I0J-250000D01*
G01*
G37*
G36*
G01*
X159400000Y-56525000D02*
X159400000Y-57775000D01*
G75*
G02*
X159150000Y-58025000I-250000J0D01*
G01*
X158350000Y-58025000D01*
G75*
G02*
X158100000Y-57775000I0J250000D01*
G01*
X158100000Y-56525000D01*
G75*
G02*
X158350000Y-56275000I250000J0D01*
G01*
X159150000Y-56275000D01*
G75*
G02*
X159400000Y-56525000I0J-250000D01*
G01*
G37*
G36*
G01*
X155565000Y-71770000D02*
X154315000Y-71770000D01*
G75*
G02*
X154065000Y-71520000I0J250000D01*
G01*
X154065000Y-70720000D01*
G75*
G02*
X154315000Y-70470000I250000J0D01*
G01*
X155565000Y-70470000D01*
G75*
G02*
X155815000Y-70720000I0J-250000D01*
G01*
X155815000Y-71520000D01*
G75*
G02*
X155565000Y-71770000I-250000J0D01*
G01*
G37*
G36*
G01*
X155565000Y-74870000D02*
X154315000Y-74870000D01*
G75*
G02*
X154065000Y-74620000I0J250000D01*
G01*
X154065000Y-73820000D01*
G75*
G02*
X154315000Y-73570000I250000J0D01*
G01*
X155565000Y-73570000D01*
G75*
G02*
X155815000Y-73820000I0J-250000D01*
G01*
X155815000Y-74620000D01*
G75*
G02*
X155565000Y-74870000I-250000J0D01*
G01*
G37*
G36*
G01*
X156300000Y-66685000D02*
X156300000Y-67935000D01*
G75*
G02*
X156050000Y-68185000I-250000J0D01*
G01*
X155250000Y-68185000D01*
G75*
G02*
X155000000Y-67935000I0J250000D01*
G01*
X155000000Y-66685000D01*
G75*
G02*
X155250000Y-66435000I250000J0D01*
G01*
X156050000Y-66435000D01*
G75*
G02*
X156300000Y-66685000I0J-250000D01*
G01*
G37*
G36*
G01*
X159400000Y-66685000D02*
X159400000Y-67935000D01*
G75*
G02*
X159150000Y-68185000I-250000J0D01*
G01*
X158350000Y-68185000D01*
G75*
G02*
X158100000Y-67935000I0J250000D01*
G01*
X158100000Y-66685000D01*
G75*
G02*
X158350000Y-66435000I250000J0D01*
G01*
X159150000Y-66435000D01*
G75*
G02*
X159400000Y-66685000I0J-250000D01*
G01*
G37*
G36*
G01*
X155565000Y-81930000D02*
X154315000Y-81930000D01*
G75*
G02*
X154065000Y-81680000I0J250000D01*
G01*
X154065000Y-80880000D01*
G75*
G02*
X154315000Y-80630000I250000J0D01*
G01*
X155565000Y-80630000D01*
G75*
G02*
X155815000Y-80880000I0J-250000D01*
G01*
X155815000Y-81680000D01*
G75*
G02*
X155565000Y-81930000I-250000J0D01*
G01*
G37*
G36*
G01*
X155565000Y-85030000D02*
X154315000Y-85030000D01*
G75*
G02*
X154065000Y-84780000I0J250000D01*
G01*
X154065000Y-83980000D01*
G75*
G02*
X154315000Y-83730000I250000J0D01*
G01*
X155565000Y-83730000D01*
G75*
G02*
X155815000Y-83980000I0J-250000D01*
G01*
X155815000Y-84780000D01*
G75*
G02*
X155565000Y-85030000I-250000J0D01*
G01*
G37*
G36*
G01*
X156300000Y-76845000D02*
X156300000Y-78095000D01*
G75*
G02*
X156050000Y-78345000I-250000J0D01*
G01*
X155250000Y-78345000D01*
G75*
G02*
X155000000Y-78095000I0J250000D01*
G01*
X155000000Y-76845000D01*
G75*
G02*
X155250000Y-76595000I250000J0D01*
G01*
X156050000Y-76595000D01*
G75*
G02*
X156300000Y-76845000I0J-250000D01*
G01*
G37*
G36*
G01*
X159400000Y-76845000D02*
X159400000Y-78095000D01*
G75*
G02*
X159150000Y-78345000I-250000J0D01*
G01*
X158350000Y-78345000D01*
G75*
G02*
X158100000Y-78095000I0J250000D01*
G01*
X158100000Y-76845000D01*
G75*
G02*
X158350000Y-76595000I250000J0D01*
G01*
X159150000Y-76595000D01*
G75*
G02*
X159400000Y-76845000I0J-250000D01*
G01*
G37*
D21*
X140970000Y-81280000D03*
D22*
X146050000Y-81280000D03*
X143510000Y-81280000D03*
D21*
X130810000Y-81280000D03*
D22*
X135890000Y-81280000D03*
X133350000Y-81280000D03*
D21*
X120650000Y-81280000D03*
D22*
X125730000Y-81280000D03*
X123190000Y-81280000D03*
D21*
X110490000Y-81280000D03*
D22*
X115570000Y-81280000D03*
X113030000Y-81280000D03*
D21*
X100330000Y-81280000D03*
D22*
X105410000Y-81280000D03*
X102870000Y-81280000D03*
D21*
X90170000Y-81280000D03*
D22*
X95250000Y-81280000D03*
X92710000Y-81280000D03*
D23*
X165100000Y-33020000D03*
X162560000Y-33020000D03*
D24*
X160020000Y-33020000D03*
D23*
X165100000Y-43180000D03*
X162560000Y-43180000D03*
D24*
X160020000Y-43180000D03*
D23*
X165100000Y-53340000D03*
X162560000Y-53340000D03*
D24*
X160020000Y-53340000D03*
D23*
X165100000Y-63500000D03*
X162560000Y-63500000D03*
D24*
X160020000Y-63500000D03*
D23*
X165100000Y-73660000D03*
X162560000Y-73660000D03*
D24*
X160020000Y-73660000D03*
D23*
X165100000Y-83820000D03*
X162560000Y-83820000D03*
D24*
X160020000Y-83820000D03*
D19*
X149860000Y-36830000D03*
D20*
X149860000Y-39370000D03*
D19*
X147320000Y-36830000D03*
D20*
X147320000Y-39370000D03*
D19*
X144780000Y-36830000D03*
D20*
X144780000Y-39370000D03*
D19*
X137160000Y-27940000D03*
D20*
X137160000Y-30480000D03*
D19*
X139700000Y-27940000D03*
D20*
X139700000Y-30480000D03*
D19*
X142240000Y-27940000D03*
D20*
X142240000Y-30480000D03*
D19*
X118110000Y-27940000D03*
X118110000Y-25400000D03*
X118110000Y-22860000D03*
D20*
X118110000Y-20320000D03*
D19*
X119380000Y-34290000D03*
X119380000Y-36830000D03*
D20*
X119380000Y-39370000D03*
D19*
X142240000Y-36830000D03*
D20*
X142240000Y-39370000D03*
D19*
X139700000Y-36830000D03*
D20*
X139700000Y-39370000D03*
D19*
X137160000Y-36830000D03*
D20*
X137160000Y-39370000D03*
D19*
X144780000Y-27940000D03*
D20*
X144780000Y-30480000D03*
D19*
X147320000Y-27940000D03*
D20*
X147320000Y-30480000D03*
D19*
X149860000Y-27940000D03*
D20*
X149860000Y-30480000D03*
D19*
X132080000Y-31750000D03*
X132080000Y-34290000D03*
X132080000Y-36830000D03*
D20*
X132080000Y-39370000D03*
D19*
X102870000Y-17780000D03*
X102870000Y-20320000D03*
X102870000Y-22860000D03*
X102870000Y-25400000D03*
D20*
X102870000Y-27940000D03*
D19*
X129540000Y-64770000D03*
X129540000Y-62230000D03*
X129540000Y-59690000D03*
D20*
X129540000Y-57150000D03*
D19*
X106680000Y-45720000D03*
X106680000Y-48260000D03*
D20*
X106680000Y-50800000D03*
D19*
X118110000Y-45720000D03*
X118110000Y-48260000D03*
X118110000Y-50800000D03*
D20*
X118110000Y-53340000D03*
D19*
X120650000Y-45720000D03*
X120650000Y-48260000D03*
X120650000Y-50800000D03*
D20*
X120650000Y-53340000D03*
D19*
X123190000Y-45720000D03*
X123190000Y-48260000D03*
X123190000Y-50800000D03*
D20*
X123190000Y-53340000D03*
D19*
X125730000Y-45720000D03*
X125730000Y-48260000D03*
X125730000Y-50800000D03*
D20*
X125730000Y-53340000D03*
D19*
X40640000Y-80010000D03*
X40640000Y-82550000D03*
X40640000Y-85090000D03*
D20*
X40640000Y-87630000D03*
D19*
X40640000Y-63500000D03*
X40640000Y-66040000D03*
X40640000Y-68580000D03*
D20*
X40640000Y-71120000D03*
D19*
X40640000Y-41910000D03*
X40640000Y-44450000D03*
X40640000Y-46990000D03*
D20*
X40640000Y-49530000D03*
X40640000Y-33020000D03*
D19*
X40640000Y-30480000D03*
X40640000Y-27940000D03*
X40640000Y-25400000D03*
D16*
X157480000Y-19050000D03*
X134980000Y-19050000D03*
D25*
X146230000Y-19050000D03*
D26*
X138430000Y-46990000D03*
D27*
X135890000Y-46990000D03*
D12*
X109220000Y-20280000D03*
D13*
X109220000Y-17780000D03*
D12*
X113030000Y-38100000D03*
D13*
X113030000Y-40600000D03*
D12*
X144780000Y-48260000D03*
D13*
X142280000Y-48260000D03*
D12*
X100330000Y-49570000D03*
D13*
X100330000Y-52070000D03*
D12*
X82550000Y-78780000D03*
D13*
X82550000Y-81280000D03*
D12*
X72390000Y-78740000D03*
D13*
X72390000Y-81240000D03*
D28*
X110490000Y-64540000D03*
D29*
X110490000Y-66040000D03*
D13*
X50800000Y-93980000D03*
D12*
X53300000Y-93980000D03*
X53340000Y-72390000D03*
D13*
X50840000Y-72390000D03*
D12*
X53340000Y-50800000D03*
D13*
X50840000Y-50800000D03*
D12*
X53300000Y-29210000D03*
D13*
X50800000Y-29210000D03*
D30*
X58420000Y-80010000D03*
X45720000Y-97790000D03*
X58420000Y-82550000D03*
X45720000Y-95250000D03*
X58420000Y-85090000D03*
X45720000Y-92710000D03*
X58420000Y-87630000D03*
X45720000Y-90170000D03*
X58420000Y-90170000D03*
X45720000Y-87630000D03*
X58420000Y-92710000D03*
X45720000Y-85090000D03*
X58420000Y-95250000D03*
X45720000Y-82550000D03*
X58420000Y-97790000D03*
D13*
X45720000Y-80010000D03*
D30*
X58420000Y-58420000D03*
X45720000Y-76200000D03*
X58420000Y-60960000D03*
X45720000Y-73660000D03*
X58420000Y-63500000D03*
X45720000Y-71120000D03*
X58420000Y-66040000D03*
X45720000Y-68580000D03*
X58420000Y-68580000D03*
X45720000Y-66040000D03*
X58420000Y-71120000D03*
X45720000Y-63500000D03*
X58420000Y-73660000D03*
X45720000Y-60960000D03*
X58420000Y-76200000D03*
D13*
X45720000Y-58420000D03*
D30*
X58420000Y-36830000D03*
X45720000Y-54610000D03*
X58420000Y-39370000D03*
X45720000Y-52070000D03*
X58420000Y-41910000D03*
X45720000Y-49530000D03*
X58420000Y-44450000D03*
X45720000Y-46990000D03*
X58420000Y-46990000D03*
X45720000Y-44450000D03*
X58420000Y-49530000D03*
X45720000Y-41910000D03*
X58420000Y-52070000D03*
X45720000Y-39370000D03*
X58420000Y-54610000D03*
D13*
X45720000Y-36830000D03*
D30*
X58420000Y-15240000D03*
X45720000Y-33020000D03*
X58420000Y-17780000D03*
X45720000Y-30480000D03*
X58420000Y-20320000D03*
X45720000Y-27940000D03*
X58420000Y-22860000D03*
X45720000Y-25400000D03*
X58420000Y-25400000D03*
X45720000Y-22860000D03*
X58420000Y-27940000D03*
X45720000Y-20320000D03*
X58420000Y-30480000D03*
X45720000Y-17780000D03*
X58420000Y-33020000D03*
D13*
X45720000Y-15240000D03*
M02*
